<?xml version="1.0" encoding="utf-8"?>
<!-- Generator: Adobe Illustrator 24.0.1, SVG Export Plug-In . SVG Version: 6.00 Build 0)  -->
<svg version="1.1" xmlns="http://www.w3.org/2000/svg" xmlns:xlink="http://www.w3.org/1999/xlink" x="0px" y="0px"
	 viewBox="0 0 23 16" style="enable-background:new 0 0 23 16;" xml:space="preserve">
<style type="text/css">
	.st0{fill:#FF600A;}
	.st1{fill:#FFFFFF;}
	.st2{fill:#F9F8F7;}
	.st3{fill:#FF6008;}
</style>
<g id="Слой_2">
	<path class="st0" d="M20.1,0H2.6C1.2,0,0,1.2,0,2.6v10.8C0,14.8,1.2,16,2.6,16h17.5c1.4,0,2.6-1.2,2.6-2.6c0,0,0,0,0,0V2.6
		C22.7,1.2,21.5,0,20.1,0z"/>
</g>
<g id="Слой_1">
	<path class="st1" d="M4.1,12.5c0,0.1,0.1,0.2,0.3,0.3c0,0,0.2,0.1,0.5,0.2c0.1,0,0.3,0,0.5,0c0.1,0,0.3,0,0.4-0.1
		c0.2-0.1,0.3-0.2,0.4-0.3c0.2-0.2,0.2-0.4,0.3-0.4c0.1,0,0.1,0.2,0.3,0.5c0.1,0.1,0.2,0.3,0.4,0.3c0,0,0,0,0.3,0c0,0,0.2,0,0.2,0
		c0.1,0,0.3,0,0.3,0c0.2,0,0.2,0,0.2,0c0.1,0,0.2-0.1,0.3-0.2c0.1-0.1,0.1-0.1,0.2-0.2c0-0.1,0.1-0.1,0.1-0.2c0-0.1,0-0.1,0.1-0.2
		c0,0,0-0.2,0-0.3c0-0.1-0.1-0.1-0.2-0.3c-0.1-0.2-0.2-0.3-0.2-0.4c0-0.1,0-0.2,0-0.2c0.1-0.1,0.3,0,0.5,0c0.2,0,0.3-0.1,0.4-0.2
		c0,0,0.1-0.1,0.1-0.2c0-0.2,0-0.3,0-0.3c-0.1,0.1-0.2,0.1-0.4,0.2c-0.2,0.1-0.5,0.1-0.5,0.1c0,0,0.4-0.1,0.5-0.4c0-0.1,0-0.1,0-0.3
		c0-0.3-0.1-0.4,0-0.5c0-0.2,0.2-0.2,0.2-0.3C9.6,8.9,9.9,9,10,9.1c0.3,0.1,0.7,0.2,1.3,0.2c0.1,0,0.3,0,0.5,0.2
		c0.2,0.1,0.3,0.3,0.3,0.5c0.1,0.2,0.1,0.3,0.2,0.4c0,0.1,0.1,0.3,0.1,0.3c0,0.1,0,0.2,0,0.4c0,0.4,0,0.4,0,0.5c0,0.2,0,0.4,0.1,0.6
		c0.1,0.3,0.1,0.4,0.2,0.5c0.1,0.1,0.1,0.3,0.3,0.4c0.1,0.1,0.3,0.2,0.5,0.3c0.2,0.1,0.4,0.2,0.7,0.1c0.1,0,0.2,0,0.2-0.1l0.3-0.1
		c0.1-0.1,0.2-0.2,0.3-0.3c0.2-0.2,0.2-0.2,0.2-0.3c0-0.1,0-0.3,0-0.3c0-0.2-0.1-0.3-0.2-0.3c0-0.1-0.1-0.2-0.1-0.3
		c-0.1-0.2-0.1-0.3-0.1-0.5c-0.1-0.3-0.1-0.4,0-0.4c0.1,0,0.1,0,0.3,0c0.2,0,0.3,0,0.4,0c0.1,0,0.3-0.1,0.4-0.2
		c0.1-0.1,0.2-0.1,0.2-0.2c0-0.1,0-0.2,0-0.2c0-0.1,0-0.3-0.1-0.3c-0.1,0-0.2,0.1-0.3,0.3c-0.1,0.1-0.3,0.1-0.4,0.2
		c0.2-0.1,0.4-0.2,0.4-0.4c0-0.2,0-0.3-0.1-0.4C15.1,8.6,16,6.1,16,5.9c0.3,0.3,0.5,0.3,0.7,0.3c0.6,0,1.2-0.8,1.4-2
		c-0.2-0.5-0.6-1.4-1.4-2c-0.5-0.4-0.9-0.5-1-0.5c-0.1,0-0.5,0-0.9,0.2c-0.1,0.1-0.5,0.3-0.7,0.7C14,2.9,14,3,13.8,3.2
		c-0.2,0.2-0.3,0.3-0.4,0.4c-0.6,0.5-1.3,0.8-1.6,1C11.1,4.9,10.9,5,10.7,5c-0.3,0.1-0.5,0.1-0.7,0.1c-0.2,0-0.5,0.1-1,0
		c-0.4,0-0.5-0.1-0.8-0.1c0,0-0.2,0-0.4,0C6.6,5,6,5.6,6,5.6C5.5,6.1,5.4,6.8,5.3,7c-0.1,0.5,0,0.9,0,1.1c0,0.2,0.1,0.5,0.2,1
		c0.2,0.7,0.2,0.7,0.3,1C6,10.7,6,11.1,6,11.3c0,0.2-0.1,0.4-0.1,0.4c0,0.1-0.1,0.3-0.3,0.5c-0.2,0.2-0.4,0.2-0.5,0.2
		c-0.2,0-0.3,0-0.4,0c0,0-0.1-0.1-0.2-0.1c-0.1,0-0.1,0-0.1,0C4.2,12.2,4.1,12.3,4.1,12.5z"/>
	<path class="st0" d="M6.8,8.4c0.1,0-0.2-0.5,0-1c0.1-0.4,0.4-0.6,0.5-0.6c0.1-0.1,0.3-0.2,0.9-0.2c0.3,0,0.8,0,1.3,0.3
		c0.6,0.3,0.8,0.6,1.5,1.4c0.3,0.3,0.7,0.8,1.4,1.3c-0.4-0.6-0.7-1.1-0.9-1.4c-0.1-0.2-0.4-0.7-0.8-1.3c-0.3-0.5-0.4-0.5-0.5-0.6
		C9.7,5.8,9.2,5.7,8.9,5.7C8.2,5.7,7.5,6,7.4,6C6.8,6.3,6.6,6.7,6.6,6.8C6.5,7,6.5,7.2,6.5,7.4C6.5,7.9,6.8,8.4,6.8,8.4z"/>
	<path class="st0" d="M8.5,8.5c-0.1,0-0.2,0.1-0.4,0.3"/>
	<path class="st0" d="M8.1,8.8C8,8.9,7.9,9.1,7.8,9.2L7.7,9.4c0,0-0.1,0.3-0.1,0.4c0,0.1,0,0.3,0,0.3c0,0.1,0,0.3,0,0.4
		c0,0.1,0,0.4,0,0.4s0.1,0.3,0.1,0.3c0,0.1,0.1,0.3,0.2,0.4C7.9,11.7,8.2,12,8.2,12c-0.1-0.2-0.3-1-0.3-1.8c0-0.1,0-0.4,0.1-0.7
		c0-0.1,0.2-0.4,0.3-0.5c0.1-0.2,0.3-0.3,0.3-0.3c0.1-0.1,0.3-0.2,0.6-0.2c0.1,0,0.3,0,0.4,0h0.1C9.5,8.5,9.3,8.3,9.1,8.3
		c-0.3,0-0.6,0.1-0.7,0.2"/>
	<path class="st0" d="M14.3,10.3c0,0,0,0,0,0.4c0,0.3,0,0.3,0,0.3c0,0.1,0,0.1,0.1,0.4c0.1,0.4,0.1,0.4,0.2,0.5
		c0.1,0.1,0.1,0.1,0.2,0.2c0,0.1-0.1,0.2-0.2,0.3c-0.1,0.1-0.3,0.2-0.6,0.2c-0.2,0-0.4,0-0.5,0c0.2-0.1,0.4-0.2,0.5-0.4
		c0.1-0.2,0.1-0.4,0.2-1C14.2,10.8,14.3,10.3,14.3,10.3z"/>
	<path class="st0" d="M11.3,5.4c0.1,0.4,0.3,1,0.7,1.6c0.1,0.2,0.7,0.9,1.5,1.3C13.7,8.4,14,8.5,14,8.5c0.4,0.1,0.7,0.2,0.9,0.2
		c-0.3-0.1-0.5-0.2-0.8-0.4L13.6,8c-0.3-0.2-0.8-0.5-1.3-1.2c-0.4-0.6-0.7-1.2-0.8-1.6c0-0.1-0.1-0.1-0.2,0
		C11.3,5.2,11.2,5.3,11.3,5.4z"/>
	<path class="st0" d="M12.8,5.4c0.2,0.3,0.5,0.8,1,1.3c0.2,0.1,0.4,0.2,0.6,0.3C14.8,7,15,7.1,15.2,7.1c-0.1-0.1-0.3-0.1-0.5-0.3
		c-0.5-0.3-1-0.5-1.4-1.1c-0.2-0.2-0.4-0.6-0.6-1.2c0,0,0,0-0.1,0c0,0-0.1,0-0.1,0C12.5,4.5,12.6,5,12.8,5.4z"/>
	<path class="st0" d="M13.8,3.9c0.1,0.2,0.2,0.5,0.2,0.7c0.1,0.2,0.3,0.5,0.6,0.7c0.3,0.2,0.5,0.3,0.6,0.3c0.2,0.1,0.4,0.1,0.5,0.1
		c-0.1-0.1-0.2-0.1-0.4-0.2c-0.2-0.1-0.3-0.2-0.4-0.2c-0.2-0.1-0.4-0.3-0.6-0.7C14.2,4.5,14,4.3,13.9,4c0,0,0-0.1-0.1-0.1
		c0,0-0.1,0-0.1,0C13.7,3.8,13.7,3.9,13.8,3.9z"/>
	<ellipse class="st0" cx="10.8" cy="5.7" rx="0.1" ry="0.2"/>
	<ellipse class="st0" cx="13.8" cy="7.1" rx="0.1" ry="0.2"/>
	<ellipse class="st0" cx="11.1" cy="6.6" rx="0.1" ry="0.2"/>
	<ellipse class="st0" cx="11.6" cy="7.5" rx="0.1" ry="0.2"/>
	<ellipse class="st2" cx="12.2" cy="8.2" rx="0.1" ry="0.2"/>
	<ellipse class="st0" cx="13" cy="8.8" rx="0.1" ry="0.2"/>
	<ellipse class="st0" cx="13.9" cy="9.2" rx="0.1" ry="0.2"/>
	<ellipse class="st0" cx="14.8" cy="9.4" rx="0.1" ry="0.2"/>
	<ellipse class="st0" cx="15" cy="7.9" rx="0.1" ry="0.2"/>
	<ellipse class="st0" cx="14" cy="7.6" rx="0.1" ry="0.2"/>
	<ellipse class="st0" cx="12.6" cy="6.1" rx="0.1" ry="0.2"/>
	<ellipse class="st0" cx="12.2" cy="5.2" rx="0.1" ry="0.2"/>
	<ellipse class="st0" cx="13.3" cy="4.4" rx="0.1" ry="0.2"/>
	<ellipse class="st0" cx="13.8" cy="5.2" rx="0.1" ry="0.2"/>
	<ellipse class="st0" cx="14.5" cy="5.9" rx="0.1" ry="0.2"/>
	<ellipse class="st0" cx="15.3" cy="6.4" rx="0.1" ry="0.2"/>
	<ellipse class="st0" cx="14.7" cy="4.3" rx="0.1" ry="0.2"/>
	<ellipse class="st0" cx="15.2" cy="4.9" rx="0.1" ry="0.2"/>
	<ellipse class="st0" cx="15.9" cy="5.2" rx="0.1" ry="0.2"/>
	<ellipse class="st0" cx="16.6" cy="5" rx="0.1" ry="0.2"/>
	<ellipse class="st0" cx="17.1" cy="4.5" rx="0.1" ry="0.2"/>
	<ellipse class="st0" cx="15" cy="3.6" rx="0.1" ry="0.2"/>
	<ellipse class="st0" cx="14.4" cy="3.6" rx="0.1" ry="0.2"/>
	<ellipse class="st0" cx="14.4" cy="2.9" rx="0.1" ry="0.2"/>
	<ellipse class="st0" cx="14.7" cy="2.3" rx="0.1" ry="0.1"/>
	<ellipse class="st0" cx="15.2" cy="2.1" rx="0.1" ry="0.1"/>
	<ellipse class="st0" cx="17.3" cy="3.4" rx="0.1" ry="0.1"/>
	<ellipse class="st0" cx="17.8" cy="4.2" rx="0.1" ry="0.1"/>
	<ellipse class="st0" cx="17.6" cy="4.5" rx="0.1" ry="0.1"/>
	<ellipse class="st0" cx="17.5" cy="4.9" rx="0.1" ry="0.1"/>
	<ellipse class="st0" cx="17.2" cy="5.2" rx="0.1" ry="0.1"/>
	<ellipse class="st0" cx="17" cy="5.6" rx="0.1" ry="0.1"/>
	<ellipse class="st0" cx="16.7" cy="5.9" rx="0.1" ry="0.1"/>
	<ellipse class="st0" cx="17.4" cy="3.9" rx="0.1" ry="0.1"/>
	<ellipse class="st0" cx="16.2" cy="3.4" rx="0.7" ry="0.7"/>
	<ellipse class="st1" cx="16.4" cy="3.5" rx="0.4" ry="0.4"/>
	<line class="st2" x1="13.2" y1="5.8" x2="13.2" y2="5.8"/>
	<path class="st3" d="M9,5.9"/>
	<path class="st2" d="M12.5,9.2"/>
	<path class="st2" d="M13.1,6.9"/>
	<path class="st2" d="M15.1,4.6"/>
	<path class="st3" d="M17.6,15.3"/>
</g>
</svg>
