<?xml version="1.0" encoding="utf-8"?>
<!-- Generator: Adobe Illustrator 24.0.1, SVG Export Plug-In . SVG Version: 6.00 Build 0)  -->
<svg version="1.1" id="Слой_1" xmlns="http://www.w3.org/2000/svg" xmlns:xlink="http://www.w3.org/1999/xlink" x="0px" y="0px"
	 viewBox="0 0 96 96" style="enable-background:new 0 0 96 96;" xml:space="preserve">
<style type="text/css">
	.st0{fill:#FFFFFF;}
	.st1{fill:#7B77FB;}
	.st2{clip-path:url(#SVGID_2_);}
	.st3{fill:#84E9FD;}
</style>
<rect y="0" class="st0" width="96" height="96"/>
<path id="pricingIconTag" class="st1" d="M41.4,30.4l8.4,8.3c0.8,0.8,1.2,1.8,1.2,2.8V62c0,1.7-1.3,3-3,3H32c-1.7,0-3-1.3-3-3V41.5
	c0-1.1,0.4-2.1,1.2-2.8l8.4-8.3C39.4,29.6,40.6,29.6,41.4,30.4z M40,36c-1.7,0-3,1.3-3,3s1.3,3,3,3s3-1.3,3-3S41.7,36,40,36z"/>
<g>
	<defs>
		<path id="SVGID_1_" d="M47.1,33.9l0.1,11.8c0,1.1-0.4,2.1-1.2,2.9L31.5,63c-1.2,1.2-3.1,1.2-4.2,0L16,51.7c-1.2-1.2-1.2-3.1,0-4.2
			L30.5,33c0.8-0.8,1.8-1.2,2.9-1.2l11.8,0.1C46.2,31.9,47.1,32.8,47.1,33.9z M42.1,36.9c-1.2-1.2-3.1-1.2-4.2,0
			c-1.2,1.2-1.2,3.1,0,4.2c1.2,1.2,3.1,1.2,4.2,0C43.3,39.9,43.3,38.1,42.1,36.9z"/>
	</defs>
	<clipPath id="SVGID_2_">
		<use xlink:href="#SVGID_1_"  style="overflow:visible;"/>
	</clipPath>
	<g class="st2">
		<path class="st3" d="M47.1,33.9l0.1,11.8c0,1.1-0.4,2.1-1.2,2.9L31.5,63c-1.2,1.2-3.1,1.2-4.2,0L16,51.7c-1.2-1.2-1.2-3.1,0-4.2
			L30.5,33c0.8-0.8,1.8-1.2,2.9-1.2l11.8,0.1C46.2,31.9,47.1,32.8,47.1,33.9z M42.1,36.9c-1.2-1.2-3.1-1.2-4.2,0
			c-1.2,1.2-1.2,3.1,0,4.2c1.2,1.2,3.1,1.2,4.2,0C43.3,39.9,43.3,38.1,42.1,36.9z"/>
	</g>
</g>
</svg>
