<svg xmlns="http://www.w3.org/2000/svg" xmlns:xlink="http://www.w3.org/1999/xlink" width="748.18" height="436.05" viewBox="0 0 748.18 436.05"><defs><linearGradient id="linear-gradient" x1="12.16" y1="83.9" x2="78.77" y2="83.69" gradientTransform="translate(85.27 121.36) rotate(0.46)" gradientUnits="userSpaceOnUse"><stop offset="0" stop-color="#2b2b2b"/><stop offset="1" stop-color="#636363"/></linearGradient><linearGradient id="linear-gradient-2" x1="11.18" y1="82.29" x2="77.8" y2="82.08" gradientTransform="translate(85.27 121.36) rotate(0.46)" gradientUnits="userSpaceOnUse"><stop offset="0" stop-color="#cfcfcf"/><stop offset="1" stop-color="#9e9e9e"/></linearGradient><linearGradient id="linear-gradient-3" x1="14.34" y1="82.28" x2="78.19" y2="82.08" gradientTransform="translate(85.27 121.36) rotate(0.46)" gradientUnits="userSpaceOnUse"><stop offset="0" stop-color="#fff"/><stop offset="0.59" stop-color="#9e9e9e"/></linearGradient><clipPath id="clip-path"><path d="M154,232.7l-46.73-.44c-4.39,0-7.92-4.18-7.89-9.23l.28-38.82c0-5.05,3.62-9.12,8-9.08l46.72.44c4.39,0,7.93,4.17,7.89,9.23l-.27,38.82C162,228.67,158.42,232.74,154,232.7Z" style="fill:none"/></clipPath><radialGradient id="radial-gradient" cx="-122.92" cy="300.9" r="19.36" gradientTransform="matrix(1.06, 0.01, -0.01, 1.22, 277.27, -173.95)" gradientUnits="userSpaceOnUse"><stop offset="0" stop-color="#fff"/><stop offset="1" stop-color="#fff" stop-opacity="0"/></radialGradient><radialGradient id="radial-gradient-2" cx="-146.71" cy="310.15" r="19.36" xlink:href="#radial-gradient"/><radialGradient id="radial-gradient-3" cx="-143.13" cy="311.48" r="19.36" xlink:href="#radial-gradient"/><radialGradient id="radial-gradient-4" cx="34.54" cy="543.65" r="17.43" gradientTransform="matrix(2.27, -0.04, 0.43, 0.51, -185.17, -101.25)" gradientUnits="userSpaceOnUse"><stop offset="0" stop-color="#fff"/><stop offset="0.04" stop-color="#fff" stop-opacity="0.87"/><stop offset="0.1" stop-color="#fff" stop-opacity="0.69"/><stop offset="0.17" stop-color="#fff" stop-opacity="0.52"/><stop offset="0.24" stop-color="#fff" stop-opacity="0.38"/><stop offset="0.31" stop-color="#fff" stop-opacity="0.26"/><stop offset="0.39" stop-color="#fff" stop-opacity="0.17"/><stop offset="0.49" stop-color="#fff" stop-opacity="0.09"/><stop offset="0.59" stop-color="#fff" stop-opacity="0.04"/><stop offset="0.73" stop-color="#fff" stop-opacity="0.01"/><stop offset="1" stop-color="#fff" stop-opacity="0"/></radialGradient><radialGradient id="radial-gradient-5" cx="19.67" cy="603.01" r="17.43" gradientTransform="matrix(2.27, -0.04, 0.43, 0.51, -179.83, -94.88)" xlink:href="#radial-gradient-4"/><radialGradient id="radial-gradient-6" cx="25.25" cy="620.47" r="17.43" gradientTransform="matrix(2.27, -0.04, 0.43, 0.51, -178.26, -93.01)" xlink:href="#radial-gradient-4"/><radialGradient id="radial-gradient-7" cx="22.93" cy="606.48" r="17.43" gradientTransform="matrix(2.27, -0.04, 0.43, 0.51, -179.52, -94.51)" xlink:href="#radial-gradient-4"/><linearGradient id="linear-gradient-4" x1="49.06" y1="220.83" x2="679.92" y2="220.83" gradientUnits="userSpaceOnUse"><stop offset="0.02" stop-color="#fff"/><stop offset="0.35" stop-color="#9a9a9a"/><stop offset="0.63" stop-color="#454545"/><stop offset="1" stop-color="#8c8c8c"/></linearGradient><radialGradient id="radial-gradient-8" cx="192.02" cy="-195.71" r="243" gradientTransform="matrix(-1.4, 0, 0, 1.43, 988.48, 508.02)" xlink:href="#radial-gradient"/><linearGradient id="Безымянный_градиент_10" x1="57.42" y1="336.54" x2="646.68" y2="112.46" gradientUnits="userSpaceOnUse"><stop offset="0" stop-color="#fff" stop-opacity="0.71"/><stop offset="0.47" stop-color="#fff" stop-opacity="0.35"/><stop offset="0.83" stop-color="#fff" stop-opacity="0.1"/><stop offset="1" stop-color="#fff" stop-opacity="0"/></linearGradient></defs><title>bankofgeorgiacard</title><g style="isolation:isolate"><g id="Слой_1" data-name="Слой 1"><g id="Bank_of_Georgia" data-name="Bank of Georgia"><path d="M79.11,28.61H651.06a28.56,28.56,0,0,1,28.56,28.58V382.53a28.57,28.57,0,0,1-28.56,28.57H79.11a28.58,28.58,0,0,1-28.58-28.57V57.19A28.57,28.57,0,0,1,79.11,28.61Z" style="fill:#eb602c"/><path d="M155,234.31l-46.73-.43c-4.39,0-7.92-4.18-7.89-9.23l.28-38.82c0-5.05,3.62-9.12,8-9.08l46.72.44c4.39,0,7.93,4.17,7.89,9.23L163,225.23C163,230.29,159.38,234.36,155,234.31Z" style="opacity:0.25;mix-blend-mode:multiply;fill:url(#linear-gradient)"/><path d="M154,232.7l-46.73-.44c-4.39,0-7.92-4.18-7.89-9.23l.28-38.82c0-5.05,3.62-9.12,8-9.08l46.72.44c4.39,0,7.93,4.17,7.89,9.23l-.27,38.82C162,228.67,158.42,232.74,154,232.7Z" style="fill:url(#linear-gradient-2)"/><path d="M154,232.7l-46.73-.44c-4.39,0-7.92-4.18-7.89-9.23l.28-38.82c0-5.05,3.62-9.12,8-9.08l46.72.44c4.39,0,7.93,4.17,7.89,9.23l-.27,38.82C162,228.67,158.42,232.74,154,232.7Z" style="fill:none;stroke-miterlimit:10;stroke-width:1.1394455312366036px;stroke:url(#linear-gradient-3)"/><g style="opacity:0.2;mix-blend-mode:multiply"><polygon points="140.69 214.58 118.75 214.38 118.91 191.75 140.85 191.96 140.69 214.58" style="fill:none;stroke:#8d8d8d;stroke-miterlimit:10;stroke-width:1.1394455312366036px"/><polygon points="150.98 183.45 129.94 183.25 129.88 191.86 150.92 192.05 150.98 183.45" style="fill:none;stroke:#8d8d8d;stroke-miterlimit:10;stroke-width:1.1394455312366036px"/><polygon points="129.94 183.25 108.9 183.05 108.84 191.66 129.88 191.86 129.94 183.25" style="fill:none;stroke:#8d8d8d;stroke-miterlimit:10;stroke-width:1.1394455312366036px"/><polygon points="150.76 214.68 129.72 214.48 129.66 223.09 150.7 223.28 150.76 214.68" style="fill:none;stroke:#8d8d8d;stroke-miterlimit:10;stroke-width:1.1394455312366036px"/><polygon points="129.72 214.48 108.68 214.28 108.62 222.89 129.66 223.09 129.72 214.48" style="fill:none;stroke:#8d8d8d;stroke-miterlimit:10;stroke-width:1.1394455312366036px"/><line x1="150.92" y1="192.05" x2="161.67" y2="192.15" style="fill:none;stroke:#8d8d8d;stroke-miterlimit:10;stroke-width:1.1394455312366036px"/><line x1="150.76" y1="214.68" x2="161.51" y2="214.78" style="fill:none;stroke:#8d8d8d;stroke-miterlimit:10;stroke-width:1.1394455312366036px"/><line x1="98.56" y1="191.56" x2="109.31" y2="191.66" style="fill:none;stroke:#8d8d8d;stroke-miterlimit:10;stroke-width:1.1394455312366036px"/><line x1="98.4" y1="214.18" x2="109.15" y2="214.29" style="fill:none;stroke:#8d8d8d;stroke-miterlimit:10;stroke-width:1.1394455312366036px"/><line x1="98.48" y1="202.87" x2="118.83" y2="203.06" style="fill:none;stroke:#8d8d8d;stroke-miterlimit:10;stroke-width:1.1394455312366036px"/><line x1="140.77" y1="203.27" x2="161.59" y2="203.46" style="fill:none;stroke:#8d8d8d;stroke-miterlimit:10;stroke-width:1.1394455312366036px"/><line x1="108.62" y1="222.89" x2="108.56" y2="231.13" style="fill:none;stroke:#8d8d8d;stroke-miterlimit:10;stroke-width:1.1394455312366036px"/><line x1="129.66" y1="223.08" x2="129.6" y2="231.33" style="fill:none;stroke:#8d8d8d;stroke-miterlimit:10;stroke-width:1.1394455312366036px"/><line x1="150.7" y1="223.28" x2="150.64" y2="231.53" style="fill:none;stroke:#8d8d8d;stroke-miterlimit:10;stroke-width:1.1394455312366036px"/><line x1="119.14" y1="222.99" x2="119.08" y2="231.63" style="fill:none;stroke:#8d8d8d;stroke-miterlimit:10;stroke-width:1.1394455312366036px"/><line x1="140.63" y1="223.19" x2="140.57" y2="231.83" style="fill:none;stroke:#8d8d8d;stroke-miterlimit:10;stroke-width:1.1394455312366036px"/><line x1="108.96" y1="174.81" x2="108.9" y2="183.05" style="fill:none;stroke:#8d8d8d;stroke-miterlimit:10;stroke-width:1.1394455312366036px"/><line x1="130" y1="175" x2="129.94" y2="183.25" style="fill:none;stroke:#8d8d8d;stroke-miterlimit:10;stroke-width:1.1394455312366036px"/><line x1="151.04" y1="175.2" x2="150.98" y2="183.45" style="fill:none;stroke:#8d8d8d;stroke-miterlimit:10;stroke-width:1.1394455312366036px"/><line x1="119.48" y1="174.9" x2="119.42" y2="183.55" style="fill:none;stroke:#8d8d8d;stroke-miterlimit:10;stroke-width:1.1394455312366036px"/><line x1="140.97" y1="175.11" x2="140.91" y2="183.75" style="fill:none;stroke:#8d8d8d;stroke-miterlimit:10;stroke-width:1.1394455312366036px"/></g><polygon points="141.33 215.3 119.38 215.1 119.54 192.47 141.49 192.68 141.33 215.3" style="fill:none;stroke:#fff;stroke-miterlimit:10;stroke-width:1.1394455312366036px"/><polygon points="151.62 184.17 130.57 183.97 130.51 192.58 151.55 192.77 151.62 184.17" style="fill:none;stroke:#fff;stroke-miterlimit:10;stroke-width:1.1394455312366036px"/><polygon points="130.57 183.97 109.53 183.77 109.47 192.38 130.51 192.58 130.57 183.97" style="fill:none;stroke:#fff;stroke-miterlimit:10;stroke-width:1.1394455312366036px"/><polygon points="151.39 215.4 130.35 215.2 130.29 223.81 151.33 224 151.39 215.4" style="fill:none;stroke:#fff;stroke-miterlimit:10;stroke-width:1.1394455312366036px"/><polygon points="130.35 215.2 109.31 215 109.25 223.61 130.29 223.81 130.35 215.2" style="fill:none;stroke:#fff;stroke-miterlimit:10;stroke-width:1.1394455312366036px"/><line x1="151.55" y1="192.77" x2="162.3" y2="192.87" style="fill:none;stroke:#fff;stroke-miterlimit:10;stroke-width:1.1394455312366036px"/><line x1="151.39" y1="215.4" x2="162.14" y2="215.5" style="fill:none;stroke:#fff;stroke-miterlimit:10;stroke-width:1.1394455312366036px"/><line x1="99.2" y1="192.28" x2="109.95" y2="192.38" style="fill:none;stroke:#fff;stroke-miterlimit:10;stroke-width:1.1394455312366036px"/><line x1="99.04" y1="214.9" x2="109.79" y2="215.01" style="fill:none;stroke:#fff;stroke-miterlimit:10;stroke-width:1.1394455312366036px"/><line x1="99.12" y1="203.59" x2="119.46" y2="203.78" style="fill:none;stroke:#fff;stroke-miterlimit:10;stroke-width:1.1394455312366036px"/><line x1="141.41" y1="203.99" x2="162.22" y2="204.18" style="fill:none;stroke:#fff;stroke-miterlimit:10;stroke-width:1.1394455312366036px"/><line x1="109.25" y1="223.61" x2="109.19" y2="231.85" style="fill:none;stroke:#fff;stroke-miterlimit:10;stroke-width:1.1394455312366036px"/><line x1="130.29" y1="223.8" x2="130.23" y2="232.05" style="fill:none;stroke:#fff;stroke-miterlimit:10;stroke-width:1.1394455312366036px"/><line x1="151.33" y1="224" x2="151.27" y2="232.25" style="fill:none;stroke:#fff;stroke-miterlimit:10;stroke-width:1.1394455312366036px"/><line x1="119.77" y1="223.71" x2="119.71" y2="232.35" style="fill:none;stroke:#fff;stroke-miterlimit:10;stroke-width:1.1394455312366036px"/><line x1="141.26" y1="223.91" x2="141.2" y2="232.55" style="fill:none;stroke:#fff;stroke-miterlimit:10;stroke-width:1.1394455312366036px"/><line x1="109.59" y1="175.53" x2="109.53" y2="183.77" style="fill:none;stroke:#fff;stroke-miterlimit:10;stroke-width:1.1394455312366036px"/><line x1="130.63" y1="175.72" x2="130.57" y2="183.97" style="fill:none;stroke:#fff;stroke-miterlimit:10;stroke-width:1.1394455312366036px"/><line x1="151.67" y1="175.92" x2="151.61" y2="184.17" style="fill:none;stroke:#fff;stroke-miterlimit:10;stroke-width:1.1394455312366036px"/><line x1="120.11" y1="175.62" x2="120.05" y2="184.27" style="fill:none;stroke:#fff;stroke-miterlimit:10;stroke-width:1.1394455312366036px"/><line x1="141.6" y1="175.83" x2="141.54" y2="184.47" style="fill:none;stroke:#fff;stroke-miterlimit:10;stroke-width:1.1394455312366036px"/><polygon points="141.32 215.71 119.38 215.5 119.54 192.88 141.48 193.08 141.32 215.71" style="fill:none;stroke:#fff;stroke-miterlimit:10;stroke-width:1.1394455312366036px"/><polygon points="151.61 184.57 130.57 184.37 130.51 192.98 151.55 193.18 151.61 184.57" style="fill:none;stroke:#fff;stroke-miterlimit:10;stroke-width:1.1394455312366036px"/><polygon points="130.57 184.37 109.53 184.18 109.47 192.78 130.51 192.98 130.57 184.37" style="fill:none;stroke:#fff;stroke-miterlimit:10;stroke-width:1.1394455312366036px"/><polygon points="151.39 215.8 130.35 215.6 130.29 224.21 151.33 224.41 151.39 215.8" style="fill:none;stroke:#fff;stroke-miterlimit:10;stroke-width:1.1394455312366036px"/><polygon points="130.35 215.6 109.31 215.41 109.25 224.01 130.29 224.21 130.35 215.6" style="fill:none;stroke:#fff;stroke-miterlimit:10;stroke-width:1.1394455312366036px"/><line x1="151.55" y1="193.18" x2="162.3" y2="193.28" style="fill:none;stroke:#fff;stroke-miterlimit:10;stroke-width:1.1394455312366036px"/><line x1="151.39" y1="215.8" x2="162.14" y2="215.9" style="fill:none;stroke:#fff;stroke-miterlimit:10;stroke-width:1.1394455312366036px"/><line x1="99.2" y1="192.69" x2="109.95" y2="192.79" style="fill:none;stroke:#fff;stroke-miterlimit:10;stroke-width:1.1394455312366036px"/><line x1="99.04" y1="215.31" x2="109.79" y2="215.41" style="fill:none;stroke:#fff;stroke-miterlimit:10;stroke-width:1.1394455312366036px"/><line x1="99.12" y1="204" x2="119.46" y2="204.19" style="fill:none;stroke:#fff;stroke-miterlimit:10;stroke-width:1.1394455312366036px"/><line x1="141.4" y1="204.39" x2="162.22" y2="204.59" style="fill:none;stroke:#fff;stroke-miterlimit:10;stroke-width:1.1394455312366036px"/><line x1="109.25" y1="224.01" x2="109.19" y2="232.26" style="fill:none;stroke:#fff;stroke-miterlimit:10;stroke-width:1.1394455312366036px"/><line x1="130.29" y1="224.21" x2="130.23" y2="232.46" style="fill:none;stroke:#fff;stroke-miterlimit:10;stroke-width:1.1394455312366036px"/><line x1="151.33" y1="224.41" x2="151.27" y2="232.65" style="fill:none;stroke:#fff;stroke-miterlimit:10;stroke-width:1.1394455312366036px"/><line x1="119.77" y1="224.11" x2="119.71" y2="232.76" style="fill:none;stroke:#fff;stroke-miterlimit:10;stroke-width:1.1394455312366036px"/><line x1="141.26" y1="224.31" x2="141.2" y2="232.96" style="fill:none;stroke:#fff;stroke-miterlimit:10;stroke-width:1.1394455312366036px"/><line x1="109.59" y1="175.93" x2="109.53" y2="184.18" style="fill:none;stroke:#fff;stroke-miterlimit:10;stroke-width:1.1394455312366036px"/><line x1="130.63" y1="176.13" x2="130.57" y2="184.37" style="fill:none;stroke:#fff;stroke-miterlimit:10;stroke-width:1.1394455312366036px"/><line x1="151.67" y1="176.33" x2="151.61" y2="184.57" style="fill:none;stroke:#fff;stroke-miterlimit:10;stroke-width:1.1394455312366036px"/><line x1="120.11" y1="176.03" x2="120.05" y2="184.67" style="fill:none;stroke:#fff;stroke-miterlimit:10;stroke-width:1.1394455312366036px"/><line x1="141.6" y1="176.23" x2="141.54" y2="184.88" style="fill:none;stroke:#fff;stroke-miterlimit:10;stroke-width:1.1394455312366036px"/><g style="clip-path:url(#clip-path)"><polygon points="145.51 232.62 131.99 232.49 104.05 175.1 117.58 175.22 145.51 232.62" style="fill:#fff;opacity:0.5;mix-blend-mode:soft-light"/><polygon points="119.21 232.37 105.68 232.24 77.75 174.85 91.27 174.98 119.21 232.37" style="fill:#fff;opacity:0.5;mix-blend-mode:soft-light"/><polygon points="164.36 232.79 139.71 232.56 111.78 175.17 136.43 175.4 164.36 232.79" style="fill:#fff;opacity:0.75;mix-blend-mode:soft-light"/><polygon points="204.26 233.17 179.61 232.94 151.68 175.54 176.33 175.78 204.26 233.17" style="fill:#fff;opacity:0.75;mix-blend-mode:soft-light"/></g><path d="M164.72,192.9c-.09,13.07-9.37,23.58-20.72,23.47s-20.49-10.79-20.4-23.86S133,168.93,144.33,169,164.82,179.82,164.72,192.9Z" style="mix-blend-mode:soft-light;fill:url(#radial-gradient)"/><ellipse cx="118.82" cy="203.78" rx="20.56" ry="23.67" style="mix-blend-mode:soft-light;fill:url(#radial-gradient-2)"/><ellipse cx="122.61" cy="205.45" rx="20.56" ry="23.67" style="mix-blend-mode:soft-light;fill:url(#radial-gradient-3)"/><path d="M166.22,175.27c5,6-8.71,11.08-30.6,11.42s-43.68-4.21-48.68-10.17,8.71-11.08,30.6-11.42S161.22,169.31,166.22,175.27Z" style="mix-blend-mode:hard-light;fill:url(#radial-gradient-4)"/><path d="M163.19,212.57c5,6-8.71,11.07-30.6,11.42s-43.68-4.22-48.68-10.18,8.71-11.07,30.6-11.41S158.19,206.61,163.19,212.57Z" style="mix-blend-mode:hard-light;fill:url(#radial-gradient-5)"/><path d="M185,223.18c5,6-8.71,11.07-30.6,11.42s-43.68-4.22-48.68-10.18,8.7-11.07,30.6-11.41S180,217.22,185,223.18Z" style="mix-blend-mode:hard-light;fill:url(#radial-gradient-6)"/><path d="M172.42,214.6c5,6-8.71,11.07-30.6,11.42s-43.68-4.22-48.68-10.18,8.7-11.07,30.6-11.41S167.42,208.64,172.42,214.6Z" style="mix-blend-mode:hard-light;fill:url(#radial-gradient-7)"/><g style="mix-blend-mode:hard-light"><path d="M610.67,195.33c8,8,7,22.72,0,29.21" style="fill:none;stroke:#eaeaea;stroke-linecap:round;stroke-linejoin:round;stroke-width:2.808309342922893px"/><path d="M618.68,189.05c11.39,11.45,10,32.49,0,41.77" style="fill:none;stroke:#eaeaea;stroke-linecap:round;stroke-linejoin:round;stroke-width:2.808309342922893px"/><path d="M627.89,183.64c14.35,14.42,12.53,40.9,0,52.59" style="fill:none;stroke:#eaeaea;stroke-linecap:round;stroke-linejoin:round;stroke-width:2.808309342922893px"/></g><ellipse cx="583.33" cy="362.16" rx="30.03" ry="28.02" style="fill:#e62c30"/><ellipse cx="620.03" cy="361.68" rx="30.41" ry="27.54" style="fill:#f5991d;stroke:#ef8300;stroke-miterlimit:10;stroke-width:0.47473459420095054px;opacity:0.75"/><g id="Слой_1-2" data-name="Слой 1"><rect x="77.94" y="57.24" width="51.02" height="49.98" rx="16.65" style="fill:#fff;stroke:#e6dadb;stroke-miterlimit:10;stroke-width:3.2777867373074363px"/><path d="M85.29,94.26c0,.27.27.53.82.8a11.8,11.8,0,0,0,1.37.54h1.36a1.65,1.65,0,0,0,1.09-.27,4.06,4.06,0,0,0,1.1-.8c.54-.54.54-1.07.82-1.07s.27.53.82,1.33c.27.27.54.81,1.09.81h2.73c.27,0,.55-.27.82-.54l.55-.53c0-.27.27-.27.27-.54s0-.27.27-.53v-.81c0-.26-.27-.26-.54-.8s-.55-.8-.55-1.07v-.53c.27-.27.82,0,1.37,0a1.42,1.42,0,0,0,1.09-.54.9.9,0,0,0,.27-.53v-.8c-.27.26-.54.26-1.09.53a3.72,3.72,0,0,1-1.37.27s1.1-.27,1.37-1.07v-.8c0-.8-.27-1.07,0-1.34,0-.53.55-.53.55-.8a1.6,1.6,0,0,1,1.91,0,10.85,10.85,0,0,0,3.55.53,1.79,1.79,0,0,1,1.37.54,1.48,1.48,0,0,1,.82,1.34c.27.53.27.8.54,1.06a2.72,2.72,0,0,0,.27.81v2.4a3.28,3.28,0,0,0,.28,1.61c.27.8.27,1.07.54,1.33s.28.81.82,1.07a5.75,5.75,0,0,0,1.37.8,2.26,2.26,0,0,0,1.91.27c.28,0,.55,0,.55-.27l.82-.26.82-.8c.54-.54.54-.54.54-.81V94c0-.53-.27-.8-.54-.8,0-.27-.28-.54-.28-.8a2.4,2.4,0,0,1-.27-1.34c-.27-.8-.27-1.07,0-1.07h1.91a2.16,2.16,0,0,0,1.1-.53c.27-.27.54-.27.54-.54v-.53c0-.27,0-.8-.27-.8s-.55.26-.82.8c-.27.26-.82.26-1.09.53.54-.27,1.09-.53,1.09-1.07s0-.8-.27-1.07c-1.37-2.94,1.09-9.62,1.09-10.15a2.3,2.3,0,0,0,1.91.8c1.64,0,3.28-2.14,3.83-5.35a12.28,12.28,0,0,0-3.83-5.35A5.65,5.65,0,0,0,117,65.39a5.73,5.73,0,0,0-2.46.53,6.13,6.13,0,0,0-1.91,1.87,3,3,0,0,1-.82,1.61l-1.09,1.07a33.4,33.4,0,0,1-4.37,2.67c-1.92.8-2.46,1.07-3,1.07a5.4,5.4,0,0,1-1.91.27,9.14,9.14,0,0,1-2.73,0c-1.1,0-1.37-.27-2.19-.27H95.4a7.28,7.28,0,0,0-4.92,1.6c-1.37,1.34-1.64,3.21-1.91,3.75a9.93,9.93,0,0,0,0,2.94,22.49,22.49,0,0,0,.54,2.67c.55,1.87.55,1.87.82,2.67a9.21,9.21,0,0,1,.55,3.21,2.72,2.72,0,0,1-.27,1.07,2.49,2.49,0,0,1-.82,1.34A1.81,1.81,0,0,1,88,94H86.93a1,1,0,0,0-.55-.27h-.27C85.56,93.46,85.29,93.72,85.29,94.26Z" style="fill:#eb6222"/><path d="M92.67,83.3c.27,0-.55-1.34,0-2.67A2.11,2.11,0,0,1,94,79c.27-.27.82-.53,2.46-.53a6.66,6.66,0,0,1,3.55.8c1.64.8,2.19,1.6,4.1,3.74A25.88,25.88,0,0,0,108,86.51c-1.09-1.61-1.91-2.94-2.45-3.75-.28-.53-1.1-1.87-2.19-3.47A4.45,4.45,0,0,0,102,77.68a5.1,5.1,0,0,0-3.55-1.6,17.17,17.17,0,0,0-4.1.8c-1.63.8-2.18,1.87-2.18,2.14a3.38,3.38,0,0,0-.27,1.61A6,6,0,0,0,92.67,83.3Z" style="fill:#fff"/><path d="M97.31,83.57c-.27,0-.55.26-1.09.8" style="fill:#fff"/><path d="M96.22,84.37c-.28.26-.55.8-.82,1.07l-.28.53A6,6,0,0,0,94.85,87V90l.27.8a2,2,0,0,0,.55,1.07c0,.27.82,1.07.82,1.07a14.07,14.07,0,0,1-.82-4.81,5.94,5.94,0,0,1,.27-1.87,3.6,3.6,0,0,1,.82-1.34,2.09,2.09,0,0,1,.82-.8,2.34,2.34,0,0,1,1.64-.53h1.37C100,83.57,99.5,83,99,83a3.19,3.19,0,0,0-1.91.54" style="fill:#fff"/><path d="M113.16,88.38v1.87c0,.27,0,.27.27,1.07.27,1.07.27,1.07.54,1.33l.55.54c0,.27-.27.53-.55.8a2.29,2.29,0,0,1-1.63.54H111a2.78,2.78,0,0,0,1.37-1.07,10.86,10.86,0,0,0,.54-2.68A14,14,0,0,1,113.16,88.38Z" style="fill:#fff"/><path d="M105,75.28a13.71,13.71,0,0,0,1.91,4.28A11.13,11.13,0,0,0,111,83a13.2,13.2,0,0,0,1.37.54,14.75,14.75,0,0,0,2.45.53A8.14,8.14,0,0,1,112.61,83l-1.37-.8A12,12,0,0,1,107.69,79a15.51,15.51,0,0,1-2.18-4.28c0-.26-.28-.26-.55,0A.37.37,0,0,0,105,75.28Z" style="fill:#fff"/><path d="M109.06,75.28a19.58,19.58,0,0,0,2.73,3.47l1.64.81c1.09,0,1.64.26,2.18.26-.27-.26-.82-.26-1.36-.8-1.37-.8-2.73-1.34-3.83-2.94a8.71,8.71,0,0,1-1.64-3.21h-.54A10.81,10.81,0,0,0,109.06,75.28Z" style="fill:#fff"/><path d="M111.79,71.27a4.93,4.93,0,0,1,.55,1.87A5.06,5.06,0,0,0,114,75a4.19,4.19,0,0,0,1.64.8,3,3,0,0,0,1.37.27c-.27-.27-.55-.27-1.09-.53s-.82-.54-1.1-.54a3.88,3.88,0,0,1-1.63-1.87,4.13,4.13,0,0,1-1.1-1.6.26.26,0,0,0-.27-.27h-.27C111.52,71,111.52,71.27,111.79,71.27Z" style="fill:#fff"/><ellipse cx="103.59" cy="76.08" rx="0.27" ry="0.53" style="fill:#fff"/><ellipse cx="111.79" cy="79.82" rx="0.27" ry="0.53" style="fill:#fff"/><ellipse cx="104.41" cy="78.49" rx="0.27" ry="0.53" style="fill:#fff"/><ellipse cx="105.78" cy="80.89" rx="0.27" ry="0.53" style="fill:#fff"/><ellipse cx="107.42" cy="82.76" rx="0.27" ry="0.53" style="fill:#faf8f7"/><ellipse cx="109.6" cy="84.37" rx="0.27" ry="0.53" style="fill:#fff"/><ellipse cx="112.06" cy="85.44" rx="0.27" ry="0.53" style="fill:#fff"/><ellipse cx="114.52" cy="85.97" rx="0.27" ry="0.53" style="fill:#fff"/><ellipse cx="115.07" cy="81.96" rx="0.27" ry="0.53" style="fill:#fff"/><ellipse cx="112.34" cy="81.16" rx="0.27" ry="0.53" style="fill:#fff"/><ellipse cx="108.51" cy="77.15" rx="0.27" ry="0.53" style="fill:#fff"/><ellipse cx="107.42" cy="74.74" rx="0.27" ry="0.53" style="fill:#fff"/><ellipse cx="110.42" cy="72.61" rx="0.27" ry="0.53" style="fill:#fff"/><ellipse cx="111.79" cy="74.74" rx="0.27" ry="0.53" style="fill:#fff"/><ellipse cx="113.7" cy="76.62" rx="0.27" ry="0.53" style="fill:#fff"/><ellipse cx="115.89" cy="77.95" rx="0.27" ry="0.53" style="fill:#fff"/><ellipse cx="114.25" cy="72.34" rx="0.27" ry="0.53" style="fill:#fff"/><ellipse cx="115.61" cy="73.94" rx="0.27" ry="0.53" style="fill:#fff"/><ellipse cx="117.53" cy="74.74" rx="0.27" ry="0.53" style="fill:#fff"/><ellipse cx="119.44" cy="74.21" rx="0.27" ry="0.53" style="fill:#fff"/><ellipse cx="120.8" cy="72.87" rx="0.27" ry="0.53" style="fill:#fff"/><ellipse cx="115.07" cy="70.47" rx="0.27" ry="0.53" style="fill:#fff"/><ellipse cx="113.43" cy="70.47" rx="0.27" ry="0.53" style="fill:#fff"/><ellipse cx="113.43" cy="68.6" rx="0.27" ry="0.53" style="fill:#fff"/><ellipse cx="114.25" cy="66.99" rx="0.27" ry="0.27" style="fill:#fff"/><ellipse cx="115.61" cy="66.46" rx="0.27" ry="0.27" style="fill:#fff"/><ellipse cx="121.35" cy="69.93" rx="0.27" ry="0.27" style="fill:#fff"/><ellipse cx="122.72" cy="72.07" rx="0.27" ry="0.27" style="fill:#fff"/><ellipse cx="122.17" cy="72.87" rx="0.27" ry="0.27" style="fill:#fff"/><ellipse cx="121.9" cy="73.94" rx="0.27" ry="0.27" style="fill:#fff"/><ellipse cx="121.08" cy="74.74" rx="0.27" ry="0.27" style="fill:#fff"/><ellipse cx="120.53" cy="75.81" rx="0.27" ry="0.27" style="fill:#fff"/><ellipse cx="119.71" cy="76.62" rx="0.27" ry="0.27" style="fill:#fff"/><ellipse cx="121.62" cy="71.27" rx="0.27" ry="0.27" style="fill:#fff"/><ellipse cx="118.35" cy="69.93" rx="1.91" ry="1.87" style="fill:#fff"/><ellipse cx="118.89" cy="70.2" rx="1.09" ry="1.07" style="fill:#ec662c"/></g><g style="mix-blend-mode:soft-light"><path d="M652.62,31.4c13.47,0,24.44,11.23,24.44,25l0,328.75c0,13.8-11,25-24.44,25l-576.3.06c-13.48,0-24.44-11.22-24.45-25l0-328.74c0-13.81,11-25,24.44-25l576.3-.06h0m0-2.82h0l-576.3.06c-15.06,0-27.27,12.47-27.26,27.86l0,328.74c0,15.38,12.21,27.84,27.27,27.84h0l576.3-.06c15.06,0,27.26-12.47,27.26-27.86l0-328.74c0-15.38-12.2-27.84-27.26-27.84Z" style="fill:url(#linear-gradient-4)"/></g><g style="opacity:0.66"><path d="M651.82,410.46l-422.07.64L548.68,27.19,651.34,26c15.29,0,27.71,12.63,27.73,28.26l.41,327.86C679.5,397.76,667.11,410.44,651.82,410.46Z" style="mix-blend-mode:soft-light;fill:url(#radial-gradient-8)"/><path d="M651.82,410.46l-422.07.64L548.68,27.19,651.34,26c15.29,0,27.71,12.63,27.73,28.26l.41,327.86C679.5,397.76,667.11,410.44,651.82,410.46Z" style="mix-blend-mode:soft-light;fill:url(#radial-gradient-8)"/></g><rect x="49.06" y="28.61" width="630.42" height="382.49" rx="29.46" style="opacity:0.55;fill:url(#Безымянный_градиент_10)"/></g><g id="Text"><path d="M85.83,372.11l.51,1.16-2.79.92,1.69,2.2-1,.75-1.77-2.32-1.66,2.32-1.15-.75,1.66-2.2-2.71-.92.46-1.16,2.71,1v-2.74h1.36v2.74Z" style="fill:#fff"/><path d="M94.83,372.11l.52,1.16-2.79.92,1.69,2.2-1,.75-1.77-2.32-1.66,2.32-1.15-.75,1.66-2.2-2.71-.92.46-1.16,2.71,1v-2.74H92.1v2.74Z" style="fill:#fff"/><path d="M103.84,372.11l.52,1.16-2.79.92,1.68,2.2-1,.75-1.77-2.32-1.66,2.32-1.16-.75,1.67-2.2-2.71-.92.46-1.16,2.71,1v-2.74h1.35v2.74Z" style="fill:#fff"/><path d="M112.85,372.11l.51,1.16-2.79.92,1.69,2.2-1.05.75-1.76-2.32-1.67,2.32-1.15-.75,1.67-2.2-2.72-.92.46-1.16,2.72,1v-2.74h1.35v2.74Z" style="fill:#fff"/><path d="M121.86,372.11l.51,1.16-2.79.92,1.69,2.2-1,.75-1.76-2.32-1.67,2.32-1.15-.75,1.66-2.2-2.71-.92.46-1.16,2.72,1v-2.74h1.35v2.74Z" style="fill:#fff"/><path d="M127.69,372.57l-1,4.93,0,.05a3.53,3.53,0,0,1,1.53-.93,6,6,0,0,1,1.85-.3,7.16,7.16,0,0,1,2.28.36,5.09,5.09,0,0,1,1.87,1.1,5.36,5.36,0,0,1,1.25,1.84,6.6,6.6,0,0,1,.46,2.58,6,6,0,0,1-.39,2.12,5.46,5.46,0,0,1-1.19,1.82,5.54,5.54,0,0,1-2,1.27,7.37,7.37,0,0,1-2.77.48,7.27,7.27,0,0,1-2.22-.33,5.69,5.69,0,0,1-1.83-.95,4.33,4.33,0,0,1-1.25-1.53,4.83,4.83,0,0,1-.49-2.08h2.18a3.22,3.22,0,0,0,.34,1.22,3.18,3.18,0,0,0,.8,1,3.5,3.5,0,0,0,1.17.65,4.5,4.5,0,0,0,1.5.23,4.28,4.28,0,0,0,1.47-.25,3.39,3.39,0,0,0,1.23-.76,3.55,3.55,0,0,0,.83-1.27,4.64,4.64,0,0,0,.31-1.78,3.94,3.94,0,0,0-.3-1.56,3.39,3.39,0,0,0-.83-1.23,3.9,3.9,0,0,0-1.29-.82,4.7,4.7,0,0,0-1.68-.29,3.92,3.92,0,0,0-1.9.45,5.2,5.2,0,0,0-1.47,1.17l-1.87-.09,1.69-8.91H135v1.82Z" style="fill:#fff"/><path d="M141.72,385.42a3.77,3.77,0,0,0,2.25.67,3.29,3.29,0,0,0,3-1.63,10.52,10.52,0,0,0,1.1-5l0,0a4.55,4.55,0,0,1-1.75,1.73,5,5,0,0,1-2.45.64,6.54,6.54,0,0,1-2.46-.43,4.93,4.93,0,0,1-1.8-1.17,4.69,4.69,0,0,1-1.1-1.81,7,7,0,0,1-.37-2.33,5.76,5.76,0,0,1,.43-2.26,5.22,5.22,0,0,1,1.23-1.77,5.81,5.81,0,0,1,1.89-1.15,7,7,0,0,1,2.41-.41,7.54,7.54,0,0,1,2.4.38,4.64,4.64,0,0,1,2,1.29,6.5,6.5,0,0,1,1.35,2.51,13.72,13.72,0,0,1,.5,4,12.89,12.89,0,0,1-1.5,6.83,5.25,5.25,0,0,1-4.8,2.39,6.36,6.36,0,0,1-3.79-1.09,4.38,4.38,0,0,1-1.71-3.32h2.17A2.61,2.61,0,0,0,141.72,385.42Zm5.72-10.72a3.62,3.62,0,0,0-.72-1.25,3.35,3.35,0,0,0-1.16-.86,3.85,3.85,0,0,0-1.61-.31,3.6,3.6,0,0,0-1.65.34,3.09,3.09,0,0,0-1.11.9,3.8,3.8,0,0,0-.61,1.3,5.81,5.81,0,0,0-.19,1.52,3.55,3.55,0,0,0,.27,1.36,3.82,3.82,0,0,0,.74,1.16,3.54,3.54,0,0,0,1.13.81,3.37,3.37,0,0,0,1.44.3,3.85,3.85,0,0,0,1.54-.3,3.55,3.55,0,0,0,1.92-2,4.12,4.12,0,0,0,.25-1.44A4.62,4.62,0,0,0,147.44,374.7Z" style="fill:#fff"/><path d="M157.25,377.84H158a4.78,4.78,0,0,0,1.32-.18,3.51,3.51,0,0,0,1.1-.53,2.57,2.57,0,0,0,1-2.09,2.41,2.41,0,0,0-.93-2.07,3.72,3.72,0,0,0-2.3-.69,3.58,3.58,0,0,0-1.52.3,3,3,0,0,0-1.08.81,3.3,3.3,0,0,0-.62,1.19,4.74,4.74,0,0,0-.21,1.42H152.6a7.26,7.26,0,0,1,.42-2.25,5.12,5.12,0,0,1,1.06-1.74,4.92,4.92,0,0,1,1.73-1.14,6.54,6.54,0,0,1,2.39-.41,8.41,8.41,0,0,1,2.19.28,5.27,5.27,0,0,1,1.75.84,3.78,3.78,0,0,1,1.17,1.42,4.7,4.7,0,0,1,.42,2.06,3.21,3.21,0,0,1-.72,2.06,4.53,4.53,0,0,1-1.79,1.35v0a3.83,3.83,0,0,1,2.47,1.48,4.5,4.5,0,0,1,.81,2.68,4.92,4.92,0,0,1-.5,2.26,4.69,4.69,0,0,1-1.35,1.64,5.92,5.92,0,0,1-2,1,8.63,8.63,0,0,1-2.42.33,8.27,8.27,0,0,1-2.51-.37,5.16,5.16,0,0,1-1.92-1.08,4.74,4.74,0,0,1-1.21-1.75,6.08,6.08,0,0,1-.4-2.37h2.18a4,4,0,0,0,1,2.72,3.69,3.69,0,0,0,2.84,1,4.72,4.72,0,0,0,1.51-.23,4,4,0,0,0,1.26-.65,3.19,3.19,0,0,0,.85-1,2.88,2.88,0,0,0,.32-1.39,3.25,3.25,0,0,0-.3-1.42,3.35,3.35,0,0,0-.82-1,3.45,3.45,0,0,0-1.22-.63,5.7,5.7,0,0,0-1.52-.2,10.91,10.91,0,0,0-1.31.07v-1.74A1,1,0,0,0,157.25,377.84Z" style="fill:#fff"/><path d="M172.61,387.62V375.33H167.9v-1.65a11.6,11.6,0,0,0,1.79-.13,5.22,5.22,0,0,0,1.58-.5,3.55,3.55,0,0,0,1.19-1,3.7,3.7,0,0,0,.66-1.6h1.67v17.16Z" style="fill:#fff"/></g></g></g></svg>