<?xml version="1.0" encoding="utf-8"?>
<!-- Generator: Adobe Illustrator 24.0.1, SVG Export Plug-In . SVG Version: 6.00 Build 0)  -->
<svg version="1.1" id="Card_layer" xmlns="http://www.w3.org/2000/svg" xmlns:xlink="http://www.w3.org/1999/xlink" x="0px" y="0px"
	 viewBox="0 0 748.2 436" style="enable-background:new 0 0 748.2 436;" xml:space="preserve">
<style type="text/css">
	.st0{fill:#EB602C;}
	.st1{display:none;}
	.st2{display:inline;fill:none;stroke:#FCFCFC;stroke-width:10.4978;stroke-miterlimit:10;}
	.st3{opacity:0.25;fill:url(#SVGID_1_);enable-background:new    ;}
	.st4{fill:url(#SVGID_2_);}
	.st5{fill:none;stroke:url(#SVGID_3_);stroke-width:1.1394;stroke-miterlimit:10;}
	.st6{opacity:0.2;}
	.st7{fill:none;stroke:#8D8D8D;stroke-width:1.1394;stroke-miterlimit:10;}
	.st8{fill:none;stroke:#FFFFFF;stroke-width:1.1394;stroke-miterlimit:10;}
	.st9{clip-path:url(#SVGID_5_);}
	.st10{opacity:0.5;fill:#FFFFFF;enable-background:new    ;}
	.st11{opacity:0.75;fill:#FFFFFF;enable-background:new    ;}
	.st12{fill:url(#SVGID_6_);}
	.st13{fill:url(#SVGID_7_);}
	.st14{fill:url(#SVGID_8_);}
	.st15{fill:url(#SVGID_9_);}
	.st16{fill:url(#SVGID_10_);}
	.st17{fill:url(#SVGID_11_);}
	.st18{fill:url(#SVGID_12_);}
	.st19{fill:none;stroke:#EAEAEA;stroke-width:2.8083;stroke-linecap:round;stroke-linejoin:round;}
	.st20{fill:#E62C30;}
	.st21{opacity:0.75;fill:#F5991D;stroke:#EF8300;stroke-width:0.4747;stroke-miterlimit:10;enable-background:new    ;}
	.st22{fill:#FFFFFF;stroke:#E6DADB;stroke-width:3.2778;stroke-miterlimit:10;}
	.st23{fill:#EB6222;}
	.st24{fill:#FFFFFF;}
	.st25{fill:#FAF8F7;}
	.st26{fill:#EC662C;}
	.st27{fill:url(#SVGID_13_);}
	.st28{opacity:0.66;}
	.st29{fill:url(#SVGID_14_);}
	.st30{fill:url(#SVGID_15_);}
	.st31{opacity:0.55;fill:url(#SVGID_16_);enable-background:new    ;}
	.st32{fill:#F9F9F9;stroke:#D8E0DF;stroke-width:5.053;stroke-miterlimit:10;}
	.st33{stroke:#FF2D20;stroke-width:5.5265;stroke-miterlimit:10;}
	.st34{fill:none;stroke:#FF2D20;stroke-width:3.6844;stroke-miterlimit:10;}
	.st35{fill:#FF2D20;}
</style>
<g id="CARD">
	<g id="Слой_1_1_">
		<g id="Bank_of_Georgia">
			<path class="st0" d="M79.1,28.6h572c15.8,0,28.6,12.8,28.6,28.6c0,0,0,0,0,0v325.3c0,15.8-12.8,28.6-28.6,28.6h-572
				c-15.8,0-28.6-12.8-28.6-28.6V57.2C50.5,41.4,63.3,28.6,79.1,28.6C79.1,28.6,79.1,28.6,79.1,28.6z"/>
			<g id="credo" class="st1">
				<path class="st2" d="M567.5,411.4c-2.8-9.5-7.5-19.6-15.2-29.7c-32.5-43.1-102.2-66.2-124.3-51.8c-12.7,8.3-6.5,27.1-22.1,31.2
					c-12.9,3.4-24.5-7.5-38.5-3.2c-2.5,0.8-10.3,3.6-16.5,17.5c-5.1,11.3-7.3,22.1-7.8,32.3C375.1,408,535.9,407.3,567.5,411.4"/>
				<path class="st2" d="M324,407.4c-0.3-14.6,2.4-31.2,11.1-47.8c11.4-21.6,28.8-34.7,39.9-41.6c7.5,8.6,15,17.3,22.5,25.9
					c5.9-18.2,11.8-36.4,17.7-54.6c-25-7.3-50-14.6-75-21.9c6.4,10,12.8,20.1,19.2,30.2c-11.6,6.5-28.4,17.8-42.4,35.9
					c-7,9-26,36.1-26.3,73.8C301.9,407.3,313,407.3,324,407.4z"/>
				<path class="st2" d="M598.9,414c5.7,0.5,11.4,1,17.2,1.1c2.4,0,11.4-0.9,13.3-1.3c-4.4-19.5-15.8-51.3-47.9-80.5
					c-55.4-50.4-128.2-52.6-139.2-52.8c-2.4,7.6-4.8,15.3-7.2,22.9c9,0,79.5,1.2,127.8,48.2C586.9,374.9,595.5,399.9,598.9,414z"/>
			</g>
			
				<linearGradient id="SVGID_1_" gradientUnits="userSpaceOnUse" x1="11.2167" y1="351.0966" x2="77.8267" y2="351.3065" gradientTransform="matrix(1 8.028428e-03 8.028428e-03 -1 82.721 556.3542)">
				<stop  offset="0" style="stop-color:#2B2B2B"/>
				<stop  offset="1" style="stop-color:#636363"/>
			</linearGradient>
			<path class="st3" d="M155,234.3l-46.7-0.4c-4.4,0-7.9-4.2-7.9-9.2l0.3-38.8c0-5.1,3.6-9.1,8-9.1l46.7,0.4c4.4,0,7.9,4.2,7.9,9.2
				l-0.3,38.8C163,230.3,159.4,234.4,155,234.3z"/>
			
				<linearGradient id="SVGID_2_" gradientUnits="userSpaceOnUse" x1="10.2367" y1="352.7037" x2="76.8567" y2="352.9137" gradientTransform="matrix(1 8.028428e-03 8.028428e-03 -1 82.721 556.3542)">
				<stop  offset="0" style="stop-color:#CFCFCF"/>
				<stop  offset="1" style="stop-color:#9E9E9E"/>
			</linearGradient>
			<path class="st4" d="M154,232.7l-46.7-0.4c-4.4,0-7.9-4.2-7.9-9.2l0.3-38.8c0-5.1,3.6-9.1,8-9.1l46.7,0.4c4.4,0,7.9,4.2,7.9,9.2
				l-0.3,38.8C162,228.7,158.4,232.7,154,232.7z"/>
			
				<linearGradient id="SVGID_3_" gradientUnits="userSpaceOnUse" x1="13.3524" y1="352.7141" x2="77.1936" y2="352.9141" gradientTransform="matrix(1 8.028428e-03 8.028428e-03 -1 82.721 556.3542)">
				<stop  offset="0" style="stop-color:#FFFFFF"/>
				<stop  offset="0.59" style="stop-color:#9E9E9E"/>
			</linearGradient>
			<path class="st5" d="M154,232.7l-46.7-0.4c-4.4,0-7.9-4.2-7.9-9.2l0.3-38.8c0-5.1,3.6-9.1,8-9.1l46.7,0.4c4.4,0,7.9,4.2,7.9,9.2
				l-0.3,38.8C162,228.7,158.4,232.7,154,232.7z"/>
			<g class="st6">
				<polygon class="st7" points="140.7,214.6 118.8,214.4 118.9,191.8 140.9,192 				"/>
				<polygon class="st7" points="151,183.4 129.9,183.2 129.9,191.9 150.9,192.1 				"/>
				<polygon class="st7" points="129.9,183.2 108.9,183.1 108.8,191.7 129.9,191.9 				"/>
				<polygon class="st7" points="150.8,214.7 129.7,214.5 129.7,223.1 150.7,223.3 				"/>
				<polygon class="st7" points="129.7,214.5 108.7,214.3 108.6,222.9 129.7,223.1 				"/>
				<line class="st7" x1="150.9" y1="192.1" x2="161.7" y2="192.1"/>
				<line class="st7" x1="150.8" y1="214.7" x2="161.5" y2="214.8"/>
				<line class="st7" x1="98.6" y1="191.6" x2="109.3" y2="191.7"/>
				<line class="st7" x1="98.4" y1="214.2" x2="109.2" y2="214.3"/>
				<line class="st7" x1="98.5" y1="202.9" x2="118.8" y2="203.1"/>
				<line class="st7" x1="140.8" y1="203.3" x2="161.6" y2="203.5"/>
				<line class="st7" x1="108.6" y1="222.9" x2="108.6" y2="231.1"/>
				<line class="st7" x1="129.7" y1="223.1" x2="129.6" y2="231.3"/>
				<line class="st7" x1="150.7" y1="223.3" x2="150.6" y2="231.5"/>
				<line class="st7" x1="119.1" y1="223" x2="119.1" y2="231.6"/>
				<line class="st7" x1="140.6" y1="223.2" x2="140.6" y2="231.8"/>
				<line class="st7" x1="109" y1="174.8" x2="108.9" y2="183.1"/>
				<line class="st7" x1="130" y1="175" x2="129.9" y2="183.2"/>
				<line class="st7" x1="151" y1="175.2" x2="151" y2="183.4"/>
				<line class="st7" x1="119.5" y1="174.9" x2="119.4" y2="183.6"/>
				<line class="st7" x1="141" y1="175.1" x2="140.9" y2="183.8"/>
			</g>
			<polygon class="st8" points="141.3,215.3 119.4,215.1 119.5,192.5 141.5,192.7 			"/>
			<polygon class="st8" points="151.6,184.2 130.6,184 130.5,192.6 151.6,192.8 			"/>
			<polygon class="st8" points="130.6,184 109.5,183.8 109.5,192.4 130.5,192.6 			"/>
			<polygon class="st8" points="151.4,215.4 130.4,215.2 130.3,223.8 151.3,224 			"/>
			<polygon class="st8" points="130.4,215.2 109.3,215 109.2,223.6 130.3,223.8 			"/>
			<line class="st8" x1="151.6" y1="192.8" x2="162.3" y2="192.9"/>
			<line class="st8" x1="151.4" y1="215.4" x2="162.1" y2="215.5"/>
			<line class="st8" x1="99.2" y1="192.3" x2="109.9" y2="192.4"/>
			<line class="st8" x1="99" y1="214.9" x2="109.8" y2="215"/>
			<line class="st8" x1="99.1" y1="203.6" x2="119.5" y2="203.8"/>
			<line class="st8" x1="141.4" y1="204" x2="162.2" y2="204.2"/>
			<line class="st8" x1="109.2" y1="223.6" x2="109.2" y2="231.9"/>
			<line class="st8" x1="130.3" y1="223.8" x2="130.2" y2="232.1"/>
			<line class="st8" x1="151.3" y1="224" x2="151.3" y2="232.2"/>
			<line class="st8" x1="119.8" y1="223.7" x2="119.7" y2="232.4"/>
			<line class="st8" x1="141.3" y1="223.9" x2="141.2" y2="232.6"/>
			<line class="st8" x1="109.6" y1="175.5" x2="109.5" y2="183.8"/>
			<line class="st8" x1="130.6" y1="175.7" x2="130.6" y2="184"/>
			<line class="st8" x1="151.7" y1="175.9" x2="151.6" y2="184.2"/>
			<line class="st8" x1="120.1" y1="175.6" x2="120.1" y2="184.3"/>
			<line class="st8" x1="141.6" y1="175.8" x2="141.5" y2="184.5"/>
			<polygon class="st8" points="141.3,215.7 119.4,215.5 119.5,192.9 141.5,193.1 			"/>
			<polygon class="st8" points="151.6,184.6 130.6,184.4 130.5,193 151.6,193.2 			"/>
			<polygon class="st8" points="130.6,184.4 109.5,184.2 109.5,192.8 130.5,193 			"/>
			<polygon class="st8" points="151.4,215.8 130.4,215.6 130.3,224.2 151.3,224.4 			"/>
			<polygon class="st8" points="130.4,215.6 109.3,215.4 109.2,224 130.3,224.2 			"/>
			<line class="st8" x1="151.6" y1="193.2" x2="162.3" y2="193.3"/>
			<line class="st8" x1="151.4" y1="215.8" x2="162.1" y2="215.9"/>
			<line class="st8" x1="99.2" y1="192.7" x2="109.9" y2="192.8"/>
			<line class="st8" x1="99" y1="215.3" x2="109.8" y2="215.4"/>
			<line class="st8" x1="99.1" y1="204" x2="119.5" y2="204.2"/>
			<line class="st8" x1="141.4" y1="204.4" x2="162.2" y2="204.6"/>
			<line class="st8" x1="109.2" y1="224" x2="109.2" y2="232.3"/>
			<line class="st8" x1="130.3" y1="224.2" x2="130.2" y2="232.5"/>
			<line class="st8" x1="151.3" y1="224.4" x2="151.3" y2="232.6"/>
			<line class="st8" x1="119.8" y1="224.1" x2="119.7" y2="232.8"/>
			<line class="st8" x1="141.3" y1="224.3" x2="141.2" y2="233"/>
			<line class="st8" x1="109.6" y1="175.9" x2="109.5" y2="184.2"/>
			<line class="st8" x1="130.6" y1="176.1" x2="130.6" y2="184.4"/>
			<line class="st8" x1="151.7" y1="176.3" x2="151.6" y2="184.6"/>
			<line class="st8" x1="120.1" y1="176" x2="120.1" y2="184.7"/>
			<line class="st8" x1="141.6" y1="176.2" x2="141.5" y2="184.9"/>
			<g>
				<defs>
					<path id="SVGID_4_" d="M154,232.7l-46.7-0.4c-4.4,0-7.9-4.2-7.9-9.2l0.3-38.8c0-5.1,3.6-9.1,8-9.1l46.7,0.4
						c4.4,0,7.9,4.2,7.9,9.2l-0.3,38.8C162,228.7,158.4,232.7,154,232.7z"/>
				</defs>
				<clipPath id="SVGID_5_">
					<use xlink:href="#SVGID_4_"  style="overflow:visible;"/>
				</clipPath>
				<g class="st9">
					<polygon class="st10" points="145.5,232.6 132,232.5 104.1,175.1 117.6,175.2 					"/>
					<polygon class="st10" points="119.2,232.4 105.7,232.2 77.8,174.9 91.3,175 					"/>
					<polygon class="st11" points="164.4,232.8 139.7,232.6 111.8,175.2 136.4,175.4 					"/>
					<polygon class="st11" points="204.3,233.2 179.6,232.9 151.7,175.5 176.3,175.8 					"/>
				</g>
			</g>
			
				<radialGradient id="SVGID_6_" cx="-116.8045" cy="112.855" r="19.36" gradientTransform="matrix(1.06 1.000000e-02 1.000000e-02 -1.22 266.65 330.77)" gradientUnits="userSpaceOnUse">
				<stop  offset="0" style="stop-color:#FFFFFF"/>
				<stop  offset="1" style="stop-color:#FFFFFF;stop-opacity:0"/>
			</radialGradient>
			<path class="st12" d="M164.7,192.9c-0.1,13.1-9.4,23.6-20.7,23.5s-20.5-10.8-20.4-23.9s9.4-23.6,20.7-23.5
				S164.8,179.8,164.7,192.9z"/>
			
				<radialGradient id="SVGID_7_" cx="-146.71" cy="125.85" r="19.36" gradientTransform="matrix(1 0 0 -1 0 436)" gradientUnits="userSpaceOnUse">
				<stop  offset="0" style="stop-color:#FFFFFF"/>
				<stop  offset="1" style="stop-color:#FFFFFF;stop-opacity:0"/>
			</radialGradient>
			<ellipse class="st13" cx="118.8" cy="203.8" rx="20.6" ry="23.7"/>
			
				<radialGradient id="SVGID_8_" cx="-143.13" cy="124.52" r="19.36" gradientTransform="matrix(1 0 0 -1 0 436)" gradientUnits="userSpaceOnUse">
				<stop  offset="0" style="stop-color:#FFFFFF"/>
				<stop  offset="1" style="stop-color:#FFFFFF;stop-opacity:0"/>
			</radialGradient>
			<ellipse class="st14" cx="122.6" cy="205.4" rx="20.6" ry="23.7"/>
			
				<radialGradient id="SVGID_9_" cx="147.9008" cy="6.557" r="17.43" gradientTransform="matrix(2.27 -4.000000e-02 -0.43 -0.51 -205.91 183.89)" gradientUnits="userSpaceOnUse">
				<stop  offset="0" style="stop-color:#FFFFFF"/>
				<stop  offset="4.000000e-02" style="stop-color:#FFFFFF;stop-opacity:0.87"/>
				<stop  offset="0.1" style="stop-color:#FFFFFF;stop-opacity:0.69"/>
				<stop  offset="0.17" style="stop-color:#FFFFFF;stop-opacity:0.52"/>
				<stop  offset="0.24" style="stop-color:#FFFFFF;stop-opacity:0.38"/>
				<stop  offset="0.31" style="stop-color:#FFFFFF;stop-opacity:0.26"/>
				<stop  offset="0.39" style="stop-color:#FFFFFF;stop-opacity:0.17"/>
				<stop  offset="0.49" style="stop-color:#FFFFFF;stop-opacity:9.000000e-02"/>
				<stop  offset="0.59" style="stop-color:#FFFFFF;stop-opacity:4.000000e-02"/>
				<stop  offset="0.73" style="stop-color:#FFFFFF;stop-opacity:1.000000e-02"/>
				<stop  offset="1" style="stop-color:#FFFFFF;stop-opacity:0"/>
			</radialGradient>
			<path class="st15" d="M166.2,175.3c5,6-8.7,11.1-30.6,11.4s-43.7-4.2-48.7-10.2s8.7-11.1,30.6-11.4S161.2,169.3,166.2,175.3z"/>
			
				<radialGradient id="SVGID_10_" cx="133.0308" cy="-52.803" r="17.43" gradientTransform="matrix(2.27 -4.000000e-02 -0.43 -0.51 -200.57 190.26)" gradientUnits="userSpaceOnUse">
				<stop  offset="0" style="stop-color:#FFFFFF"/>
				<stop  offset="4.000000e-02" style="stop-color:#FFFFFF;stop-opacity:0.87"/>
				<stop  offset="0.1" style="stop-color:#FFFFFF;stop-opacity:0.69"/>
				<stop  offset="0.17" style="stop-color:#FFFFFF;stop-opacity:0.52"/>
				<stop  offset="0.24" style="stop-color:#FFFFFF;stop-opacity:0.38"/>
				<stop  offset="0.31" style="stop-color:#FFFFFF;stop-opacity:0.26"/>
				<stop  offset="0.39" style="stop-color:#FFFFFF;stop-opacity:0.17"/>
				<stop  offset="0.49" style="stop-color:#FFFFFF;stop-opacity:9.000000e-02"/>
				<stop  offset="0.59" style="stop-color:#FFFFFF;stop-opacity:4.000000e-02"/>
				<stop  offset="0.73" style="stop-color:#FFFFFF;stop-opacity:1.000000e-02"/>
				<stop  offset="1" style="stop-color:#FFFFFF;stop-opacity:0"/>
			</radialGradient>
			<path class="st16" d="M163.2,212.6c5,6-8.7,11.1-30.6,11.4s-43.7-4.2-48.7-10.2s8.7-11.1,30.6-11.4S158.2,206.6,163.2,212.6z"/>
			
				<radialGradient id="SVGID_11_" cx="138.6108" cy="-70.263" r="17.43" gradientTransform="matrix(2.27 -4.000000e-02 -0.43 -0.51 -199 192.13)" gradientUnits="userSpaceOnUse">
				<stop  offset="0" style="stop-color:#FFFFFF"/>
				<stop  offset="4.000000e-02" style="stop-color:#FFFFFF;stop-opacity:0.87"/>
				<stop  offset="0.1" style="stop-color:#FFFFFF;stop-opacity:0.69"/>
				<stop  offset="0.17" style="stop-color:#FFFFFF;stop-opacity:0.52"/>
				<stop  offset="0.24" style="stop-color:#FFFFFF;stop-opacity:0.38"/>
				<stop  offset="0.31" style="stop-color:#FFFFFF;stop-opacity:0.26"/>
				<stop  offset="0.39" style="stop-color:#FFFFFF;stop-opacity:0.17"/>
				<stop  offset="0.49" style="stop-color:#FFFFFF;stop-opacity:9.000000e-02"/>
				<stop  offset="0.59" style="stop-color:#FFFFFF;stop-opacity:4.000000e-02"/>
				<stop  offset="0.73" style="stop-color:#FFFFFF;stop-opacity:1.000000e-02"/>
				<stop  offset="1" style="stop-color:#FFFFFF;stop-opacity:0"/>
			</radialGradient>
			<path class="st17" d="M185,223.2c5,6-8.7,11.1-30.6,11.4s-43.7-4.2-48.7-10.2s8.7-11.1,30.6-11.4S180,217.2,185,223.2z"/>
			
				<radialGradient id="SVGID_12_" cx="136.2908" cy="-56.273" r="17.43" gradientTransform="matrix(2.27 -4.000000e-02 -0.43 -0.51 -200.26 190.63)" gradientUnits="userSpaceOnUse">
				<stop  offset="0" style="stop-color:#FFFFFF"/>
				<stop  offset="4.000000e-02" style="stop-color:#FFFFFF;stop-opacity:0.87"/>
				<stop  offset="0.1" style="stop-color:#FFFFFF;stop-opacity:0.69"/>
				<stop  offset="0.17" style="stop-color:#FFFFFF;stop-opacity:0.52"/>
				<stop  offset="0.24" style="stop-color:#FFFFFF;stop-opacity:0.38"/>
				<stop  offset="0.31" style="stop-color:#FFFFFF;stop-opacity:0.26"/>
				<stop  offset="0.39" style="stop-color:#FFFFFF;stop-opacity:0.17"/>
				<stop  offset="0.49" style="stop-color:#FFFFFF;stop-opacity:9.000000e-02"/>
				<stop  offset="0.59" style="stop-color:#FFFFFF;stop-opacity:4.000000e-02"/>
				<stop  offset="0.73" style="stop-color:#FFFFFF;stop-opacity:1.000000e-02"/>
				<stop  offset="1" style="stop-color:#FFFFFF;stop-opacity:0"/>
			</radialGradient>
			<path class="st18" d="M172.4,214.6c5,6-8.7,11.1-30.6,11.4s-43.7-4.2-48.7-10.2s8.7-11.1,30.6-11.4S167.4,208.6,172.4,214.6z"/>
			<g>
				<path class="st19" d="M610.7,195.3c8,8,7,22.7,0,29.2"/>
				<path class="st19" d="M618.7,189.1c11.4,11.4,10,32.5,0,41.8"/>
				<path class="st19" d="M627.9,183.6c14.3,14.4,12.5,40.9,0,52.6"/>
			</g>
			<ellipse class="st20" cx="583.3" cy="362.2" rx="30" ry="28"/>
			<ellipse class="st21" cx="620" cy="361.7" rx="30.4" ry="27.5"/>
			<g id="BOG_LOGO">
				<path class="st22" d="M94.6,57.2h17.7c9.2,0,16.7,7.5,16.7,16.6v16.7c0,9.2-7.5,16.7-16.7,16.7H94.6c-9.2,0-16.7-7.5-16.7-16.7
					V73.9C77.9,64.7,85.4,57.2,94.6,57.2z"/>
				<path class="st23" d="M85.3,94.3c0,0.3,0.3,0.5,0.8,0.8c0.4,0.2,0.9,0.4,1.4,0.5h1.4c0.4,0,0.8-0.1,1.1-0.3
					c0.4-0.2,0.8-0.5,1.1-0.8c0.5-0.5,0.5-1.1,0.8-1.1s0.3,0.5,0.8,1.3c0.3,0.3,0.5,0.8,1.1,0.8h2.7c0.3,0,0.6-0.3,0.8-0.5l0.6-0.5
					c0-0.3,0.3-0.3,0.3-0.5s0-0.3,0.3-0.5v-0.8c0-0.3-0.3-0.3-0.5-0.8s-0.6-0.8-0.6-1.1v-0.5c0.3-0.3,0.8,0,1.4,0
					c0.4,0,0.8-0.2,1.1-0.5c0.1-0.1,0.2-0.3,0.3-0.5v-0.8c-0.3,0.3-0.5,0.3-1.1,0.5c-0.4,0.2-0.9,0.3-1.4,0.3c0,0,1.1-0.3,1.4-1.1
					v-0.8c0-0.8-0.3-1.1,0-1.3c0-0.5,0.6-0.5,0.6-0.8c0.6-0.4,1.3-0.4,1.9,0c1.1,0.4,2.3,0.6,3.6,0.5c0.5,0,1,0.2,1.4,0.5
					c0.5,0.3,0.8,0.8,0.8,1.3c0.3,0.5,0.3,0.8,0.5,1.1c0,0.3,0.1,0.6,0.3,0.8v2.4c0,0.6,0.1,1.1,0.3,1.6c0.3,0.8,0.3,1.1,0.5,1.3
					s0.3,0.8,0.8,1.1c0.4,0.3,0.9,0.6,1.4,0.8c0.6,0.4,1.3,0.5,1.9,0.3c0.3,0,0.6,0,0.6-0.3l0.8-0.3l0.8-0.8
					c0.5-0.5,0.5-0.5,0.5-0.8V94c0-0.5-0.3-0.8-0.5-0.8c0-0.3-0.3-0.5-0.3-0.8c-0.2-0.4-0.3-0.9-0.3-1.3c-0.3-0.8-0.3-1.1,0-1.1h1.9
					c0.4-0.1,0.8-0.3,1.1-0.5c0.3-0.3,0.5-0.3,0.5-0.5v-0.5c0-0.3,0-0.8-0.3-0.8s-0.6,0.3-0.8,0.8c-0.3,0.3-0.8,0.3-1.1,0.5
					c0.5-0.3,1.1-0.5,1.1-1.1s0-0.8-0.3-1.1c-1.4-2.9,1.1-9.6,1.1-10.2c0.5,0.6,1.2,0.9,1.9,0.8c1.6,0,3.3-2.1,3.8-5.3
					c-0.8-2.1-2.1-3.9-3.8-5.3c-0.8-0.7-1.7-1.1-2.7-1.3c-0.8,0-1.7,0.2-2.5,0.5c-0.8,0.5-1.4,1.1-1.9,1.9c-0.1,0.6-0.4,1.2-0.8,1.6
					l-1.1,1.1c-1.4,1-2.8,1.9-4.4,2.7c-1.9,0.8-2.5,1.1-3,1.1c-0.6,0.2-1.3,0.3-1.9,0.3c-0.9,0.1-1.8,0.1-2.7,0
					c-1.1,0-1.4-0.3-2.2-0.3h-1.1c-1.8-0.1-3.5,0.5-4.9,1.6c-1.4,1.3-1.6,3.2-1.9,3.8c-0.1,1-0.1,2,0,2.9c0.1,0.9,0.3,1.8,0.5,2.7
					c0.6,1.9,0.6,1.9,0.8,2.7c0.4,1,0.6,2.1,0.6,3.2c0,0.4-0.1,0.7-0.3,1.1c-0.1,0.5-0.4,1-0.8,1.3C89,93.8,88.5,94,88,94h-1.1
					c-0.2-0.1-0.3-0.2-0.6-0.3h-0.3C85.6,93.5,85.3,93.7,85.3,94.3z"/>
				<path class="st24" d="M92.7,83.3c0.3,0-0.6-1.3,0-2.7c0.1-0.7,0.6-1.4,1.3-1.6c0.3-0.3,0.8-0.5,2.5-0.5c1.2-0.1,2.5,0.2,3.6,0.8
					c1.6,0.8,2.2,1.6,4.1,3.7c1.2,1.3,2.5,2.5,3.9,3.5c-1.1-1.6-1.9-2.9-2.4-3.8c-0.3-0.5-1.1-1.9-2.2-3.5c-0.3-0.6-0.8-1.2-1.4-1.6
					c-0.9-1-2.2-1.6-3.6-1.6c-1.4,0.1-2.8,0.4-4.1,0.8c-1.6,0.8-2.2,1.9-2.2,2.1c-0.2,0.5-0.3,1.1-0.3,1.6
					C91.9,81.6,92.2,82.5,92.7,83.3z"/>
				<path class="st24" d="M97.3,83.6c-0.3,0-0.6,0.3-1.1,0.8"/>
				<path class="st24" d="M96.2,84.4c-0.3,0.3-0.6,0.8-0.8,1.1L95.1,86c-0.1,0.3-0.2,0.7-0.3,1v3l0.3,0.8c0.1,0.4,0.3,0.8,0.6,1.1
					c0,0.3,0.8,1.1,0.8,1.1c-0.6-1.5-0.8-3.2-0.8-4.8c0-0.6,0.1-1.3,0.3-1.9c0.2-0.5,0.5-1,0.8-1.3c0.2-0.3,0.5-0.6,0.8-0.8
					c0.5-0.4,1-0.6,1.6-0.5h1.4c-0.6,0-1.1-0.6-1.6-0.6c-0.7,0-1.3,0.2-1.9,0.5"/>
				<path class="st24" d="M113.2,88.4v1.9c0,0.3,0,0.3,0.3,1.1c0.3,1.1,0.3,1.1,0.5,1.3l0.6,0.5c0,0.3-0.3,0.5-0.6,0.8
					c-0.5,0.4-1,0.6-1.6,0.5H111c0.6-0.2,1-0.6,1.4-1.1c0.3-0.9,0.5-1.8,0.5-2.7C112.9,90,113,89.2,113.2,88.4z"/>
				<path class="st24" d="M105,75.3c0.4,1.5,1,3,1.9,4.3c1.1,1.5,2.5,2.6,4.1,3.4c0.4,0.2,0.9,0.4,1.4,0.5c0.8,0.2,1.6,0.4,2.4,0.5
					c-0.8-0.2-1.5-0.6-2.2-1.1l-1.4-0.8c-1.4-0.8-2.6-1.9-3.5-3.2c-0.9-1.3-1.7-2.7-2.2-4.3c0-0.3-0.3-0.3-0.6,0
					C104.8,74.9,104.8,75.1,105,75.3C105,75.3,105,75.3,105,75.3z"/>
				<path class="st24" d="M109.1,75.3c0.8,1.3,1.7,2.4,2.7,3.5l1.6,0.8c1.1,0,1.6,0.3,2.2,0.3c-0.3-0.3-0.8-0.3-1.4-0.8
					c-1.4-0.8-2.7-1.3-3.8-2.9c-0.8-0.9-1.3-2-1.6-3.2h-0.5C108.4,73.7,108.7,74.5,109.1,75.3z"/>
				<path class="st24" d="M111.8,71.3c0.3,0.6,0.5,1.2,0.6,1.9c0.4,0.7,1,1.4,1.7,1.9c0.5,0.4,1,0.7,1.6,0.8
					c0.4,0.2,0.9,0.3,1.4,0.3c-0.3-0.3-0.6-0.3-1.1-0.5s-0.8-0.5-1.1-0.5c-0.7-0.4-1.3-1.1-1.6-1.9c-0.5-0.4-0.9-1-1.1-1.6
					C112.1,71.4,112,71.3,111.8,71.3C111.8,71.3,111.8,71.3,111.8,71.3l-0.2,0C111.5,71,111.5,71.3,111.8,71.3z"/>
				<ellipse class="st24" cx="103.6" cy="76.1" rx="0.3" ry="0.5"/>
				<ellipse class="st24" cx="111.8" cy="79.8" rx="0.3" ry="0.5"/>
				<ellipse class="st24" cx="104.4" cy="78.5" rx="0.3" ry="0.5"/>
				<ellipse class="st24" cx="105.8" cy="80.9" rx="0.3" ry="0.5"/>
				<ellipse class="st25" cx="107.4" cy="82.8" rx="0.3" ry="0.5"/>
				<ellipse class="st24" cx="109.6" cy="84.4" rx="0.3" ry="0.5"/>
				<ellipse class="st24" cx="112.1" cy="85.4" rx="0.3" ry="0.5"/>
				<ellipse class="st24" cx="114.5" cy="86" rx="0.3" ry="0.5"/>
				<ellipse class="st24" cx="115.1" cy="82" rx="0.3" ry="0.5"/>
				<ellipse class="st24" cx="112.3" cy="81.2" rx="0.3" ry="0.5"/>
				<ellipse class="st24" cx="108.5" cy="77.2" rx="0.3" ry="0.5"/>
				<ellipse class="st24" cx="107.4" cy="74.7" rx="0.3" ry="0.5"/>
				<ellipse class="st24" cx="110.4" cy="72.6" rx="0.3" ry="0.5"/>
				<ellipse class="st24" cx="111.8" cy="74.7" rx="0.3" ry="0.5"/>
				<ellipse class="st24" cx="113.7" cy="76.6" rx="0.3" ry="0.5"/>
				<ellipse class="st24" cx="115.9" cy="77.9" rx="0.3" ry="0.5"/>
				<ellipse class="st24" cx="114.2" cy="72.3" rx="0.3" ry="0.5"/>
				<ellipse class="st24" cx="115.6" cy="73.9" rx="0.3" ry="0.5"/>
				<ellipse class="st24" cx="117.5" cy="74.7" rx="0.3" ry="0.5"/>
				<ellipse class="st24" cx="119.4" cy="74.2" rx="0.3" ry="0.5"/>
				<ellipse class="st24" cx="120.8" cy="72.9" rx="0.3" ry="0.5"/>
				<ellipse class="st24" cx="115.1" cy="70.5" rx="0.3" ry="0.5"/>
				<ellipse class="st24" cx="113.4" cy="70.5" rx="0.3" ry="0.5"/>
				<ellipse class="st24" cx="113.4" cy="68.6" rx="0.3" ry="0.5"/>
				<ellipse class="st24" cx="114.2" cy="67" rx="0.3" ry="0.3"/>
				<ellipse class="st24" cx="115.6" cy="66.5" rx="0.3" ry="0.3"/>
				<ellipse class="st24" cx="121.3" cy="69.9" rx="0.3" ry="0.3"/>
				<ellipse class="st24" cx="122.7" cy="72.1" rx="0.3" ry="0.3"/>
				<ellipse class="st24" cx="122.2" cy="72.9" rx="0.3" ry="0.3"/>
				<ellipse class="st24" cx="121.9" cy="73.9" rx="0.3" ry="0.3"/>
				<ellipse class="st24" cx="121.1" cy="74.7" rx="0.3" ry="0.3"/>
				<ellipse class="st24" cx="120.5" cy="75.8" rx="0.3" ry="0.3"/>
				<ellipse class="st24" cx="119.7" cy="76.6" rx="0.3" ry="0.3"/>
				<ellipse class="st24" cx="121.6" cy="71.3" rx="0.3" ry="0.3"/>
				<ellipse class="st24" cx="118.3" cy="69.9" rx="1.9" ry="1.9"/>
				<ellipse class="st26" cx="118.9" cy="70.2" rx="1.1" ry="1.1"/>
			</g>
			<g>
				
					<linearGradient id="SVGID_13_" gradientUnits="userSpaceOnUse" x1="49.05" y1="215.16" x2="679.88" y2="215.16" gradientTransform="matrix(1 0 0 -1 0 436)">
					<stop  offset="2.000000e-02" style="stop-color:#FFFFFF"/>
					<stop  offset="0.35" style="stop-color:#9A9A9A"/>
					<stop  offset="0.63" style="stop-color:#454545"/>
					<stop  offset="1" style="stop-color:#8C8C8C"/>
				</linearGradient>
				<path class="st27" d="M652.6,31.4c13.5,0,24.4,11.2,24.4,25v328.8c0,13.8-11,25-24.4,25l-576.3,0.1c-13.5,0-24.4-11.2-24.5-25
					V56.5c0-13.8,11-25,24.4-25L652.6,31.4L652.6,31.4 M652.6,28.6L652.6,28.6L76.3,28.7C61.2,28.7,49,41.1,49,56.5v328.7
					c0,15.4,12.2,27.8,27.3,27.8l0,0l576.3-0.1c15.1,0,27.3-12.5,27.3-27.9V56.4C679.9,41,667.7,28.6,652.6,28.6L652.6,28.6z"/>
			</g>
			<g class="st28">
				
					<radialGradient id="SVGID_14_" cx="404.5914" cy="596.2275" r="243" gradientTransform="matrix(-1.4 0 0 -1.43 1286.08 1080.76)" gradientUnits="userSpaceOnUse">
					<stop  offset="0" style="stop-color:#FFFFFF"/>
					<stop  offset="1" style="stop-color:#FFFFFF;stop-opacity:0"/>
				</radialGradient>
				<path class="st29" d="M651.8,410.5l-422.1,0.6L548.7,27.2L651.3,26c15.3,0,27.7,12.6,27.7,28.3l0.4,327.9
					C679.5,397.8,667.1,410.4,651.8,410.5z"/>
				
					<radialGradient id="SVGID_15_" cx="404.5914" cy="596.2275" r="243" gradientTransform="matrix(-1.4 0 0 -1.43 1286.08 1080.76)" gradientUnits="userSpaceOnUse">
					<stop  offset="0" style="stop-color:#FFFFFF"/>
					<stop  offset="1" style="stop-color:#FFFFFF;stop-opacity:0"/>
				</radialGradient>
				<path class="st30" d="M651.8,410.5l-422.1,0.6L548.7,27.2L651.3,26c15.3,0,27.7,12.6,27.7,28.3l0.4,327.9
					C679.5,397.8,667.1,410.4,651.8,410.5z"/>
			</g>
			
				<linearGradient id="SVGID_16_" gradientUnits="userSpaceOnUse" x1="57.4206" y1="99.4583" x2="646.6807" y2="323.5383" gradientTransform="matrix(1 0 0 -1 0 436)">
				<stop  offset="0" style="stop-color:#FFFFFF;stop-opacity:0.71"/>
				<stop  offset="0.47" style="stop-color:#FFFFFF;stop-opacity:0.35"/>
				<stop  offset="0.83" style="stop-color:#FFFFFF;stop-opacity:0.1"/>
				<stop  offset="1" style="stop-color:#FFFFFF;stop-opacity:0"/>
			</linearGradient>
			<path class="st31" d="M78.5,28.6H650c16.3,0,29.5,13.2,29.5,29.5v323.6c0,16.3-13.2,29.5-29.5,29.5H78.5
				c-16.3,0-29.5-13.2-29.5-29.5V58.1C49.1,41.8,62.2,28.6,78.5,28.6z"/>
		</g>
		<g id="Text">
			<path class="st24" d="M85.8,372.1l0.5,1.2l-2.8,0.9l1.7,2.2l-1,0.8l-1.8-2.3l-1.7,2.3l-1.2-0.8l1.7-2.2l-2.7-0.9l0.5-1.2l2.7,1
				v-2.7h1.4v2.7L85.8,372.1z"/>
			<path class="st24" d="M94.8,372.1l0.5,1.2l-2.8,0.9l1.7,2.2l-1,0.8l-1.8-2.3l-1.7,2.3l-1.2-0.8l1.7-2.2l-2.7-0.9l0.5-1.2l2.7,1
				v-2.7h1.3v2.7L94.8,372.1z"/>
			<path class="st24" d="M103.8,372.1l0.5,1.2l-2.8,0.9l1.7,2.2l-1,0.8l-1.8-2.3l-1.7,2.3l-1.2-0.8l1.7-2.2l-2.7-0.9l0.5-1.2l2.7,1
				v-2.7h1.3v2.7L103.8,372.1z"/>
			<path class="st24" d="M112.8,372.1l0.5,1.2l-2.8,0.9l1.7,2.2l-1.1,0.8l-1.8-2.3l-1.7,2.3l-1.2-0.8l1.7-2.2l-2.7-0.9l0.5-1.2
				l2.7,1v-2.7h1.3v2.7L112.8,372.1z"/>
			<path class="st24" d="M121.9,372.1l0.5,1.2l-2.8,0.9l1.7,2.2l-1,0.8l-1.8-2.3l-1.7,2.3l-1.2-0.8l1.7-2.2l-2.7-0.9l0.5-1.2l2.7,1
				v-2.7h1.3v2.7L121.9,372.1z"/>
			<path class="st24" d="M127.7,372.6l-1,4.9v0c0.4-0.4,0.9-0.8,1.5-0.9c0.6-0.2,1.2-0.3,1.9-0.3c0.8,0,1.5,0.1,2.3,0.4
				c0.7,0.2,1.3,0.6,1.9,1.1c0.5,0.5,1,1.1,1.2,1.8c0.3,0.8,0.5,1.7,0.5,2.6c0,0.7-0.1,1.4-0.4,2.1c-0.3,0.7-0.7,1.3-1.2,1.8
				c-0.6,0.6-1.2,1-2,1.3c-0.9,0.3-1.8,0.5-2.8,0.5c-0.8,0-1.5-0.1-2.2-0.3c-0.7-0.2-1.3-0.5-1.8-1c-0.5-0.4-1-0.9-1.2-1.5
				c-0.3-0.6-0.5-1.4-0.5-2.1h2.2c0,0.4,0.1,0.8,0.3,1.2c0.2,0.4,0.5,0.7,0.8,1c0.3,0.3,0.7,0.5,1.2,0.6c0.5,0.2,1,0.2,1.5,0.2
				c0.5,0,1-0.1,1.5-0.2c0.5-0.2,0.9-0.4,1.2-0.8c0.4-0.4,0.6-0.8,0.8-1.3c0.2-0.6,0.3-1.2,0.3-1.8c0-0.5-0.1-1.1-0.3-1.6
				c-0.2-0.5-0.5-0.9-0.8-1.2c-0.4-0.4-0.8-0.6-1.3-0.8c-0.5-0.2-1.1-0.3-1.7-0.3c-0.7,0-1.3,0.1-1.9,0.5c-0.6,0.3-1.1,0.7-1.5,1.2
				l-1.9-0.1l1.7-8.9h9v1.8L127.7,372.6z"/>
			<path class="st24" d="M141.7,385.4c0.7,0.5,1.4,0.7,2.2,0.7c1.2,0.1,2.4-0.6,3-1.6c0.8-1.6,1.2-3.3,1.1-5l0,0
				c-0.4,0.7-1,1.3-1.8,1.7c-0.7,0.4-1.6,0.6-2.4,0.6c-0.8,0-1.7-0.1-2.5-0.4c-0.7-0.3-1.3-0.7-1.8-1.2c-0.5-0.5-0.9-1.1-1.1-1.8
				c-0.3-0.8-0.4-1.5-0.4-2.3c0-0.8,0.1-1.5,0.4-2.3c0.3-0.7,0.7-1.3,1.2-1.8c0.6-0.5,1.2-0.9,1.9-1.1c0.8-0.3,1.6-0.4,2.4-0.4
				c0.8,0,1.6,0.1,2.4,0.4c0.8,0.2,1.5,0.7,2,1.3c0.6,0.7,1.1,1.6,1.4,2.5c0.4,1.3,0.5,2.6,0.5,4c0.1,2.4-0.4,4.7-1.5,6.8
				c-1,1.6-2.9,2.5-4.8,2.4c-1.3,0-2.7-0.3-3.8-1.1c-1-0.8-1.7-2-1.7-3.3h2.2C140.8,384.2,141.1,385,141.7,385.4z M147.4,374.7
				c-0.2-0.5-0.4-0.9-0.7-1.2c-0.3-0.4-0.7-0.7-1.2-0.9c-0.5-0.2-1.1-0.3-1.6-0.3c-0.6,0-1.1,0.1-1.6,0.3c-0.4,0.2-0.8,0.5-1.1,0.9
				c-0.3,0.4-0.5,0.8-0.6,1.3c-0.1,0.5-0.2,1-0.2,1.5c0,0.5,0.1,0.9,0.3,1.4c0.2,0.4,0.4,0.8,0.7,1.2c0.3,0.3,0.7,0.6,1.1,0.8
				c0.5,0.2,0.9,0.3,1.4,0.3c0.5,0,1.1-0.1,1.5-0.3c0.9-0.4,1.6-1.1,1.9-2c0.2-0.5,0.3-0.9,0.2-1.4
				C147.7,375.7,147.6,375.2,147.4,374.7z"/>
			<path class="st24" d="M157.2,377.8h0.8c0.4,0,0.9-0.1,1.3-0.2c0.4-0.1,0.8-0.3,1.1-0.5c0.6-0.5,1-1.3,1-2.1
				c0.1-0.8-0.3-1.6-0.9-2.1c-0.7-0.5-1.5-0.7-2.3-0.7c-0.5,0-1,0.1-1.5,0.3c-0.4,0.2-0.8,0.5-1.1,0.8c-0.3,0.4-0.5,0.8-0.6,1.2
				c-0.1,0.5-0.2,0.9-0.2,1.4h-2.2c0-0.8,0.2-1.5,0.4-2.2c0.2-0.6,0.6-1.2,1.1-1.7c0.5-0.5,1.1-0.9,1.7-1.1c0.8-0.3,1.6-0.4,2.4-0.4
				c0.7,0,1.5,0.1,2.2,0.3c0.6,0.2,1.2,0.5,1.8,0.8c0.5,0.4,0.9,0.9,1.2,1.4c0.3,0.6,0.4,1.4,0.4,2.1c0,0.7-0.2,1.5-0.7,2.1
				c-0.5,0.6-1.1,1.1-1.8,1.4l0,0c1,0.2,1.9,0.7,2.5,1.5c0.5,0.8,0.8,1.7,0.8,2.7c0,0.8-0.2,1.6-0.5,2.3c-0.3,0.6-0.8,1.2-1.4,1.6
				c-0.6,0.5-1.3,0.8-2,1c-0.8,0.2-1.6,0.3-2.4,0.3c-0.9,0-1.7-0.1-2.5-0.4c-0.7-0.2-1.4-0.6-1.9-1.1c-0.5-0.5-0.9-1.1-1.2-1.8
				c-0.3-0.8-0.4-1.6-0.4-2.4h2.2c0,1,0.3,2,1,2.7c0.8,0.7,1.8,1.1,2.8,1c0.5,0,1-0.1,1.5-0.2c0.5-0.1,0.9-0.4,1.3-0.6
				c0.3-0.3,0.6-0.6,0.9-1c0.2-0.4,0.3-0.9,0.3-1.4c0-0.5-0.1-1-0.3-1.4c-0.2-0.4-0.5-0.7-0.8-1c-0.4-0.3-0.8-0.5-1.2-0.6
				c-0.5-0.1-1-0.2-1.5-0.2c-0.4,0-0.9,0-1.3,0.1v-1.7C157.1,377.8,157.2,377.8,157.2,377.8z"/>
			<path class="st24" d="M172.6,387.6v-12.3h-4.7v-1.6c0.6,0,1.2,0,1.8-0.1c0.5-0.1,1.1-0.3,1.6-0.5c0.5-0.2,0.9-0.6,1.2-1
				c0.3-0.5,0.6-1,0.7-1.6h1.7v17.2L172.6,387.6z"/>
		</g>
	</g>
</g>
<line id="LINE-3" class="st32" x1="389.6" y1="35.7" x2="442.3" y2="410.8"/>
<line id="LINE-2" class="st33" x1="389.6" y1="35.7" x2="679.5" y2="306.2"/>
<line id="LINE-1" class="st34" x1="273.1" y1="413.2" x2="673.8" y2="44.8"/>
<g id="liberty">
	<polyline id="L" class="st24" points="476.8,54.9 482.4,54.9 482.4,77.1 492.4,77 492.4,82.6 476.8,82.7 	"/>
	<polyline id="I" class="st24" points="497.9,54.9 504.2,54.9 504.2,82.7 497.9,82.7 497.9,54.9 	"/>
	<path id="B" class="st35" d="M508.9,55.4c2.5,0.1,5.1,0.1,7.6,0.2c0.8,0,3.4,0,5.8,1.8c0.6,0.5,2.1,1.6,2.7,3.6
		c1.1,3.9-1.7,7.2-2,7.6c0.4,0.2,3.4,2.1,3.9,5.8c0.1,0.5,0.6,4-1.9,6.6c-1.9,1.9-4.2,2.2-4.9,2.3h-6.4v-6.6l5.2,0
		c0.9-0.2,1.6-1.1,1.7-2.1c0.2-1.3-0.6-2.7-1.7-3c-1.7,0-3.5-0.1-5.2-0.1V66l5.2-0.1c0.8-0.5,1.3-1.7,1.3-2.9
		c-0.1-1.1-0.7-2.1-1.5-2.5c-3.2,0-6.5,0.1-9.7,0.1C508.9,58.9,508.9,57.2,508.9,55.4z"/>
	<polyline id="E" class="st24" points="532.4,54.9 549.3,54.9 549.3,60.6 538.7,60.6 538.7,64.8 549.3,64.8 549.3,71.4 538.4,71.4 
		538.5,75.8 549.3,75.8 549.3,82.7 532.4,82.7 532.4,54.9 	"/>
	<path id="R" class="st24" d="M554.3,54.6c0,0,0.9-0.1,4.3,0c2.1,0.1,3.1,0,5.9,0.2c0.3,0,0.8,0.1,1.5,0.2c0.3,0.1,0.9,0.3,1.7,0.7
		c0.9,0.5,2.2,1.2,3.3,2.6c0.9,1.2,1.2,2.4,1.4,2.9c0.3,1.4,0.2,2.5,0,3.6c-0.1,0.9-0.3,2-0.9,3.3c-0.3,0.7-0.9,1.8-2,2.7
		c-0.8,0.7-1.7,1.1-2.2,1.3l5.6,10.4H566l-4.1-9.3l-3.6,0l-0.1-5.9l5.3,0c1.2-0.3,2-1.6,2.1-3.1c0.1-1.6-0.8-3.2-2.1-3.6
		c-3.1,0-9.3,0-9.3,0L554.3,54.6z"/>
	<polyline id="T" class="st24" points="577.2,54.9 597.5,54.9 597.5,61 590.8,61 590.6,83.3 584.1,83.3 584.1,60.6 577.2,60.7 
		577.2,54.9 	"/>
	<polyline id="Y" class="st24" points="602,54.9 609.1,54.9 614.2,64.2 619.7,54.9 626.9,54.9 617.6,70.9 617.6,83.3 610.9,83.3 
		610.9,71.9 	"/>
	<line id="Y_1_" class="st24" x1="602" y1="54.9" x2="610.9" y2="71.9"/>
</g>
<g id="CREDO_LOGO">
	<path class="st24" d="M122.6,82.7c0.5,3.1-0.4,4.1-0.8,4.5c-1.6,1.6-4,0.6-5.6,2.1c-1.8,1.7,0.2,3.9-1.6,6
		c-0.5,0.5-1.5,1.4-4.7,1.9c-3.7,0.6-10.9,1.8-17.3-2.4c0,0-7.5-5-6.5-14.3c0.3-2.5,1.3-3.3,1.6-3.5c1.9-1.4,4.1-0.2,5.9-1.4
		c2.1-1.4,0.3-4,1.8-5.9c2.6-3.3,14.1-3.1,20.9,1.9C121.5,75.4,122.3,80.5,122.6,82.7z"/>
	<path class="st24" d="M83.8,68c-1.4,1.6-3.4,4.1-4.6,7.6c-0.8,2.3-3.3,10.5,2.4,18.5c5,7.1,13.1,9.5,15.5,10.2
		c7.7,2.2,14.4,1,17.1,0.4c0-1.4,0-2.7,0-4.1c-2.1,0.6-4.9,1.1-8.2,0.9c-10.6-0.4-17.3-6.9-18.9-8.5c-1.2-1.5-5.3-7-4-14.3
		c0.7-3.9,2.7-6.8,4-8.4c1.5,1,3,1.9,4.6,2.9c0-3.1,0-6.2,0.1-9.3c-4.1,0.1-8.1,0.2-12.2,0.3C80.9,65.6,82.4,66.8,83.8,68z"/>
	<path class="st24" d="M117.6,101.6c0-3.4,0.1-6.8,0.1-10.2c1.6,1.2,3.2,2.4,4.8,3.5c1.3-1.3,3.8-4.2,4.7-8.3
		c1.2-5.3-0.9-9.5-1.8-11.2c-0.8-1.5-3.2-6-8.9-9c-9.4-4.9-19.9-1.7-21.3-1.2c0-1.3,0-2.6,0-3.9c1.6-0.5,12.6-3.7,23.2,1.4
		c8.1,3.9,11.1,10.2,12,12.2c1,2.1,3,6.8,1.4,12.6c-1.4,5.1-4.8,8.4-6.4,9.8c1.6,1.5,3.3,2.9,4.9,4.4
		C126.1,101.7,121.9,101.6,117.6,101.6z"/>
</g>
<g id="credo-text">
	<path class="st24" d="M162,95.1c-2.2,0-4-0.6-5.6-1.7c-1.6-1.1-2.7-2.7-3.6-4.8s-1.2-4.4-1.2-7.1c0-2.7,0.4-5,1.2-7.1
		s2-3.6,3.6-4.8c1.6-1.1,3.4-1.7,5.6-1.7c2.5,0,4.6,0.7,6.3,2.2c1.7,1.5,2.8,3.5,3.5,6.1l-3.7,1.2c-0.4-1.7-1.1-3-2.2-4
		c-1-1-2.3-1.4-4-1.4c-1.5,0-2.7,0.4-3.6,1.2c-1,0.8-1.7,1.9-2.2,3.3c-0.5,1.4-0.7,3.1-0.7,5c0,1.9,0.2,3.6,0.7,5
		c0.5,1.4,1.2,2.5,2.2,3.3c1,0.8,2.2,1.2,3.7,1.2c1.6,0,2.9-0.5,4-1.4c1-1,1.7-2.3,2.2-4l3.7,1.2c-0.7,2.5-1.8,4.6-3.5,6.1
		C166.6,94.3,164.5,95.1,162,95.1z"/>
	<path class="st24" d="M175.1,94.5v-26h9c0.2,0,0.5,0,0.8,0c0.3,0,0.6,0.1,0.9,0.1c1.3,0.2,2.3,0.7,3.1,1.5c0.8,0.8,1.4,1.7,1.8,2.9
		s0.6,2.5,0.6,3.9c0,2.1-0.4,3.9-1.3,5.5c-0.9,1.5-2.3,2.5-4.1,2.8l-1.6,0.2h-5.6v9.1H175.1z M178.7,81.4h5.2c0.2,0,0.4,0,0.7,0
		c0.3,0,0.5-0.1,0.7-0.1c0.6-0.2,1.1-0.5,1.4-1c0.3-0.5,0.6-1,0.7-1.6c0.1-0.6,0.2-1.1,0.2-1.7c0-0.6-0.1-1.1-0.2-1.7
		c-0.1-0.6-0.4-1.1-0.7-1.6c-0.3-0.5-0.8-0.8-1.4-1c-0.2-0.1-0.4-0.1-0.7-0.1c-0.3,0-0.5,0-0.7,0h-5.2V81.4z M187.6,94.5L183.3,84
		l3.7-1l4.7,11.5H187.6z"/>
	<path class="st24" d="M195,94.5v-26h14.1v4.1h-10.4V79h8.6v4.1h-8.6v7.3h10.4v4.1H195z"/>
	<path class="st24" d="M212.7,94.5v-26h6.9c0.2,0,0.5,0,1.1,0c0.5,0,1.1,0.1,1.6,0.1c1.7,0.3,3.2,1,4.4,2.2c1.2,1.2,2.1,2.7,2.7,4.6
		c0.6,1.9,0.9,3.9,0.9,6.1s-0.3,4.2-0.9,6.1c-0.6,1.9-1.5,3.4-2.7,4.6c-1.2,1.2-2.7,1.9-4.4,2.2c-0.5,0.1-1,0.1-1.6,0.1
		c-0.5,0-0.9,0-1.1,0H212.7z M216.4,90.4h3.2c0.3,0,0.7,0,1.2,0c0.5,0,0.9-0.1,1.2-0.2c1-0.2,1.9-0.8,2.5-1.6
		c0.6-0.9,1.1-1.9,1.4-3.2c0.3-1.2,0.5-2.5,0.5-3.9c0-1.4-0.2-2.7-0.5-4c-0.3-1.2-0.8-2.3-1.4-3.1c-0.6-0.8-1.5-1.4-2.5-1.6
		c-0.4-0.1-0.8-0.2-1.2-0.2c-0.5,0-0.9,0-1.2,0h-3.2V90.4z"/>
	<path class="st24" d="M243.1,95.1c-2.2,0-4-0.6-5.6-1.7c-1.6-1.1-2.7-2.7-3.6-4.8s-1.2-4.4-1.2-7.1c0-2.7,0.4-5,1.2-7.1
		s2-3.6,3.6-4.8c1.6-1.1,3.4-1.7,5.6-1.7s4,0.6,5.6,1.7c1.6,1.1,2.8,2.7,3.6,4.8s1.2,4.4,1.2,7.1c0,2.7-0.4,5-1.2,7.1
		s-2,3.6-3.6,4.8C247.1,94.5,245.2,95.1,243.1,95.1z M243.1,91c1.5,0,2.7-0.4,3.6-1.2s1.7-1.9,2.2-3.3c0.5-1.4,0.7-3.1,0.7-5
		c0-1.9-0.2-3.6-0.7-5c-0.5-1.4-1.2-2.5-2.2-3.3c-1-0.8-2.2-1.2-3.6-1.2c-1.5,0-2.7,0.4-3.6,1.2c-1,0.8-1.7,1.9-2.2,3.3
		c-0.5,1.4-0.7,3.1-0.7,5c0,1.9,0.2,3.6,0.7,5c0.5,1.4,1.2,2.5,2.2,3.3S241.6,91,243.1,91z"/>
	<path class="st24" d="M262.6,94.5v-26h8.6c1.5,0,2.7,0.4,3.6,1.1c0.9,0.7,1.6,1.6,2.1,2.7c0.5,1.1,0.7,2.2,0.7,3.4
		c0,1.4-0.3,2.6-0.9,3.6c-0.6,1-1.3,1.7-2.3,2v-0.9c1.4,0.4,2.4,1.1,3.1,2.3c0.7,1.2,1.1,2.5,1.1,4c0,1.5-0.2,2.9-0.7,4
		s-1.2,2.1-2.2,2.7c-1,0.6-2.2,1-3.6,1H262.6z M266.2,78.9h4.9c0.5,0,1-0.1,1.4-0.4c0.4-0.2,0.7-0.6,1-1.1c0.2-0.5,0.4-1,0.4-1.7
		c0-0.9-0.2-1.7-0.7-2.3s-1.2-0.9-2-0.9h-4.9V78.9z M266.2,90.4h5.4c0.6,0,1.2-0.2,1.7-0.5s0.9-0.7,1.2-1.3c0.3-0.6,0.4-1.2,0.4-2
		c0-0.7-0.1-1.3-0.4-1.9c-0.3-0.6-0.6-1-1.1-1.3c-0.5-0.3-1.1-0.5-1.7-0.5h-5.5V90.4z"/>
	<path class="st24" d="M280.1,94.5l6.9-26h5.3l6.9,26h-3.7l-6.2-23.3h0.8l-6.1,23.3H280.1z M283.9,88.9v-4.1h11.4v4.1H283.9z"/>
	<path class="st24" d="M301.9,94.5v-26h3.7l10.1,18.3V68.6h3.7v26h-3.7l-10.1-18.3v18.3H301.9z"/>
	<path class="st24" d="M323.6,94.5v-26h3.6v12.1l8.7-12.1h4.5L331,81.3l10,13.2h-4.6l-9.2-12.1v12.1H323.6z"/>
</g>
<g id="tbc_logo">
	<path class="st24" d="M84.1,93.5c2.2-3.9,4.4-7.8,6.9-11.8c3.1-5.2,6.3-10.1,9.4-14.8c0.2-0.2,0.6-0.3,0.8-0.2
		c0.5,0.3,0,1.9-0.5,4.8c0,0.2-0.4,2.6-0.6,5.5c-0.1,2.3,0,3.5,0,3.9c0.2,1.4,0.4,2.5,0.7,3.4c0,0.6-0.2,1.5-0.8,2.4
		c-0.4,0.6-0.9,0.9-1.1,1c-2.3,1.6-2.7,2.4-5.6,4c-3.1,1.7-6,2.8-8.2,3.4c-0.1,0-0.5-0.2-0.7-0.6C84.1,94,84.1,93.6,84.1,93.5z"/>
	<path class="st24" d="M102.3,87.7c0.3-0.1,0.7-0.3,1.3-0.3c0,0,0.4,0,0.8,0c1,0,3.1,0.9,3.3,1c1.5,0.6,1.1,0.4,2.5,0.9
		c0,0,3.9,1.4,8.1,4.5c0.4,0.3,0.7,0.5,0.9,0.7c0.4,0.4,0.5,0.6,0.5,0.7c0.1,0.4-0.1,0.7-0.1,0.8c-0.2,0.4-0.7,0.6-0.7,0.6
		c-5,0.4-10.3,0.6-16,0.6c-6.2,0-12-0.2-17.3-0.6c-0.1,0-0.2-0.2-0.2-0.3c0-0.1,0.1-0.3,0.2-0.3c2.9-0.7,6.6-1.9,10.6-4.1
		C98.6,90.6,100.6,89.1,102.3,87.7z"/>
	<path class="st24" d="M120.2,94.1c-2.2-1.8-4.8-3.7-7.9-5.6c-2.8-1.6-5.4-2.9-7.8-3.9c-0.8-0.4-1.4-1.1-1.7-1.9
		c-0.6-2-1.1-4.5-1.2-7.4c-0.1-3,0.1-5.6,0.5-7.7c0.2-0.7,0.8-1.1,1.4-1c0.6,0,1,0.6,1,0.6c0.8,1,1.9,2.4,3.2,4.1
		c2.6,3.7,4.2,6.5,5.5,8.8c1.7,3,4.1,7.3,7.5,12.9c0.2,0.5,0.1,0.9-0.1,1C120.5,94.3,120.3,94.2,120.2,94.1z"/>
	<path class="st24" d="M83.2,118"/>
	<path class="st24" d="M113.4,87.5"/>
</g>
<path class="st24" d="M559.9-11.6"/>
</svg>
