<svg id="Card_layer" data-name="Card layer" xmlns="http://www.w3.org/2000/svg" xmlns:xlink="http://www.w3.org/1999/xlink" width="632.31" height="388.56" viewBox="0 0 632.31 388.56"><defs><linearGradient id="Безымянный_градиент" x1="11.22" y1="351.1" x2="77.83" y2="351.31" gradientTransform="matrix(1, 0.01, 0.01, -1, 82.72, 556.35)" gradientUnits="userSpaceOnUse"><stop offset="0" stop-color="#2b2b2b"/><stop offset="1" stop-color="#636363"/></linearGradient><linearGradient id="Безымянный_градиент_2" x1="10.24" y1="352.7" x2="76.86" y2="352.91" gradientTransform="matrix(1, 0.01, 0.01, -1, 82.72, 556.35)" gradientUnits="userSpaceOnUse"><stop offset="0" stop-color="#cfcfcf"/><stop offset="1" stop-color="#9e9e9e"/></linearGradient><linearGradient id="Безымянный_градиент_3" x1="13.35" y1="352.71" x2="77.19" y2="352.91" gradientTransform="matrix(1, 0.01, 0.01, -1, 82.72, 556.35)" gradientUnits="userSpaceOnUse"><stop offset="0" stop-color="#fff"/><stop offset="0.59" stop-color="#9e9e9e"/></linearGradient><clipPath id="clip-path" transform="translate(-49.05 -26)"><path d="M154,232.7l-46.73-.44c-4.39,0-7.92-4.18-7.89-9.23l.28-38.82c0-5.05,3.62-9.12,8-9.08l46.72.44c4.39,0,7.93,4.17,7.89,9.23L162,223.62C162,228.67,158.42,232.74,154,232.7Z" style="fill:none"/></clipPath><radialGradient id="Безымянный_градиент_4" cx="-116.8" cy="112.86" r="19.36" gradientTransform="matrix(1.06, 0.01, 0.01, -1.22, 266.65, 330.77)" gradientUnits="userSpaceOnUse"><stop offset="0" stop-color="#fff"/><stop offset="1" stop-color="#fff" stop-opacity="0"/></radialGradient><radialGradient id="Безымянный_градиент_5" cx="-146.71" cy="125.85" r="19.36" gradientTransform="matrix(1, 0, 0, -1, -49.05, 410)" xlink:href="#Безымянный_градиент_4"/><radialGradient id="Безымянный_градиент_6" cx="-143.13" cy="124.52" r="19.36" gradientTransform="matrix(1, 0, 0, -1, -49.05, 410)" xlink:href="#Безымянный_градиент_4"/><radialGradient id="Безымянный_градиент_7" cx="147.9" cy="6.56" r="17.43" gradientTransform="matrix(2.27, -0.04, -0.43, -0.51, -205.91, 183.89)" gradientUnits="userSpaceOnUse"><stop offset="0" stop-color="#fff"/><stop offset="0.04" stop-color="#fff" stop-opacity="0.87"/><stop offset="0.1" stop-color="#fff" stop-opacity="0.69"/><stop offset="0.17" stop-color="#fff" stop-opacity="0.52"/><stop offset="0.24" stop-color="#fff" stop-opacity="0.38"/><stop offset="0.31" stop-color="#fff" stop-opacity="0.26"/><stop offset="0.39" stop-color="#fff" stop-opacity="0.17"/><stop offset="0.49" stop-color="#fff" stop-opacity="0.09"/><stop offset="0.59" stop-color="#fff" stop-opacity="0.04"/><stop offset="0.73" stop-color="#fff" stop-opacity="0.01"/><stop offset="1" stop-color="#fff" stop-opacity="0"/></radialGradient><radialGradient id="Безымянный_градиент_8" cx="133.03" cy="-52.8" r="17.43" gradientTransform="matrix(2.27, -0.04, -0.43, -0.51, -200.57, 190.26)" xlink:href="#Безымянный_градиент_7"/><radialGradient id="Безымянный_градиент_9" cx="138.61" cy="-70.26" r="17.43" gradientTransform="matrix(2.27, -0.04, -0.43, -0.51, -199, 192.13)" xlink:href="#Безымянный_градиент_7"/><radialGradient id="Безымянный_градиент_10" cx="136.29" cy="-56.27" r="17.43" gradientTransform="matrix(2.27, -0.04, -0.43, -0.51, -200.26, 190.63)" xlink:href="#Безымянный_градиент_7"/><linearGradient id="Безымянный_градиент_11" x1="49.05" y1="215.16" x2="679.88" y2="215.16" gradientTransform="matrix(1, 0, 0, -1, 0, 436)" gradientUnits="userSpaceOnUse"><stop offset="0.02" stop-color="#fff"/><stop offset="0.35" stop-color="#9a9a9a"/><stop offset="0.63" stop-color="#454545"/><stop offset="1" stop-color="#8c8c8c"/></linearGradient><radialGradient id="Безымянный_градиент_12" cx="404.59" cy="596.23" r="243" gradientTransform="translate(1286.08 1080.76) rotate(180) scale(1.4 1.43)" xlink:href="#Безымянный_градиент_4"/><linearGradient id="Безымянный_градиент_14" x1="57.42" y1="99.46" x2="646.68" y2="323.54" gradientTransform="matrix(1, 0, 0, -1, -49.05, 410)" gradientUnits="userSpaceOnUse"><stop offset="0" stop-color="#fff" stop-opacity="0.71"/><stop offset="0.47" stop-color="#fff" stop-opacity="0.35"/><stop offset="0.83" stop-color="#fff" stop-opacity="0.1"/><stop offset="1" stop-color="#fff" stop-opacity="0"/></linearGradient></defs><title>cardAnimated</title><g id="CARD"><g id="Слой_1" data-name="Слой 1"><g id="Bank_of_Georgia" data-name="Bank of Georgia"><path d="M79.11,28.61H651.06a28.56,28.56,0,0,1,28.56,28.56V382.53a28.58,28.58,0,0,1-28.56,28.57H79.11a28.58,28.58,0,0,1-28.58-28.57V57.19A28.57,28.57,0,0,1,79.09,28.61Z" transform="translate(-49.05 -26)" style="fill:#eb602c"/><path d="M155,234.31l-46.73-.43c-4.39,0-7.92-4.18-7.89-9.23l.28-38.82c0-5.05,3.62-9.12,8-9.08l46.72.44c4.39,0,7.93,4.17,7.89,9.23L163,225.23C163,230.29,159.38,234.36,155,234.31Z" transform="translate(-49.05 -26)" style="opacity:0.25;isolation:isolate;fill:url(#Безымянный_градиент)"/><path d="M154,232.7l-46.73-.44c-4.39,0-7.92-4.18-7.89-9.23l.28-38.82c0-5.05,3.62-9.12,8-9.08l46.72.44c4.39,0,7.93,4.17,7.89,9.23L162,223.62C162,228.67,158.42,232.74,154,232.7Z" transform="translate(-49.05 -26)" style="fill:url(#Безымянный_градиент_2)"/><path d="M154,232.7l-46.73-.44c-4.39,0-7.92-4.18-7.89-9.23l.28-38.82c0-5.05,3.62-9.12,8-9.08l46.72.44c4.39,0,7.93,4.17,7.89,9.23L162,223.62C162,228.67,158.42,232.74,154,232.7Z" transform="translate(-49.05 -26)" style="fill:none;stroke-miterlimit:10;stroke-width:1.1394455432891846px;stroke:url(#Безымянный_градиент_3)"/><g style="opacity:0.20000000298023224"><polygon points="91.64 188.58 69.7 188.38 69.86 165.75 91.8 165.96 91.64 188.58" style="fill:none;stroke:#8d8d8d;stroke-miterlimit:10;stroke-width:1.1394455432891846px"/><polygon points="101.93 157.45 80.89 157.25 80.83 165.86 101.87 166.05 101.93 157.45" style="fill:none;stroke:#8d8d8d;stroke-miterlimit:10;stroke-width:1.1394455432891846px"/><polygon points="80.89 157.25 59.85 157.05 59.79 165.66 80.83 165.86 80.89 157.25" style="fill:none;stroke:#8d8d8d;stroke-miterlimit:10;stroke-width:1.1394455432891846px"/><polygon points="101.71 188.68 80.67 188.48 80.61 197.09 101.65 197.28 101.71 188.68" style="fill:none;stroke:#8d8d8d;stroke-miterlimit:10;stroke-width:1.1394455432891846px"/><polygon points="80.67 188.48 59.63 188.28 59.57 196.89 80.61 197.09 80.67 188.48" style="fill:none;stroke:#8d8d8d;stroke-miterlimit:10;stroke-width:1.1394455432891846px"/><line x1="101.87" y1="166.05" x2="112.62" y2="166.15" style="fill:none;stroke:#8d8d8d;stroke-miterlimit:10;stroke-width:1.1394455432891846px"/><line x1="101.71" y1="188.68" x2="112.46" y2="188.78" style="fill:none;stroke:#8d8d8d;stroke-miterlimit:10;stroke-width:1.1394455432891846px"/><line x1="49.51" y1="165.56" x2="60.26" y2="165.66" style="fill:none;stroke:#8d8d8d;stroke-miterlimit:10;stroke-width:1.1394455432891846px"/><line x1="49.35" y1="188.18" x2="60.1" y2="188.29" style="fill:none;stroke:#8d8d8d;stroke-miterlimit:10;stroke-width:1.1394455432891846px"/><line x1="49.43" y1="176.87" x2="69.78" y2="177.06" style="fill:none;stroke:#8d8d8d;stroke-miterlimit:10;stroke-width:1.1394455432891846px"/><line x1="91.72" y1="177.27" x2="112.54" y2="177.46" style="fill:none;stroke:#8d8d8d;stroke-miterlimit:10;stroke-width:1.1394455432891846px"/><line x1="59.57" y1="196.89" x2="59.51" y2="205.13" style="fill:none;stroke:#8d8d8d;stroke-miterlimit:10;stroke-width:1.1394455432891846px"/><line x1="80.61" y1="197.08" x2="80.55" y2="205.33" style="fill:none;stroke:#8d8d8d;stroke-miterlimit:10;stroke-width:1.1394455432891846px"/><line x1="101.65" y1="197.28" x2="101.59" y2="205.53" style="fill:none;stroke:#8d8d8d;stroke-miterlimit:10;stroke-width:1.1394455432891846px"/><line x1="70.09" y1="196.99" x2="70.03" y2="205.63" style="fill:none;stroke:#8d8d8d;stroke-miterlimit:10;stroke-width:1.1394455432891846px"/><line x1="91.58" y1="197.19" x2="91.52" y2="205.83" style="fill:none;stroke:#8d8d8d;stroke-miterlimit:10;stroke-width:1.1394455432891846px"/><line x1="59.91" y1="148.81" x2="59.85" y2="157.05" style="fill:none;stroke:#8d8d8d;stroke-miterlimit:10;stroke-width:1.1394455432891846px"/><line x1="80.95" y1="149" x2="80.89" y2="157.25" style="fill:none;stroke:#8d8d8d;stroke-miterlimit:10;stroke-width:1.1394455432891846px"/><line x1="101.99" y1="149.2" x2="101.93" y2="157.45" style="fill:none;stroke:#8d8d8d;stroke-miterlimit:10;stroke-width:1.1394455432891846px"/><line x1="70.43" y1="148.9" x2="70.37" y2="157.55" style="fill:none;stroke:#8d8d8d;stroke-miterlimit:10;stroke-width:1.1394455432891846px"/><line x1="91.92" y1="149.11" x2="91.86" y2="157.75" style="fill:none;stroke:#8d8d8d;stroke-miterlimit:10;stroke-width:1.1394455432891846px"/></g><polygon points="92.28 189.3 70.33 189.1 70.49 166.47 92.44 166.68 92.28 189.3" style="fill:none;stroke:#fff;stroke-miterlimit:10;stroke-width:1.1394455432891846px"/><polygon points="102.57 158.17 81.52 157.97 81.46 166.58 102.5 166.77 102.57 158.17" style="fill:none;stroke:#fff;stroke-miterlimit:10;stroke-width:1.1394455432891846px"/><polygon points="81.52 157.97 60.48 157.77 60.42 166.38 81.46 166.58 81.52 157.97" style="fill:none;stroke:#fff;stroke-miterlimit:10;stroke-width:1.1394455432891846px"/><polygon points="102.34 189.4 81.3 189.2 81.24 197.81 102.28 198 102.34 189.4" style="fill:none;stroke:#fff;stroke-miterlimit:10;stroke-width:1.1394455432891846px"/><polygon points="81.3 189.2 60.26 189 60.2 197.61 81.24 197.81 81.3 189.2" style="fill:none;stroke:#fff;stroke-miterlimit:10;stroke-width:1.1394455432891846px"/><line x1="102.5" y1="166.77" x2="113.25" y2="166.87" style="fill:none;stroke:#fff;stroke-miterlimit:10;stroke-width:1.1394455432891846px"/><line x1="102.34" y1="189.4" x2="113.09" y2="189.5" style="fill:none;stroke:#fff;stroke-miterlimit:10;stroke-width:1.1394455432891846px"/><line x1="50.15" y1="166.28" x2="60.9" y2="166.38" style="fill:none;stroke:#fff;stroke-miterlimit:10;stroke-width:1.1394455432891846px"/><line x1="49.99" y1="188.9" x2="60.74" y2="189.01" style="fill:none;stroke:#fff;stroke-miterlimit:10;stroke-width:1.1394455432891846px"/><line x1="50.07" y1="177.59" x2="70.41" y2="177.78" style="fill:none;stroke:#fff;stroke-miterlimit:10;stroke-width:1.1394455432891846px"/><line x1="92.36" y1="177.99" x2="113.17" y2="178.18" style="fill:none;stroke:#fff;stroke-miterlimit:10;stroke-width:1.1394455432891846px"/><line x1="60.2" y1="197.61" x2="60.14" y2="205.85" style="fill:none;stroke:#fff;stroke-miterlimit:10;stroke-width:1.1394455432891846px"/><line x1="81.24" y1="197.8" x2="81.18" y2="206.05" style="fill:none;stroke:#fff;stroke-miterlimit:10;stroke-width:1.1394455432891846px"/><line x1="102.28" y1="198" x2="102.22" y2="206.25" style="fill:none;stroke:#fff;stroke-miterlimit:10;stroke-width:1.1394455432891846px"/><line x1="70.72" y1="197.71" x2="70.66" y2="206.35" style="fill:none;stroke:#fff;stroke-miterlimit:10;stroke-width:1.1394455432891846px"/><line x1="92.21" y1="197.91" x2="92.15" y2="206.55" style="fill:none;stroke:#fff;stroke-miterlimit:10;stroke-width:1.1394455432891846px"/><line x1="60.54" y1="149.53" x2="60.48" y2="157.77" style="fill:none;stroke:#fff;stroke-miterlimit:10;stroke-width:1.1394455432891846px"/><line x1="81.58" y1="149.72" x2="81.52" y2="157.97" style="fill:none;stroke:#fff;stroke-miterlimit:10;stroke-width:1.1394455432891846px"/><line x1="102.62" y1="149.92" x2="102.56" y2="158.17" style="fill:none;stroke:#fff;stroke-miterlimit:10;stroke-width:1.1394455432891846px"/><line x1="71.06" y1="149.62" x2="71" y2="158.27" style="fill:none;stroke:#fff;stroke-miterlimit:10;stroke-width:1.1394455432891846px"/><line x1="92.55" y1="149.83" x2="92.49" y2="158.47" style="fill:none;stroke:#fff;stroke-miterlimit:10;stroke-width:1.1394455432891846px"/><polygon points="92.27 189.71 70.33 189.5 70.49 166.88 92.43 167.08 92.27 189.71" style="fill:none;stroke:#fff;stroke-miterlimit:10;stroke-width:1.1394455432891846px"/><polygon points="102.56 158.57 81.52 158.37 81.46 166.98 102.5 167.18 102.56 158.57" style="fill:none;stroke:#fff;stroke-miterlimit:10;stroke-width:1.1394455432891846px"/><polygon points="81.52 158.37 60.48 158.18 60.42 166.78 81.46 166.98 81.52 158.37" style="fill:none;stroke:#fff;stroke-miterlimit:10;stroke-width:1.1394455432891846px"/><polygon points="102.34 189.8 81.3 189.6 81.24 198.21 102.28 198.41 102.34 189.8" style="fill:none;stroke:#fff;stroke-miterlimit:10;stroke-width:1.1394455432891846px"/><polygon points="81.3 189.6 60.26 189.41 60.2 198.01 81.24 198.21 81.3 189.6" style="fill:none;stroke:#fff;stroke-miterlimit:10;stroke-width:1.1394455432891846px"/><line x1="102.5" y1="167.18" x2="113.25" y2="167.28" style="fill:none;stroke:#fff;stroke-miterlimit:10;stroke-width:1.1394455432891846px"/><line x1="102.34" y1="189.8" x2="113.09" y2="189.9" style="fill:none;stroke:#fff;stroke-miterlimit:10;stroke-width:1.1394455432891846px"/><line x1="50.15" y1="166.69" x2="60.9" y2="166.79" style="fill:none;stroke:#fff;stroke-miterlimit:10;stroke-width:1.1394455432891846px"/><line x1="49.99" y1="189.31" x2="60.74" y2="189.41" style="fill:none;stroke:#fff;stroke-miterlimit:10;stroke-width:1.1394455432891846px"/><line x1="50.07" y1="178" x2="70.41" y2="178.19" style="fill:none;stroke:#fff;stroke-miterlimit:10;stroke-width:1.1394455432891846px"/><line x1="92.35" y1="178.39" x2="113.17" y2="178.59" style="fill:none;stroke:#fff;stroke-miterlimit:10;stroke-width:1.1394455432891846px"/><line x1="60.2" y1="198.01" x2="60.14" y2="206.26" style="fill:none;stroke:#fff;stroke-miterlimit:10;stroke-width:1.1394455432891846px"/><line x1="81.24" y1="198.21" x2="81.18" y2="206.46" style="fill:none;stroke:#fff;stroke-miterlimit:10;stroke-width:1.1394455432891846px"/><line x1="102.28" y1="198.41" x2="102.22" y2="206.65" style="fill:none;stroke:#fff;stroke-miterlimit:10;stroke-width:1.1394455432891846px"/><line x1="70.72" y1="198.11" x2="70.66" y2="206.76" style="fill:none;stroke:#fff;stroke-miterlimit:10;stroke-width:1.1394455432891846px"/><line x1="92.21" y1="198.31" x2="92.15" y2="206.96" style="fill:none;stroke:#fff;stroke-miterlimit:10;stroke-width:1.1394455432891846px"/><line x1="60.54" y1="149.93" x2="60.48" y2="158.18" style="fill:none;stroke:#fff;stroke-miterlimit:10;stroke-width:1.1394455432891846px"/><line x1="81.58" y1="150.13" x2="81.52" y2="158.37" style="fill:none;stroke:#fff;stroke-miterlimit:10;stroke-width:1.1394455432891846px"/><line x1="102.62" y1="150.33" x2="102.56" y2="158.57" style="fill:none;stroke:#fff;stroke-miterlimit:10;stroke-width:1.1394455432891846px"/><line x1="71.06" y1="150.03" x2="71" y2="158.67" style="fill:none;stroke:#fff;stroke-miterlimit:10;stroke-width:1.1394455432891846px"/><line x1="92.55" y1="150.23" x2="92.49" y2="158.88" style="fill:none;stroke:#fff;stroke-miterlimit:10;stroke-width:1.1394455432891846px"/><g style="clip-path:url(#clip-path)"><polygon points="96.46 206.62 82.94 206.49 55 149.1 68.53 149.22 96.46 206.62" style="fill:#fff;opacity:0.5;isolation:isolate"/><polygon points="70.16 206.37 56.63 206.24 28.7 148.85 42.22 148.98 70.16 206.37" style="fill:#fff;opacity:0.5;isolation:isolate"/><polygon points="115.31 206.79 90.66 206.56 62.73 149.17 87.38 149.4 115.31 206.79" style="fill:#fff;opacity:0.75;isolation:isolate"/><polygon points="155.21 207.17 130.56 206.94 102.63 149.54 127.28 149.78 155.21 207.17" style="fill:#fff;opacity:0.75;isolation:isolate"/></g><path d="M164.72,192.9c-.09,13.07-9.37,23.58-20.72,23.47s-20.49-10.79-20.4-23.86S133,168.93,144.33,169,164.82,179.82,164.72,192.9Z" transform="translate(-49.05 -26)" style="fill:url(#Безымянный_градиент_4)"/><ellipse cx="69.77" cy="177.78" rx="20.56" ry="23.67" style="fill:url(#Безымянный_градиент_5)"/><ellipse cx="73.56" cy="179.45" rx="20.56" ry="23.67" style="fill:url(#Безымянный_градиент_6)"/><path d="M166.22,175.27c5,6-8.71,11.08-30.6,11.42s-43.68-4.21-48.68-10.17,8.71-11.08,30.6-11.42S161.22,169.31,166.22,175.27Z" transform="translate(-49.05 -26)" style="fill:url(#Безымянный_градиент_7)"/><path d="M163.19,212.57c5,6-8.71,11.07-30.6,11.42s-43.68-4.22-48.68-10.18,8.71-11.07,30.6-11.41S158.19,206.61,163.19,212.57Z" transform="translate(-49.05 -26)" style="fill:url(#Безымянный_градиент_8)"/><path d="M185,223.18c5,6-8.71,11.07-30.6,11.42s-43.68-4.22-48.68-10.18,8.7-11.07,30.6-11.41S180,217.22,185,223.18Z" transform="translate(-49.05 -26)" style="fill:url(#Безымянный_градиент_9)"/><path d="M172.42,214.6c5,6-8.71,11.07-30.6,11.42s-43.68-4.22-48.68-10.18,8.7-11.07,30.6-11.41S167.42,208.64,172.42,214.6Z" transform="translate(-49.05 -26)" style="fill:url(#Безымянный_градиент_10)"/><path d="M610.67,195.33c8,8,7,22.72,0,29.21" transform="translate(-49.05 -26)" style="fill:none;stroke:#eaeaea;stroke-linecap:round;stroke-linejoin:round;stroke-width:2.808309316635132px"/><path d="M618.68,189.05c11.39,11.45,10,32.49,0,41.77" transform="translate(-49.05 -26)" style="fill:none;stroke:#eaeaea;stroke-linecap:round;stroke-linejoin:round;stroke-width:2.808309316635132px"/><path d="M627.89,183.64c14.35,14.42,12.53,40.9,0,52.59" transform="translate(-49.05 -26)" style="fill:none;stroke:#eaeaea;stroke-linecap:round;stroke-linejoin:round;stroke-width:2.808309316635132px"/><ellipse cx="534.28" cy="336.16" rx="30.03" ry="28.02" style="fill:#e62c30"/><ellipse cx="570.98" cy="335.68" rx="30.41" ry="27.54" style="fill:#f5991d;stroke:#ef8300;stroke-miterlimit:10;stroke-width:0.4747346043586731px;opacity:0.75;isolation:isolate"/><g id="BOG_LOGO" data-name="BOG LOGO"><rect x="28.89" y="31.24" width="51.02" height="49.98" rx="16.65" style="fill:#fff;stroke:#e6dadb;stroke-miterlimit:10;stroke-width:3.2777867317199707px"/><path d="M85.29,94.26c0,.27.27.53.82.8a10.83,10.83,0,0,0,1.37.54h1.36a1.68,1.68,0,0,0,1.09-.27,3.93,3.93,0,0,0,1.1-.8c.54-.54.54-1.07.82-1.07s.27.53.82,1.33c.27.27.54.81,1.09.81h2.73c.27,0,.55-.27.82-.54l.55-.53c0-.27.27-.27.27-.54s0-.27.27-.53v-.81c0-.26-.27-.26-.54-.8s-.55-.8-.55-1.07v-.53c.27-.27.82,0,1.37,0a1.43,1.43,0,0,0,1.09-.54.9.9,0,0,0,.27-.53v-.8c-.27.26-.54.26-1.09.53a3.6,3.6,0,0,1-1.37.27s1.1-.27,1.37-1.07v-.8c0-.8-.27-1.07,0-1.34,0-.53.55-.53.55-.8a1.61,1.61,0,0,1,1.91,0,11,11,0,0,0,3.55.53,1.81,1.81,0,0,1,1.37.54,1.46,1.46,0,0,1,.82,1.34c.27.53.27.8.54,1.06a2.86,2.86,0,0,0,.27.81v2.4a3.29,3.29,0,0,0,.28,1.61c.27.8.27,1.07.54,1.33s.28.81.82,1.07a5.71,5.71,0,0,0,1.37.8,2.26,2.26,0,0,0,1.91.27c.28,0,.55,0,.55-.27l.82-.26.82-.8c.54-.54.54-.54.54-.81V94c0-.53-.27-.8-.54-.8,0-.27-.28-.54-.28-.8a2.4,2.4,0,0,1-.27-1.34c-.27-.8-.27-1.07,0-1.07h1.91a2.18,2.18,0,0,0,1.1-.53c.27-.27.54-.27.54-.54v-.53c0-.27,0-.8-.27-.8s-.55.26-.82.8c-.27.26-.82.26-1.09.53.54-.27,1.09-.53,1.09-1.07s0-.8-.27-1.07c-1.37-2.94,1.09-9.62,1.09-10.15a2.31,2.31,0,0,0,1.91.8c1.64,0,3.28-2.14,3.83-5.35a12.29,12.29,0,0,0-3.83-5.35,4.21,4.21,0,0,0-5.17-.81,6.09,6.09,0,0,0-1.91,1.87,3,3,0,0,1-.82,1.61l-1.09,1.07a34.26,34.26,0,0,1-4.37,2.67c-1.92.8-2.46,1.07-3,1.07a5.39,5.39,0,0,1-1.91.27,8.92,8.92,0,0,1-2.73,0c-1.1,0-1.37-.27-2.19-.27H95.4a7.26,7.26,0,0,0-4.92,1.6c-1.37,1.34-1.64,3.21-1.91,3.75a9.66,9.66,0,0,0,0,2.94,24.27,24.27,0,0,0,.54,2.67c.55,1.87.55,1.87.82,2.67a9.26,9.26,0,0,1,.55,3.21,2.82,2.82,0,0,1-.27,1.07,2.51,2.51,0,0,1-.82,1.34A1.8,1.8,0,0,1,88,94H86.93a1,1,0,0,0-.55-.27h-.27C85.56,93.46,85.29,93.72,85.29,94.26Z" transform="translate(-49.05 -26)" style="fill:#eb6222"/><path d="M92.67,83.3c.27,0-.55-1.34,0-2.67A2.12,2.12,0,0,1,94,79c.27-.27.82-.53,2.46-.53a6.67,6.67,0,0,1,3.55.8c1.64.8,2.19,1.6,4.1,3.74a25.81,25.81,0,0,0,3.89,3.5c-1.09-1.61-1.91-2.94-2.45-3.75-.28-.53-1.1-1.87-2.19-3.47A4.41,4.41,0,0,0,102,77.68a5.1,5.1,0,0,0-3.55-1.6,17.41,17.41,0,0,0-4.1.8c-1.63.8-2.18,1.87-2.18,2.14a3.43,3.43,0,0,0-.27,1.61A6,6,0,0,0,92.67,83.3Z" transform="translate(-49.05 -26)" style="fill:#fff"/><path d="M97.31,83.57c-.27,0-.55.26-1.09.8" transform="translate(-49.05 -26)" style="fill:#fff"/><path d="M96.22,84.37c-.28.26-.55.8-.82,1.07l-.28.53a6,6,0,0,0-.27,1v3l.27.8a2,2,0,0,0,.55,1.07c0,.27.82,1.07.82,1.07a14.06,14.06,0,0,1-.82-4.81,5.92,5.92,0,0,1,.27-1.87,3.57,3.57,0,0,1,.82-1.34,2.1,2.1,0,0,1,.82-.8,2.33,2.33,0,0,1,1.64-.53h1.37C100,83.57,99.5,83,99,83a3.15,3.15,0,0,0-1.91.54" transform="translate(-49.05 -26)" style="fill:#fff"/><path d="M113.16,88.38v1.87c0,.27,0,.27.27,1.07.27,1.07.27,1.07.54,1.33l.55.54c0,.27-.27.53-.55.8a2.3,2.3,0,0,1-1.63.54H111a2.79,2.79,0,0,0,1.37-1.07,11.19,11.19,0,0,0,.54-2.68A13.76,13.76,0,0,1,113.16,88.38Z" transform="translate(-49.05 -26)" style="fill:#fff"/><path d="M105,75.28a13.73,13.73,0,0,0,1.91,4.28A11.16,11.16,0,0,0,111,83a11.46,11.46,0,0,0,1.37.54,14.66,14.66,0,0,0,2.45.53A7.93,7.93,0,0,1,112.61,83l-1.37-.8a12.07,12.07,0,0,1-3.55-3.2,15.58,15.58,0,0,1-2.18-4.28c0-.26-.28-.26-.55,0a.36.36,0,0,0,0,.52A.08.08,0,0,0,105,75.28Z" transform="translate(-49.05 -26)" style="fill:#fff"/><path d="M109.06,75.28a19.51,19.51,0,0,0,2.73,3.47l1.64.81c1.09,0,1.64.26,2.18.26-.27-.26-.82-.26-1.36-.8-1.37-.8-2.73-1.34-3.83-2.94a8.82,8.82,0,0,1-1.64-3.21h-.54A10.88,10.88,0,0,0,109.06,75.28Z" transform="translate(-49.05 -26)" style="fill:#fff"/><path d="M111.79,71.27a4.93,4.93,0,0,1,.55,1.87A5,5,0,0,0,114,75a4.19,4.19,0,0,0,1.64.8,3,3,0,0,0,1.37.27c-.27-.27-.55-.27-1.09-.53s-.82-.54-1.1-.54a3.91,3.91,0,0,1-1.63-1.87,4.1,4.1,0,0,1-1.1-1.6.26.26,0,0,0-.25-.27h-.29C111.52,71,111.52,71.27,111.79,71.27Z" transform="translate(-49.05 -26)" style="fill:#fff"/><ellipse cx="54.54" cy="50.08" rx="0.27" ry="0.53" style="fill:#fff"/><ellipse cx="62.74" cy="53.82" rx="0.27" ry="0.53" style="fill:#fff"/><ellipse cx="55.36" cy="52.49" rx="0.27" ry="0.53" style="fill:#fff"/><ellipse cx="56.73" cy="54.89" rx="0.27" ry="0.53" style="fill:#fff"/><ellipse cx="58.37" cy="56.76" rx="0.27" ry="0.53" style="fill:#faf8f7"/><ellipse cx="60.55" cy="58.37" rx="0.27" ry="0.53" style="fill:#fff"/><ellipse cx="63.01" cy="59.44" rx="0.27" ry="0.53" style="fill:#fff"/><ellipse cx="65.47" cy="59.97" rx="0.27" ry="0.53" style="fill:#fff"/><ellipse cx="66.02" cy="55.96" rx="0.27" ry="0.53" style="fill:#fff"/><ellipse cx="63.29" cy="55.16" rx="0.27" ry="0.53" style="fill:#fff"/><ellipse cx="59.46" cy="51.15" rx="0.27" ry="0.53" style="fill:#fff"/><ellipse cx="58.37" cy="48.74" rx="0.27" ry="0.53" style="fill:#fff"/><ellipse cx="61.37" cy="46.61" rx="0.27" ry="0.53" style="fill:#fff"/><ellipse cx="62.74" cy="48.74" rx="0.27" ry="0.53" style="fill:#fff"/><ellipse cx="64.65" cy="50.62" rx="0.27" ry="0.53" style="fill:#fff"/><ellipse cx="66.84" cy="51.95" rx="0.27" ry="0.53" style="fill:#fff"/><ellipse cx="65.2" cy="46.34" rx="0.27" ry="0.53" style="fill:#fff"/><ellipse cx="66.56" cy="47.94" rx="0.27" ry="0.53" style="fill:#fff"/><ellipse cx="68.48" cy="48.74" rx="0.27" ry="0.53" style="fill:#fff"/><ellipse cx="70.39" cy="48.21" rx="0.27" ry="0.53" style="fill:#fff"/><ellipse cx="71.75" cy="46.87" rx="0.27" ry="0.53" style="fill:#fff"/><ellipse cx="66.02" cy="44.47" rx="0.27" ry="0.53" style="fill:#fff"/><ellipse cx="64.38" cy="44.47" rx="0.27" ry="0.53" style="fill:#fff"/><ellipse cx="64.38" cy="42.6" rx="0.27" ry="0.53" style="fill:#fff"/><circle cx="65.2" cy="40.99" r="0.27" style="fill:#fff"/><circle cx="66.56" cy="40.46" r="0.27" style="fill:#fff"/><circle cx="72.3" cy="43.93" r="0.27" style="fill:#fff"/><circle cx="73.67" cy="46.07" r="0.27" style="fill:#fff"/><circle cx="73.12" cy="46.87" r="0.27" style="fill:#fff"/><circle cx="72.85" cy="47.94" r="0.27" style="fill:#fff"/><circle cx="72.03" cy="48.74" r="0.27" style="fill:#fff"/><circle cx="71.48" cy="49.81" r="0.27" style="fill:#fff"/><circle cx="70.66" cy="50.62" r="0.27" style="fill:#fff"/><circle cx="72.57" cy="45.27" r="0.27" style="fill:#fff"/><ellipse cx="69.3" cy="43.93" rx="1.91" ry="1.87" style="fill:#fff"/><ellipse cx="69.84" cy="44.2" rx="1.09" ry="1.07" style="fill:#ec662c"/></g><path d="M652.62,31.4c13.47,0,24.44,11.23,24.44,25V385.15c0,13.8-11,25-24.44,25l-576.3.06c-13.48,0-24.44-11.22-24.45-25V56.47c0-13.81,11-25,24.44-25l576.3-.06h0m0-2.82h0l-576.3.06C61.25,28.65,49,41.12,49.05,56.51V385.25c0,15.38,12.21,27.84,27.27,27.84h0l576.3-.06c15.06,0,27.26-12.47,27.26-27.86V56.43c0-15.38-12.2-27.84-27.26-27.84Z" transform="translate(-49.05 -26)" style="fill:url(#Безымянный_градиент_11)"/><g style="opacity:0.6600000262260437"><path d="M651.82,410.46l-422.07.64L548.68,27.19,651.34,26c15.29,0,27.71,12.63,27.73,28.26l.41,327.86C679.5,397.76,667.11,410.44,651.82,410.46Z" transform="translate(-49.05 -26)" style="fill:url(#Безымянный_градиент_12)"/><path d="M651.82,410.46l-422.07.64L548.68,27.19,651.34,26c15.29,0,27.71,12.63,27.73,28.26l.41,327.86C679.5,397.76,667.11,410.44,651.82,410.46Z" transform="translate(-49.05 -26)" style="fill:url(#Безымянный_градиент_12)"/></g><rect x="0.01" y="2.61" width="630.42" height="382.49" rx="29.46" style="opacity:0.550000011920929;isolation:isolate;fill:url(#Безымянный_градиент_14)"/></g><g id="Text"><path d="M85.83,372.11l.51,1.16-2.79.92,1.69,2.2-1,.75-1.77-2.32-1.66,2.32-1.15-.75,1.66-2.2-2.71-.92.46-1.16,2.71,1v-2.74h1.36v2.74Z" transform="translate(-49.05 -26)" style="fill:#fff"/><path d="M94.83,372.11l.52,1.16-2.79.92,1.69,2.2-1,.75-1.77-2.32-1.66,2.32-1.15-.75,1.66-2.2-2.71-.92.46-1.16,2.71,1v-2.74H92.1v2.74Z" transform="translate(-49.05 -26)" style="fill:#fff"/><path d="M103.84,372.11l.52,1.16-2.79.92,1.68,2.2-1,.75-1.77-2.32-1.66,2.32-1.16-.75,1.67-2.2-2.71-.92.46-1.16,2.71,1v-2.74h1.35v2.74Z" transform="translate(-49.05 -26)" style="fill:#fff"/><path d="M112.85,372.11l.51,1.16-2.79.92,1.69,2.2-1.05.75-1.76-2.32-1.67,2.32-1.15-.75,1.67-2.2-2.72-.92.46-1.16,2.72,1v-2.74h1.35v2.74Z" transform="translate(-49.05 -26)" style="fill:#fff"/><path d="M121.86,372.11l.51,1.16-2.79.92,1.69,2.2-1,.75-1.76-2.32-1.67,2.32-1.15-.75,1.66-2.2-2.71-.92.46-1.16,2.72,1v-2.74h1.35v2.74Z" transform="translate(-49.05 -26)" style="fill:#fff"/><path d="M127.69,372.57l-1,4.93v.05a3.46,3.46,0,0,1,1.53-.93,5.83,5.83,0,0,1,1.85-.3,7.39,7.39,0,0,1,2.28.36,5.06,5.06,0,0,1,1.87,1.1,5.37,5.37,0,0,1,1.25,1.84,6.7,6.7,0,0,1,.46,2.58,5.94,5.94,0,0,1-.39,2.12,5.37,5.37,0,0,1-3.19,3.09,8,8,0,0,1-5,.15,5.61,5.61,0,0,1-1.83-.95,4.31,4.31,0,0,1-1.25-1.53,4.85,4.85,0,0,1-.49-2.08H126a3.22,3.22,0,0,0,.34,1.22,3.36,3.36,0,0,0,.8,1,3.45,3.45,0,0,0,1.17.65,4.48,4.48,0,0,0,1.5.23,4.33,4.33,0,0,0,1.47-.25,3.34,3.34,0,0,0,1.23-.76,3.59,3.59,0,0,0,.83-1.27,4.7,4.7,0,0,0,.31-1.78,4,4,0,0,0-.3-1.56,3.35,3.35,0,0,0-.83-1.23,3.88,3.88,0,0,0-1.29-.82,4.61,4.61,0,0,0-1.68-.29,3.94,3.94,0,0,0-1.9.45,5.07,5.07,0,0,0-1.47,1.17l-1.87-.09,1.69-8.91h9v1.82Z" transform="translate(-49.05 -26)" style="fill:#fff"/><path d="M141.72,385.42a3.77,3.77,0,0,0,2.25.67,3.29,3.29,0,0,0,3-1.63,10.56,10.56,0,0,0,1.1-5h0a4.48,4.48,0,0,1-1.75,1.73,5,5,0,0,1-2.45.64,6.45,6.45,0,0,1-2.46-.43,4.88,4.88,0,0,1-1.8-1.17,4.63,4.63,0,0,1-1.1-1.81,7.1,7.1,0,0,1-.37-2.33,5.86,5.86,0,0,1,.43-2.26,5.18,5.18,0,0,1,1.23-1.77,5.82,5.82,0,0,1,1.89-1.15,6.82,6.82,0,0,1,2.41-.41,7.49,7.49,0,0,1,2.4.38,4.59,4.59,0,0,1,2,1.29,6.52,6.52,0,0,1,1.35,2.51,13.85,13.85,0,0,1,.5,4,12.87,12.87,0,0,1-1.5,6.83,5.24,5.24,0,0,1-4.8,2.39,6.31,6.31,0,0,1-3.79-1.09,4.38,4.38,0,0,1-1.71-3.32h2.17A2.62,2.62,0,0,0,141.72,385.42Zm5.72-10.72a3.55,3.55,0,0,0-.72-1.25,3.38,3.38,0,0,0-1.16-.86,3.88,3.88,0,0,0-1.61-.31,3.62,3.62,0,0,0-1.65.34,3,3,0,0,0-1.11.9,3.88,3.88,0,0,0-.61,1.3,6,6,0,0,0-.19,1.52,3.51,3.51,0,0,0,.27,1.36,3.82,3.82,0,0,0,.74,1.16,3.5,3.5,0,0,0,1.13.81,3.38,3.38,0,0,0,1.44.3,3.88,3.88,0,0,0,1.54-.3,3.56,3.56,0,0,0,1.92-2,4.16,4.16,0,0,0,.25-1.44A4.42,4.42,0,0,0,147.44,374.7Z" transform="translate(-49.05 -26)" style="fill:#fff"/><path d="M157.25,377.84H158a4.89,4.89,0,0,0,1.32-.18,3.5,3.5,0,0,0,1.1-.53,2.55,2.55,0,0,0,1-2.09,2.41,2.41,0,0,0-.93-2.07,3.72,3.72,0,0,0-2.3-.69,3.62,3.62,0,0,0-1.52.3,2.88,2.88,0,0,0-1.08.81,3.23,3.23,0,0,0-.62,1.19,4.88,4.88,0,0,0-.21,1.42H152.6a7.17,7.17,0,0,1,.42-2.25,4.94,4.94,0,0,1,1.06-1.74,4.88,4.88,0,0,1,1.73-1.14,6.68,6.68,0,0,1,2.39-.41,8.49,8.49,0,0,1,2.19.28,5.24,5.24,0,0,1,1.75.84,3.84,3.84,0,0,1,1.17,1.42,4.73,4.73,0,0,1,.42,2.06,3.21,3.21,0,0,1-.72,2.06,4.5,4.5,0,0,1-1.79,1.35h0a3.81,3.81,0,0,1,2.47,1.48,4.48,4.48,0,0,1,.81,2.68,4.91,4.91,0,0,1-.5,2.26,4.76,4.76,0,0,1-1.35,1.64,5.88,5.88,0,0,1-2,1,8.62,8.62,0,0,1-2.42.33,8.21,8.21,0,0,1-2.51-.37,5.21,5.21,0,0,1-1.92-1.08,4.75,4.75,0,0,1-1.21-1.75,6,6,0,0,1-.4-2.37h2.18a4,4,0,0,0,1,2.72,3.67,3.67,0,0,0,2.84,1,4.58,4.58,0,0,0,1.51-.23,4,4,0,0,0,1.26-.65,3.15,3.15,0,0,0,.85-1,2.93,2.93,0,0,0,.32-1.39,3.15,3.15,0,0,0-.3-1.42,3.43,3.43,0,0,0-.82-1,3.55,3.55,0,0,0-1.22-.63,6,6,0,0,0-1.52-.2,11.38,11.38,0,0,0-1.31.07v-1.74A.82.82,0,0,0,157.25,377.84Z" transform="translate(-49.05 -26)" style="fill:#fff"/><path d="M172.61,387.62V375.33H167.9v-1.65a11.88,11.88,0,0,0,1.79-.13,5.2,5.2,0,0,0,1.58-.5,3.48,3.48,0,0,0,1.19-1,3.71,3.71,0,0,0,.66-1.6h1.67v17.16Z" transform="translate(-49.05 -26)" style="fill:#fff"/></g></g></g><line id="LINE-3" x1="340.51" y1="9.7" x2="393.21" y2="384.78" style="fill:#f9f9f9;stroke:#d8e0df;stroke-miterlimit:10;stroke-width:5.052999973297119px"/><line id="LINE-2" x1="340.51" y1="9.7" x2="630.43" y2="280.16" style="stroke:#ff2d20;stroke-miterlimit:10;stroke-width:5.526547312325009px"/><line id="LINE-1" x1="224.05" y1="387.2" x2="624.75" y2="18.76" style="fill:none;stroke:#ff2d20;stroke-miterlimit:10;stroke-width:3.6843648748833404px"/><g id="liberty"><polyline id="L" points="427.77 28.93 433.35 28.93 433.35 51.12 443.4 50.98 443.4 56.6 427.77 56.69" style="fill:#fff"/><polyline id="I" points="448.81 28.93 455.11 28.93 455.11 56.69 448.81 56.69 448.81 28.93" style="fill:#fff"/><path id="B" d="M508.87,55.43l7.62.19a9.07,9.07,0,0,1,5.8,1.83A7.1,7.1,0,0,1,525,61.1c1.09,3.88-1.75,7.23-2,7.57a8.43,8.43,0,0,1,3.93,5.75A7.93,7.93,0,0,1,524.93,81a7.75,7.75,0,0,1-4.87,2.29h-6.37v-6.6h5.16a2.37,2.37,0,0,0,1.69-2.08,2.69,2.69,0,0,0-1.69-3l-5.19-.15V66l5.19-.15A3.13,3.13,0,0,0,520.11,63a2.9,2.9,0,0,0-1.48-2.48l-9.72.14C508.89,58.94,508.88,57.19,508.87,55.43Z" transform="translate(-49.05 -26)" style="fill:#ff2d20"/><polyline id="E" points="483.38 28.93 500.28 28.93 500.28 34.58 489.68 34.58 489.68 38.81 500.28 38.81 500.28 45.45 489.39 45.37 489.46 49.81 500.28 49.81 500.28 56.69 483.38 56.69 483.38 28.93" style="fill:#fff"/><path id="R" d="M554.28,54.6s.87-.08,4.29,0c2.15,0,3.08,0,5.94.19a8.55,8.55,0,0,1,1.46.25,8.37,8.37,0,0,1,1.72.68A8.94,8.94,0,0,1,571,58.34a8.09,8.09,0,0,1,1.35,2.93,8.89,8.89,0,0,1,0,3.6,10.76,10.76,0,0,1-.93,3.32,7.78,7.78,0,0,1-2,2.74,7.08,7.08,0,0,1-2.21,1.29l5.64,10.38H566l-4.07-9.33-3.55,0-.11-5.89,5.3,0a3.26,3.26,0,0,0,2.1-3.07,3.42,3.42,0,0,0-2.1-3.56H554.3Z" transform="translate(-49.05 -26)" style="fill:#fff"/><polyline id="T" points="528.12 28.93 548.44 28.93 548.44 34.98 541.7 34.98 541.59 57.28 535.07 57.28 535.07 34.55 528.12 34.7 528.12 28.93" style="fill:#fff"/><polyline id="Y" points="552.97 28.93 560.03 28.93 565.12 38.15 570.64 28.93 577.82 28.93 568.52 44.92 568.52 57.28 561.9 57.28 561.9 45.93" style="fill:#fff"/><line id="Y-2" data-name="Y" x1="552.97" y1="28.93" x2="561.9" y2="45.93" style="fill:#fff"/></g><g id="CREDO_LOGO" data-name="CREDO LOGO"><path d="M122.59,82.74c.45,3.05-.37,4.09-.83,4.53-1.63,1.56-4,.57-5.56,2.08-1.77,1.7.16,4-1.59,6-.47.54-1.46,1.36-4.68,1.89-3.73.61-11,1.8-17.26-2.42,0,0-7.54-5-6.5-14.3.27-2.45,1.3-3.27,1.63-3.51,1.88-1.35,4.12-.21,5.88-1.38,2.12-1.4.31-4,1.82-5.91,2.61-3.31,14.07-3.14,20.93,1.94A15.76,15.76,0,0,1,122.59,82.74Z" transform="translate(-49.05 -26)" style="fill:#fff"/><path d="M83.78,68a22.8,22.8,0,0,0-4.62,7.62,20.27,20.27,0,0,0,2.37,18.52c5,7.11,13.1,9.48,15.53,10.16a35.75,35.75,0,0,0,17.13.4v-4.11a27.93,27.93,0,0,1-8.19.93,28.82,28.82,0,0,1-18.92-8.45c-1.21-1.52-5.28-7-4-14.28a18.29,18.29,0,0,1,4-8.39l4.57,2.92L91.7,64l-12.2.27Z" transform="translate(-49.05 -26)" style="fill:#fff"/><path d="M117.63,101.62l.12-10.22,4.84,3.54a17.31,17.31,0,0,0,4.67-8.26,16.17,16.17,0,0,0-1.78-11.24,20.63,20.63,0,0,0-8.89-9c-9.4-4.92-19.94-1.66-21.28-1.22v-3.9c1.64-.5,12.59-3.71,23.19,1.38a24.29,24.29,0,0,1,12,12.22,18.09,18.09,0,0,1,1.39,12.59,20.13,20.13,0,0,1-6.42,9.79l4.92,4.36Z" transform="translate(-49.05 -26)" style="fill:#fff"/></g><g id="credo-text"><path d="M162,95.08a9.17,9.17,0,0,1-5.59-1.71,10.81,10.81,0,0,1-3.58-4.75,20.8,20.8,0,0,1,0-14.15,10.76,10.76,0,0,1,3.58-4.75A9.17,9.17,0,0,1,162,68a9,9,0,0,1,6.27,2.25,12.08,12.08,0,0,1,3.52,6l-3.67,1.21a8.06,8.06,0,0,0-2.16-4,5.58,5.58,0,0,0-4-1.43,5.64,5.64,0,0,0-3.65,1.17,7.08,7.08,0,0,0-2.19,3.29,15.46,15.46,0,0,0-.75,5,15.18,15.18,0,0,0,.73,5,7,7,0,0,0,2.2,3.3A5.69,5.69,0,0,0,162,91a5.54,5.54,0,0,0,4-1.44,8.16,8.16,0,0,0,2.16-4l3.67,1.21a12.13,12.13,0,0,1-3.52,6A9,9,0,0,1,162,95.08Z" transform="translate(-49.05 -26)" style="fill:#fff"/><path d="M175.07,94.53v-26h9l.82,0a6.22,6.22,0,0,1,.92.12,6,6,0,0,1,3.12,1.5,7,7,0,0,1,1.83,2.91,12,12,0,0,1,.6,3.91A10.52,10.52,0,0,1,190,82.47a5.8,5.8,0,0,1-4.12,2.83l-1.56.16h-5.6v9.07Zm3.65-13.13h5.19a5.6,5.6,0,0,0,.68,0,2.89,2.89,0,0,0,.7-.14,2.73,2.73,0,0,0,1.43-1,4.36,4.36,0,0,0,.74-1.55,7.2,7.2,0,0,0,.22-1.69,7.29,7.29,0,0,0-.22-1.71,4.5,4.5,0,0,0-.74-1.56,2.73,2.73,0,0,0-1.43-1,2.9,2.9,0,0,0-.7-.13l-.68,0h-5.19Zm8.85,13.13L183.28,84l3.7-1,4.72,11.54Z" transform="translate(-49.05 -26)" style="fill:#fff"/><path d="M195,94.53v-26h14v4.08H198.66V79h8.6v4.07h-8.6v7.35h10.41v4.07Z" transform="translate(-49.05 -26)" style="fill:#fff"/><path d="M212.7,94.53v-26h6.93l1.08,0a13.29,13.29,0,0,1,1.57.13,7.59,7.59,0,0,1,4.37,2.19,11.49,11.49,0,0,1,2.72,4.57,20.55,20.55,0,0,1,0,12.16,11.46,11.46,0,0,1-2.72,4.58,7.59,7.59,0,0,1-4.37,2.19,15.14,15.14,0,0,1-1.56.13h-8Zm3.7-4.09h3.23c.31,0,.69,0,1.16,0a7.32,7.32,0,0,0,1.25-.16,4.19,4.19,0,0,0,2.5-1.64A8.58,8.58,0,0,0,226,85.44a16,16,0,0,0,.46-3.9,16.37,16.37,0,0,0-.46-4,8.66,8.66,0,0,0-1.45-3.12,4.27,4.27,0,0,0-2.48-1.6,5.17,5.17,0,0,0-1.25-.17l-1.16,0H216.4Z" transform="translate(-49.05 -26)" style="fill:#fff"/><path d="M243.07,95.08a9.17,9.17,0,0,1-5.59-1.71,10.8,10.8,0,0,1-3.57-4.75,20.65,20.65,0,0,1,0-14.15,10.74,10.74,0,0,1,3.57-4.75,10,10,0,0,1,11.19,0,10.68,10.68,0,0,1,3.58,4.75,20.65,20.65,0,0,1,0,14.15,10.74,10.74,0,0,1-3.58,4.75A9.22,9.22,0,0,1,243.07,95.08Zm0-4.1a5.58,5.58,0,0,0,3.65-1.15,7.14,7.14,0,0,0,2.19-3.31,15.28,15.28,0,0,0,.73-5,15,15,0,0,0-.73-5,7.07,7.07,0,0,0-2.19-3.27,5.72,5.72,0,0,0-3.65-1.21,5.55,5.55,0,0,0-3.64,1.15,7,7,0,0,0-2.18,3.3,15.27,15.27,0,0,0-.74,5,15.07,15.07,0,0,0,.73,5,7,7,0,0,0,2.18,3.27A5.78,5.78,0,0,0,243.07,91Z" transform="translate(-49.05 -26)" style="fill:#fff"/><path d="M262.56,94.53v-26h8.63a5.91,5.91,0,0,1,3.62,1.06,6.36,6.36,0,0,1,2.1,2.7,8.64,8.64,0,0,1,.69,3.39,7.23,7.23,0,0,1-.86,3.64,4.29,4.29,0,0,1-2.32,2v-.9a5,5,0,0,1,3.12,2.33,7.65,7.65,0,0,1,1.07,4,10.26,10.26,0,0,1-.74,4,6,6,0,0,1-2.2,2.71,6.32,6.32,0,0,1-3.6,1Zm3.69-15.6h4.9a2.73,2.73,0,0,0,1.4-.36,2.55,2.55,0,0,0,1-1.07,3.75,3.75,0,0,0,.37-1.73,3.49,3.49,0,0,0-.73-2.25,2.43,2.43,0,0,0-2-.91h-4.9Zm0,11.51h5.36a3.16,3.16,0,0,0,2.9-1.76,4.39,4.39,0,0,0,.43-2,4.51,4.51,0,0,0-.38-1.88,3.19,3.19,0,0,0-1.1-1.33,3,3,0,0,0-1.74-.49h-5.47Z" transform="translate(-49.05 -26)" style="fill:#fff"/><path d="M280.12,94.53l6.86-26h5.34l6.86,26h-3.75L289.2,71.22H290l-6.15,23.31Zm3.82-5.62V84.85h11.43v4.06Z" transform="translate(-49.05 -26)" style="fill:#fff"/><path d="M301.89,94.53v-26h3.69l10.1,18.32V68.55h3.68v26h-3.68l-10.1-18.31V94.53Z" transform="translate(-49.05 -26)" style="fill:#fff"/><path d="M323.59,94.53v-26h3.64V80.61l8.69-12.06h4.48L331,81.29l10,13.24h-4.62l-9.18-12.12V94.53Z" transform="translate(-49.05 -26)" style="fill:#fff"/></g><g id="tbc_logo" data-name="tbc logo"><path d="M84.09,93.45q3.22-5.81,6.85-11.83,4.68-7.78,9.38-14.81c.25-.16.58-.31.81-.19.54.3,0,1.95-.48,4.77a54.09,54.09,0,0,0-.59,5.47,24.26,24.26,0,0,0,0,3.94,19.92,19.92,0,0,0,.67,3.36,4.44,4.44,0,0,1-.78,2.38,4.38,4.38,0,0,1-1.1,1c-2.28,1.55-2.75,2.37-5.6,4A35.74,35.74,0,0,1,85.06,95a1.57,1.57,0,0,1-.72-.55A1.5,1.5,0,0,1,84.09,93.45Z" transform="translate(-49.05 -26)" style="fill:#fff"/><path d="M102.29,87.73a5,5,0,0,1,1.28-.31,7.72,7.72,0,0,1,.8,0,14.57,14.57,0,0,1,3.28,1c1.5.61,1.11.38,2.45.94a35.81,35.81,0,0,1,8.1,4.53,8.47,8.47,0,0,1,.86.75,1.68,1.68,0,0,1,.51.71,1.09,1.09,0,0,1-.81,1.35c-5,.38-10.31.63-16,.64-6.17,0-12-.23-17.31-.64a.34.34,0,0,1-.23-.29.33.33,0,0,1,.23-.34,41.56,41.56,0,0,0,16.81-8.3Z" transform="translate(-49.05 -26)" style="fill:#fff"/><path d="M120.23,94.13a64.38,64.38,0,0,0-7.94-5.56,65.17,65.17,0,0,0-7.75-3.93,2.94,2.94,0,0,1-1.69-1.92,33.32,33.32,0,0,1-.69-15,1.35,1.35,0,0,1,2.46-.39c.79,1,1.91,2.38,3.17,4.14a86.11,86.11,0,0,1,5.51,8.85c1.68,3,4.14,7.31,7.49,12.93.23.5.14.93-.07,1S120.29,94.17,120.23,94.13Z" transform="translate(-49.05 -26)" style="fill:#fff"/><path d="M83.18,118" transform="translate(-49.05 -26)" style="fill:#fff"/><path d="M113.43,87.52" transform="translate(-49.05 -26)" style="fill:#fff"/></g><path d="M559.87-11.6" transform="translate(-49.05 -26)" style="fill:#fff"/></svg>