<?xml version="1.0" encoding="utf-8"?>
<!-- Generator: Adobe Illustrator 24.0.1, SVG Export Plug-In . SVG Version: 6.00 Build 0)  -->
<svg version="1.1" id="Слой_1" xmlns="http://www.w3.org/2000/svg" xmlns:xlink="http://www.w3.org/1999/xlink" x="0px" y="0px"
	 viewBox="0 0 290.2 183.7" style="enable-background:new 0 0 290.2 183.7;" xml:space="preserve">
<style type="text/css">
	.st0{fill:#4F4F4F;}
	.st1{fill:#EEE9EF;}
	.st2{fill:#5B5B5B;}
	.st3{fill:#1E1E1E;}
	.st4{fill:#0049B1;}
	.st5{opacity:0.7;}
	.st6{fill:#A50914;}
	.st7{fill:#D5BFD4;}
</style>
<title>card</title>
<g id="CARD">
	<path class="st0" d="M268.7,151.1c0,5.8-5.2,10.5-11.7,10.5H34.3c-6.4,0-11.7-4.7-11.7-10.5V35.2c0-5.8,5.2-10.5,11.7-10.5h222.8
		c6.4,0,11.7,4.7,11.7,10.5V151.1z M267.8,10.8h-247c-7.1-0.1-12.9,5.6-13,12.7c0,0,0,0,0,0v140.8c0.1,7.1,5.9,12.8,13,12.7
		c0,0,0,0,0,0h247c7.1,0.1,12.9-5.6,13-12.7c0,0,0,0,0,0V23.5C280.7,16.4,274.9,10.7,267.8,10.8C267.8,10.8,267.8,10.8,267.8,10.8z"
		/>
	<path id="Georgia" class="st1" d="M18.4,4.3h251.9c7.3,0,13.2,5.9,13.2,13.2v146.4c0,7.3-5.9,13.2-13.2,13.2H18.4
		c-7.3,0-13.2-5.9-13.2-13.2V17.5C5.2,10.2,11.1,4.3,18.4,4.3z"/>
	<path class="st2" d="M114.6,77.5v5.8h-0.2l-3.9-5.8l0,0v5.5h1v0.2h-2.1v-0.2h0.9v-5.5h-0.9v-0.2h2.3l2.8,4.1l0,0v-3.9h-1v-0.2h2.1
		v0.2H114.6z"/>
	<path class="st2" d="M118.6,81.2v-0.4c0-0.2,0-0.5-0.1-0.7c-0.1-0.1-0.2-0.2-0.5-0.2c-0.5,0-0.7,0.1-0.7,0.3c0,0.1,0,0.1,0.1,0.2
		c0,0.1,0.1,0.1,0.1,0.2c0,0.1,0,0.2-0.1,0.3c-0.1,0.1-0.2,0.1-0.3,0.1c-0.1,0-0.2,0-0.3-0.1c-0.1-0.1-0.1-0.2-0.1-0.3
		c0-0.3,0.2-0.5,0.4-0.6c0.4-0.2,0.8-0.3,1.1-0.2c0.3,0,0.6,0,0.9,0.1c0.2,0.1,0.3,0.2,0.3,0.3c0.1,0.2,0.1,0.4,0.1,0.6v1.6
		c0,0.1,0,0.3,0,0.4c0,0.1,0.1,0.1,0.2,0.1c0.1,0,0.2-0.1,0.3-0.2h0.1c0,0.4-0.4,0.7-0.7,0.7c0,0,0,0,0,0l0,0
		c-0.4,0-0.6-0.2-0.7-0.7c-0.3,0.4-0.7,0.7-1.2,0.7c-0.3,0-0.5-0.1-0.7-0.2c-0.2-0.2-0.3-0.4-0.3-0.6
		C116.3,81.6,117.1,81.2,118.6,81.2z M118.6,81.8v-0.5c-0.4,0-0.7,0.1-1.1,0.2c-0.2,0.2-0.3,0.4-0.3,0.6c0,0.2,0,0.3,0.2,0.5
		c0.1,0.1,0.2,0.2,0.4,0.2c0.2,0,0.3-0.1,0.5-0.2c0.1-0.1,0.2-0.2,0.3-0.3C118.5,82.2,118.6,82,118.6,81.8z"/>
	<path class="st2" d="M121.3,82.9v-3h-0.6v-0.2h0.4c0.4,0,0.7,0,1.1-0.1v0.8l0,0c0.2-0.5,0.7-0.9,1.2-0.8c0.5-0.1,1,0.3,1.1,0.8
		c0,0,0,0,0,0c0,0,0,0.1,0,0.1l0,0c0.2-0.6,0.7-0.9,1.3-0.9c0.2,0,0.5,0.1,0.7,0.2c0.2,0.1,0.3,0.3,0.3,0.5c0.1,0.3,0.1,0.6,0.1,0.9
		v1.8h0.6v0.2h-2.1v-0.2h0.7v-2.2c0-0.2,0-0.5-0.1-0.7c0-0.1-0.1-0.2-0.3-0.2c-0.3,0-0.6,0.2-0.7,0.4c-0.3,0.5-0.4,1-0.4,1.5v1.1
		h0.5v0.2h-2v-0.2h0.6v-1.7c0-0.4,0-0.8-0.1-1.2c-0.1-0.1-0.2-0.2-0.3-0.2c-0.3,0-0.5,0.1-0.7,0.3c-0.2,0.2-0.3,0.4-0.3,0.6
		c-0.1,0.3-0.1,0.7-0.1,1v1.1h0.6v0.2h-2v-0.2L121.3,82.9z"/>
	<path class="st2" d="M131.2,81.1H129c-0.1,0.5,0,1.1,0.1,1.6c0.1,0.2,0.4,0.3,0.6,0.3c0.6,0,1.1-0.5,1.2-1h0.2
		c-0.1,0.4-0.2,0.7-0.5,1c-0.3,0.2-0.6,0.3-0.9,0.3c-0.5,0-0.9-0.2-1.2-0.5c-0.4-0.4-0.5-0.9-0.5-1.4c0-0.5,0.2-1,0.5-1.3
		c0.3-0.3,0.7-0.5,1.2-0.5c0.4,0,0.7,0.2,1,0.4C131,80.3,131.2,80.7,131.2,81.1z M129,80.9h1.3c0-0.2,0-0.3,0-0.5
		c0-0.5-0.2-0.7-0.6-0.7c-0.2,0-0.4,0.1-0.5,0.2c-0.1,0.1-0.2,0.3-0.2,0.5L129,80.9z"/>
	<path class="st3" d="M109.8,88.1h1.1l1.8,3.3l0.6,1.2l0,0c0-0.6-0.1-1.3-0.1-2v-2.6h1V94h-1.1l-1.8-3.3l-0.6-1.3l0,0
		c0.1,0.6,0.1,1.3,0.1,2V94h-1V88.1z"/>
	<path class="st3" d="M118.4,92.4h-2L116,94h-1.1l1.9-5.9h1.2L120,94h-1.1L118.4,92.4z M118.2,91.6l-0.2-0.7c-0.2-0.6-0.4-1.3-0.5-2
		l0,0c-0.2,0.7-0.3,1.3-0.5,2l-0.2,0.7H118.2z"/>
	<path class="st3" d="M120.7,88.1h1.1L123,91l0.4,1.1l0,0l0.4-1.1l1-2.9h1.2V94h-1v-2.7c0-0.5,0.1-1.3,0.1-1.9l0,0l-0.5,1.3l-1,2.7
		h-0.5l-1-2.7l-0.5-1.3l0,0c0,0.5,0.1,1.3,0.1,1.9V94h-1L120.7,88.1z"/>
	<path class="st3" d="M127.5,88.1h3.5V89h-2.5v1.5h2.1v0.9h-2.1v1.7h2.6V94h-3.6L127.5,88.1z"/>
	<path class="st3" d="M134.4,92.5c0.4,0.4,1,0.6,1.5,0.7c0.7,0,1-0.3,1-0.8s-0.4-0.6-0.9-0.9l-0.8-0.3c-0.7-0.2-1.2-0.8-1.2-1.6
		c0.1-1,1-1.7,2-1.6c0,0,0,0,0,0l0,0c0.7,0,1.3,0.3,1.8,0.7l-0.5,0.7c-0.4-0.3-0.8-0.5-1.3-0.5c-0.6,0-0.9,0.3-0.9,0.7
		c0,0.4,0.4,0.6,0.9,0.8l0.8,0.3c0.7,0.2,1.2,0.9,1.2,1.6c0,1-0.8,1.7-2.1,1.7c-0.8,0-1.6-0.3-2.1-0.9L134.4,92.5z"/>
	<path class="st3" d="M139.1,88.1h1v3.4c0,1.3,0.5,1.7,1.2,1.7c0.7,0,1.2-0.4,1.2-1.7v-3.4h1v3.3c0,1.9-0.9,2.7-2.2,2.7
		c-1.4,0-2.2-0.8-2.2-2.7L139.1,88.1z"/>
	<path class="st3" d="M148.2,94l-1.2-2.3h-0.9V94H145v-5.9h2c1.2,0,2.2,0.4,2.2,1.8c0,0.8-0.4,1.5-1.2,1.7l1.4,2.5H148.2z
		 M146.1,90.9h0.8c0.8,0,1.2-0.3,1.2-1c0-0.6-0.4-0.9-1.2-0.9h-0.8V90.9z"/>
	<path class="st3" d="M150.4,88.1h1.1l1.8,3.3l0.6,1.2l0,0c-0.1-0.6-0.1-1.3-0.1-2v-2.6h1V94h-1.1l-1.7-3.3l-0.6-1.3l0,0
		c0,0.6,0.1,1.3,0.1,2V94h-1L150.4,88.1z"/>
	<path class="st3" d="M159.1,92.4h-2l-0.5,1.6h-1l1.9-5.9h1.2l1.9,5.9h-1.1L159.1,92.4z M158.9,91.6l-0.2-0.7
		c-0.2-0.6-0.4-1.3-0.5-2l0,0c-0.2,0.7-0.3,1.3-0.5,2l-0.2,0.7H158.9z"/>
	<path class="st3" d="M161.4,88.1h1.2l1.1,2.9l0.4,1.1l0,0l0.4-1.1l1-2.9h1.2V94h-1v-2.7c0-0.5,0.1-1.3,0.1-1.9l0,0l-0.5,1.3l-1,2.7
		h-0.5l-1-2.7l-0.5-1.3l0,0c0.1,0.5,0.1,1.3,0.1,1.9V94h-1L161.4,88.1z"/>
	<path class="st3" d="M168.1,88.1h3.6V89h-2.5v1.5h2.1v0.9h-2.1v1.7h2.6V94h-3.6L168.1,88.1z"/>
	<path class="st2" d="M112.8,108.8h-1.9l-0.6,1.6h1.1v0.2h-2.1v-0.2h0.8l2.1-5.8h0.1l2.1,5.8h0.8v0.2h-2.8v-0.2h1L112.8,108.8z
		 M111,108.6h1.7l-0.8-2.4l0,0L111,108.6z"/>
	<path class="st2" d="M119.4,104.7v5.8h0.6v0.2h-0.5c-0.3,0-0.7,0-1,0V110l0,0c-0.2,0.5-0.6,0.8-1.1,0.8c-0.4,0-0.8-0.2-1.1-0.6
		c-0.3-0.3-0.5-0.8-0.5-1.2c0-0.5,0.2-1,0.5-1.3c0.3-0.4,0.7-0.6,1.2-0.6c0.4,0,0.8,0.2,1,0.6l0,0V105h-0.8v-0.2h0.8
		C118.8,104.8,119.1,104.7,119.4,104.7z M117.5,107.3c-0.3,0-0.5,0.1-0.6,0.4c-0.1,0.5-0.1,1-0.1,1.4c0,0.4,0,0.8,0.2,1.2
		c0.1,0.2,0.3,0.3,0.5,0.2c0.2,0,0.5-0.1,0.7-0.3c0.2-0.1,0.3-0.3,0.4-0.6c0.1-0.3,0.1-0.7,0.1-1c0-0.4-0.1-0.7-0.3-1
		C118.1,107.5,117.8,107.3,117.5,107.3z"/>
	<path class="st2" d="M124.2,104.7v5.8h0.6v0.2h-0.5c-0.3,0-0.7,0-1,0V110l0,0c-0.2,0.5-0.6,0.8-1.1,0.8c-0.4,0-0.8-0.2-1.1-0.6
		c-0.3-0.3-0.5-0.8-0.5-1.2c0-0.5,0.2-1,0.5-1.3c0.3-0.3,0.7-0.6,1.2-0.6c0.4,0,0.8,0.2,1,0.6l0,0V105h-0.8v-0.2h0.8
		C123.6,104.8,123.9,104.7,124.2,104.7z M122.3,107.3c-0.3,0-0.5,0.1-0.6,0.4c-0.1,0.5-0.1,1-0.1,1.4c0,0.4,0,0.8,0.1,1.2
		c0.1,0.2,0.3,0.3,0.5,0.2c0.2,0,0.5-0.1,0.6-0.3c0.2-0.1,0.3-0.3,0.4-0.6c0.1-0.3,0.1-0.7,0.1-1c0-0.4-0.1-0.7-0.3-1
		C122.9,107.5,122.6,107.3,122.3,107.3z"/>
	<path class="st2" d="M125.9,110.4v-3h-0.7v-0.2h0.7c0.3,0,0.6,0,0.8-0.1v0.8l0,0c0.2-0.5,0.5-0.8,0.9-0.8c0.2,0,0.3,0,0.4,0.2
		c0.1,0.1,0.2,0.2,0.2,0.4c0,0.2-0.2,0.5-0.4,0.5c0,0,0,0,0,0c-0.2,0-0.3-0.1-0.4-0.3c0,0,0-0.1,0-0.1v-0.2c0-0.1,0-0.1-0.1-0.1
		c-0.1,0-0.2,0.1-0.4,0.4c-0.2,0.4-0.3,0.8-0.2,1.2v1.3h0.7v0.2h-2.3v-0.2L125.9,110.4z"/>
	<path class="st2" d="M132,108.7h-2.2c-0.1,0.5,0,1.1,0.1,1.6c0.1,0.2,0.4,0.3,0.6,0.3c0.6,0,1.2-0.5,1.3-1.1h0.2
		c-0.1,0.4-0.3,0.7-0.5,1c-0.3,0.2-0.6,0.3-0.9,0.3c-0.5,0-0.9-0.2-1.2-0.5c-0.3-0.4-0.5-0.8-0.5-1.3c0-0.5,0.2-1,0.5-1.3
		c0.3-0.3,0.7-0.5,1.2-0.5c0.4,0,0.7,0.2,1,0.4C131.8,107.8,132,108.2,132,108.7z M129.8,108.5h1.2V108c0-0.5-0.2-0.7-0.6-0.7
		c-0.2,0-0.4,0-0.5,0.2c-0.1,0.1-0.2,0.3-0.2,0.5L129.8,108.5z"/>
	<path class="st2" d="M135,107.2v1h-0.2c-0.1-0.5-0.5-0.9-1-0.9c-0.2,0-0.4,0.1-0.6,0.2c-0.1,0.1-0.2,0.2-0.2,0.4
		c0,0.1,0.1,0.2,0.2,0.3c0.2,0.1,0.5,0.2,0.8,0.2c0.9,0.1,1.3,0.5,1.3,1.2c0,0.7-0.5,1.2-1.1,1.2c0,0,0,0,0,0l0,0
		c-0.4,0-0.7-0.2-1-0.4l-0.3,0.3h-0.1v-1.3h0.1c0.3,0.8,0.7,1.2,1.3,1.2c0.2,0,0.4-0.1,0.6-0.2c0.2-0.1,0.3-0.3,0.3-0.5
		c0-0.1,0-0.3-0.2-0.4c-0.3-0.1-0.6-0.2-0.9-0.2c-0.8-0.1-1.2-0.5-1.2-1.1c0-0.3,0.1-0.6,0.3-0.8c0.2-0.2,0.5-0.3,0.8-0.3
		c0.3,0,0.6,0.1,0.8,0.3c0.1-0.1,0.1-0.2,0.2-0.3L135,107.2z"/>
	<path class="st2" d="M138.4,107.2v1h-0.2c-0.1-0.5-0.5-0.9-1-0.9c-0.2,0-0.4,0.1-0.6,0.2c-0.1,0.1-0.2,0.2-0.2,0.4
		c0,0.1,0.1,0.2,0.2,0.3c0.2,0.1,0.5,0.2,0.8,0.2c0.9,0.1,1.3,0.5,1.3,1.2c0,0.3-0.1,0.6-0.3,0.9c-0.2,0.2-0.5,0.4-0.8,0.3
		c-0.4,0-0.7-0.1-1-0.4l-0.3,0.3H136v-1.3h0.1c0.2,0.8,0.7,1.2,1.3,1.2c0.2,0,0.4-0.1,0.6-0.2c0.2-0.1,0.3-0.3,0.3-0.5
		c0-0.1,0-0.3-0.2-0.4c-0.3-0.1-0.6-0.2-0.9-0.2c-0.8-0.1-1.2-0.5-1.2-1.1c0-0.3,0.1-0.6,0.3-0.8c0.2-0.2,0.5-0.3,0.8-0.3
		c0.3,0,0.6,0.1,0.8,0.3c0.1-0.1,0.1-0.2,0.2-0.3L138.4,107.2z"/>
	<path class="st3" d="M109.7,120.7h1.3v-3.8h-1.1v-0.6c0.5-0.1,0.9-0.2,1.3-0.5h0.7v4.9h1.1v0.8h-3.5L109.7,120.7z"/>
	<path class="st3" d="M114,120.9c1.6-1.5,2.6-2.5,2.6-3.4c0.1-0.5-0.3-0.9-0.8-1h-0.2c-0.4,0-0.9,0.3-1.1,0.6l-0.6-0.6
		c0.4-0.6,1.1-0.9,1.8-0.9c0.9-0.1,1.7,0.6,1.8,1.5c0,0,0,0,0,0v0.2c0,1-0.9,2.1-2.1,3.3c0.3,0,0.7-0.1,1-0.1h1.4v0.9H114V120.9z"/>
	<path class="st3" d="M119,120.1c0.4,0.4,0.8,0.6,1.4,0.6c0.6,0,1-0.3,1-0.9s-0.4-1-1.7-1v-0.8c1.1,0,1.5-0.4,1.5-0.9
		c0-0.4-0.3-0.8-0.7-0.8h-0.1c-0.4,0-0.9,0.2-1.1,0.5l-0.5-0.6c0.5-0.5,1.1-0.7,1.7-0.7c1.1,0,1.9,0.5,1.9,1.5c0,0.6-0.4,1.2-1,1.3
		l0,0c0.7,0.1,1.2,0.7,1.2,1.4c-0.1,1-0.9,1.7-1.9,1.7h-0.1c-0.8,0-1.5-0.3-2-0.8L119,120.1z"/>
	<path class="st3" d="M128.3,119.9h-2l-0.5,1.6h-1.1l1.9-5.9h1.2l1.9,5.9h-1.1L128.3,119.9z M128,119.1l-0.2-0.7
		c-0.2-0.6-0.4-1.3-0.5-2l0,0c-0.2,0.7-0.3,1.3-0.5,2l-0.2,0.7H128z"/>
	<path class="st3" d="M130.6,115.6h1.1l1.8,3.3l0.6,1.2l0,0c0-0.6-0.1-1.3-0.1-2v-2.6h1v5.9h-1.1l-1.9-3.3l-0.6-1.2l0,0
		c0,0.6,0.1,1.3,0.1,2v2.6h-1L130.6,115.6z"/>
	<path class="st3" d="M137.5,119.3l-1.8-3.7h1.1l0.6,1.5c0.2,0.4,0.3,0.8,0.5,1.3l0,0c0.2-0.4,0.4-0.9,0.5-1.3l0.6-1.5h1.1l-1.8,3.7
		v2.2h-1L137.5,119.3z"/>
	<path class="st3" d="M140.4,115.6h1.1l0.5,3c0.1,0.6,0.2,1.3,0.3,1.9l0,0l0.4-1.9l0.7-3h0.9l0.7,3c0.1,0.6,0.3,1.3,0.4,1.9l0,0
		c0.1-0.6,0.2-1.3,0.3-1.9l0.5-3h1l-1.1,5.9h-1.3l-0.7-3.1c-0.1-0.5-0.2-0.9-0.3-1.4l0,0c-0.1,0.4-0.2,0.9-0.3,1.4l-0.7,3.1h-1.3
		L140.4,115.6z"/>
	<path class="st3" d="M148.2,115.6h3.6v0.9h-2.5v1.5h2.1v0.9h-2.1v1.7h2.6v0.9h-3.6L148.2,115.6z"/>
	<path class="st3" d="M155.4,118.7c0.1-0.4-0.2-0.8-0.6-0.9c-0.1,0-0.1,0-0.2,0c-0.4,0-0.9,0.2-1.2,0.4l-0.4-0.7
		c0.5-0.4,1.2-0.5,1.8-0.6c1.1,0,1.6,0.7,1.6,1.9v2.6h-0.8l-0.1-0.5l0,0c-0.4,0.4-0.9,0.6-1.4,0.6c-0.7,0-1.3-0.5-1.3-1.2
		c0,0,0,0,0,0v-0.1C152.8,119.4,153.6,118.9,155.4,118.7z M154.4,120.8c0.4,0,0.7-0.2,1-0.5v-1c-1.2,0.2-1.6,0.5-1.6,0.9
		C153.8,120.7,154.1,120.8,154.4,120.8L154.4,120.8z"/>
	<path class="st3" d="M159.9,120c0.4,0.4,1,0.6,1.5,0.7c0.7,0,1-0.3,1-0.8s-0.4-0.6-0.9-0.9l-0.8-0.3c-0.7-0.2-1.2-0.8-1.2-1.6
		c0.1-1,0.9-1.7,1.9-1.7h0.1c0.7,0,1.3,0.3,1.8,0.7l-0.5,0.7c-0.3-0.3-0.8-0.5-1.3-0.5c-0.6,0-0.9,0.3-0.9,0.7
		c0,0.4,0.4,0.6,0.9,0.8l0.8,0.3c0.7,0.2,1.2,0.9,1.2,1.6c-0.1,1-0.9,1.8-2,1.8c0,0,0,0,0,0h-0.1c-0.8,0-1.6-0.3-2.1-0.9L159.9,120z
		"/>
	<path class="st3" d="M165.6,116.5h-1.7v-0.9h4.5v0.9h-1.7v5h-1V116.5z"/>
	<path class="st3" d="M172.6,121.5l-1.3-2.3h-0.9v2.3h-1v-5.9h2c1.2,0,2.2,0.4,2.2,1.7c0.1,0.8-0.4,1.5-1.2,1.7l1.4,2.5H172.6z
		 M170.4,118.4h0.8c0.8,0,1.2-0.3,1.2-1s-0.4-0.9-1.2-0.9h-0.8V118.4z"/>
	<path class="st3" d="M174.8,115.6h3.6v0.9h-2.5v1.5h2.2v0.9h-2.1v1.7h2.6v0.9h-3.6L174.8,115.6z"/>
	<path class="st3" d="M179.6,115.6h3.5v0.9h-2.5v1.5h2.1v0.9h-2.1v1.7h2.6v0.9h-3.6L179.6,115.6z"/>
	<path class="st3" d="M185.7,116.5H184v-0.9h4.5v0.9h-1.7v5h-1.1V116.5z"/>
	<path class="st3" d="M112.2,126.3c0.6,0,1.2,0.3,1.7,0.7l-0.6,0.6c-0.3-0.3-0.7-0.5-1.1-0.5c-1,0-1.7,0.8-1.7,2.1s0.6,2.2,1.6,2.2
		c0.5,0,0.9-0.2,1.2-0.6l0.6,0.6c-0.5,0.5-1.1,0.9-1.8,0.9c-1.5,0-2.7-1.2-2.7-2.7c0-0.1,0-0.2,0-0.3c-0.2-1.5,0.9-2.9,2.4-3.1
		L112.2,126.3z"/>
	<path class="st3" d="M115,126.5h1v5.9h-1V126.5z"/>
	<path class="st3" d="M118.7,127.3H117v-0.9h4.5v0.9h-1.7v5h-1L118.7,127.3z"/>
	<path class="st3" d="M123.3,130.2l-1.8-3.7h1.1l0.6,1.5c0.2,0.4,0.3,0.8,0.5,1.3l0,0c0.2-0.4,0.4-0.8,0.5-1.3l0.6-1.5h1.1l-1.8,3.7
		v2.2h-1V130.2z"/>
	<path class="st3" d="M125.6,133.4c0.5-0.1,0.9-0.6,0.9-1.1h-0.1c-0.3,0-0.6-0.2-0.7-0.6c0,0,0,0,0,0v0c0-0.4,0.3-0.6,0.6-0.6
		c0,0,0,0,0,0l0,0c0.5,0,0.8,0.4,0.8,1.1c0,0.9-0.6,1.6-1.4,1.9L125.6,133.4z"/>
	<path class="st3" d="M130.2,131c0.3,0.4,0.8,0.6,1.4,0.6c0.6,0,1.1-0.3,1.1-0.9c0-0.5-0.4-1-1.7-1V129c1.1,0,1.5-0.4,1.5-0.9
		c0-0.4-0.3-0.8-0.7-0.8h-0.1c-0.4,0-0.9,0.2-1.2,0.5l-0.5-0.6c0.5-0.5,1.1-0.7,1.7-0.7c1.1,0,1.9,0.5,1.9,1.5c0,0.6-0.4,1.1-1,1.3
		l0,0c0.7,0.1,1.2,0.7,1.2,1.4c-0.1,1-0.9,1.7-1.9,1.7c0,0,0,0-0.1,0c-0.7,0-1.4-0.3-1.9-0.8L130.2,131z"/>
	<path class="st3" d="M138.5,130.9h-0.7v1.5h-1v-1.5h-2.5v-0.7l2.3-3.6h1.2v3.5h0.7L138.5,130.9z M136.8,130.1v-2.5l0,0
		c-0.1,0.3-0.3,0.6-0.5,0.9l-1,1.6H136.8z"/>
	<path class="st3" d="M139.5,131c0.4,0.4,0.8,0.6,1.3,0.6c0.5,0.1,1-0.3,1.1-0.9c0,0,0,0,0,0c0-0.1,0-0.1,0-0.2c0-0.5-0.4-1-0.9-1.1
		h-0.1c-0.3,0-0.7,0.1-0.9,0.3l-0.5-0.3l0.2-2.8h3.1v0.9h-2.2l-0.1,1.4c0.2-0.1,0.5-0.2,0.8-0.2c0.9-0.1,1.7,0.6,1.8,1.5
		c0,0,0,0,0,0c0,0.1,0,0.2,0,0.3c0,1.1-0.8,2-1.9,2c0,0,0,0,0,0H141c-0.7,0-1.5-0.3-2-0.8L139.5,131z"/>
	<path class="st3" d="M147,127.8c-0.2-0.3-0.6-0.4-0.9-0.4c-0.7,0-1.3,0.5-1.4,2.1c0.3-0.4,0.8-0.6,1.2-0.7c0.9-0.1,1.6,0.6,1.7,1.5
		c0,0.1,0,0.2,0,0.3c0.1,1-0.7,1.8-1.7,1.9c0,0,0,0,0,0h-0.1c-1.1,0-2.1-0.9-2.1-2.8c0-2.2,1.1-3.1,2.3-3.1c0.6,0,1.1,0.2,1.5,0.6
		L147,127.8z M146.7,130.6c0-0.7-0.3-1-0.9-1c-0.4,0-0.8,0.3-1,0.7c0.1,1,0.5,1.5,1.1,1.5S146.7,131.3,146.7,130.6L146.7,130.6z"/>
	<path class="st3" d="M151.2,127.5h-2.7v-0.9h3.9v0.6c-1.3,1.7-1.6,2.9-1.7,5.1h-1.1C149.5,130.6,150.1,128.9,151.2,127.5z"/>
	<path class="st3" d="M153.1,129.7h2.1v0.8h-2.1V129.7z"/>
	<path class="st3" d="M157,129.4L157,129.4c-0.5-0.3-0.8-0.8-0.8-1.3c0-0.9,0.7-1.6,1.6-1.5c0,0,0,0,0,0h0.1
		c0.8-0.1,1.6,0.5,1.7,1.4c0,0.1,0,0.1,0,0.2c0,0.5-0.3,1-0.8,1.3l0,0c0.6,0.3,1,0.8,1,1.5c0,0.9-0.8,1.6-1.9,1.6
		c-1.2,0-1.9-0.6-1.9-1.6C156,130.2,156.4,129.7,157,129.4z M157.9,131.7c0.5,0.1,0.9-0.3,0.9-0.8c0,0,0,0,0,0v-0.1
		c0-0.6-0.6-0.8-1.4-1.2c-0.4,0.2-0.6,0.6-0.6,1.1C156.9,131.3,157.3,131.7,157.9,131.7L157.9,131.7z M158.8,128.1
		c0-0.5-0.3-0.8-0.8-0.9h-0.1c-0.4,0-0.8,0.3-0.8,0.7c0,0,0,0,0,0v0.1c0,0.6,0.5,0.8,1.1,1.1C158.6,128.8,158.7,128.5,158.8,128.1
		L158.8,128.1z"/>
	<path class="st3" d="M161.2,131.2c0.2,0.3,0.6,0.4,0.9,0.4c0.7,0,1.3-0.5,1.4-2.1c-0.3,0.4-0.8,0.6-1.3,0.7
		c-0.9,0.1-1.6-0.6-1.7-1.5c0-0.1,0-0.2,0-0.3c-0.1-1,0.7-1.8,1.7-1.9h0.1c1.1,0,2.1,0.9,2.1,2.8c0,2.2-1.1,3.2-2.2,3.2
		c-0.6,0-1.1-0.2-1.5-0.6L161.2,131.2z M163.5,128.7c-0.1-1-0.5-1.4-1.1-1.4s-0.9,0.4-0.9,1.1c0,0.7,0.3,1,0.9,1
		C162.8,129.3,163.2,129.1,163.5,128.7L163.5,128.7z"/>
	<path class="st3" d="M165.2,129.5c0-1.9,0.8-2.9,1.9-2.9c1.2,0,2,1,2,2.9s-0.8,3-2,3C165.9,132.5,165.2,131.4,165.2,129.5z
		 M168.1,129.5c0-1.6-0.4-2.1-1-2.1s-0.9,0.5-0.9,2.1c0,1.6,0.4,2.2,0.9,2.2S168.1,131.1,168.1,129.5z"/>
	<path class="st2" d="M218.6,110.4V105h-0.9v-0.2h2.8c0.5,0,1.1,0.1,1.6,0.3c0.5,0.2,0.9,0.6,1.1,1c0.3,0.5,0.5,1.1,0.4,1.7
		c0,0.6-0.2,1.2-0.5,1.7c-0.3,0.4-0.7,0.8-1.1,1c-0.5,0.2-1,0.3-1.5,0.3h-2.8v-0.2L218.6,110.4z M219.6,105v5.5h0.8
		c0.3,0,0.7,0,1-0.1c0.3-0.1,0.5-0.3,0.6-0.5c0.2-0.3,0.3-0.6,0.3-0.9c0.1-0.5,0.1-1,0.1-1.5c0-0.6-0.1-1.1-0.3-1.6
		c-0.1-0.3-0.4-0.6-0.7-0.7c-0.3-0.1-0.7-0.1-1.1-0.1H219.6z"/>
	<path class="st2" d="M226.8,108.7v-0.4c0-0.2,0-0.5-0.1-0.7c-0.1-0.1-0.2-0.2-0.5-0.2c-0.5,0-0.7,0.1-0.7,0.3c0,0.1,0,0.1,0.1,0.2
		c0,0.1,0.1,0.1,0.1,0.2c0,0.1,0,0.2-0.1,0.3c-0.1,0.1-0.2,0.1-0.3,0.1c-0.1,0-0.2,0-0.3-0.1c-0.1-0.1-0.1-0.2-0.1-0.3
		c0-0.3,0.2-0.5,0.4-0.6c0.4-0.2,0.8-0.3,1.1-0.2c0.3,0,0.6,0,0.9,0.1c0.2,0.1,0.3,0.2,0.3,0.3c0.1,0.2,0.1,0.4,0.1,0.6v1.6
		c0,0.2,0,0.3,0.1,0.4c0,0.1,0.1,0.1,0.1,0.1c0.1,0,0.2-0.1,0.3-0.2h0.1c0,0.4-0.4,0.7-0.7,0.7c0,0,0,0,0,0l0,0
		c-0.4,0-0.6-0.2-0.7-0.7c-0.3,0.4-0.7,0.7-1.2,0.7c-0.3,0-0.5-0.1-0.7-0.2c-0.2-0.2-0.3-0.4-0.3-0.6
		C224.6,109.2,225.3,108.8,226.8,108.7z M226.8,109.4v-0.5c-0.4,0-0.7,0.1-1.1,0.2c-0.2,0.2-0.3,0.4-0.3,0.6c0,0.2,0,0.3,0.2,0.5
		c0.1,0.1,0.2,0.2,0.4,0.2c0.2,0,0.3-0.1,0.5-0.2c0.1-0.1,0.2-0.2,0.3-0.3C226.8,109.7,226.8,109.5,226.8,109.4z"/>
	<path class="st2" d="M230.3,106.2v1h1v0.2h-1v2.2c0,0.2,0,0.4,0.1,0.6c0,0.1,0.2,0.2,0.3,0.2c0.1,0,0.3,0,0.4-0.1
		c0.1-0.1,0.2-0.3,0.3-0.4h0.2c-0.1,0.6-0.7,0.9-1.2,0.9c-0.2,0-0.5,0-0.6-0.2c-0.1-0.1-0.2-0.2-0.2-0.4c0-0.2,0-0.4,0-0.6v-2.1
		h-0.8v-0.2h0.8v-0.9C229.8,106.3,230.1,106.2,230.3,106.2z"/>
	<path class="st2" d="M235.4,108.7h-2.2c-0.1,0.5,0,1.1,0.1,1.6c0.1,0.2,0.4,0.3,0.6,0.3c0.6,0,1.2-0.5,1.3-1.1h0.2
		c-0.1,0.4-0.2,0.7-0.5,1c-0.3,0.2-0.6,0.3-0.9,0.3c-0.5,0-0.9-0.2-1.2-0.5c-0.4-0.4-0.5-0.8-0.5-1.3c0-0.5,0.2-1,0.5-1.3
		c0.3-0.3,0.7-0.5,1.2-0.5c0.4,0,0.7,0.2,1,0.4C235.2,107.8,235.4,108.2,235.4,108.7z M233.2,108.5h1.3V108c0-0.5-0.2-0.7-0.6-0.7
		c-0.2,0-0.4,0.1-0.5,0.2c-0.1,0.1-0.2,0.3-0.2,0.5L233.2,108.5z"/>
	<path class="st2" d="M238.3,108.9c0-0.5,0.2-1,0.5-1.3c0.7-0.7,1.9-0.7,2.6,0c0.4,0.3,0.5,0.8,0.5,1.3c0,0.5-0.2,1-0.5,1.3
		c-0.3,0.4-0.8,0.5-1.3,0.5c-0.5,0-0.9-0.2-1.3-0.5C238.5,109.9,238.3,109.4,238.3,108.9z M241,108.9c0-0.4,0-0.7-0.1-1.1
		c0-0.2-0.1-0.3-0.2-0.4c-0.2-0.1-0.3-0.2-0.5-0.1c-0.2,0-0.4,0-0.5,0.1c-0.1,0.1-0.2,0.3-0.3,0.4c0,0.4-0.1,0.7-0.1,1.1
		c0,0.4,0,0.7,0.1,1.1c0,0.2,0.1,0.3,0.3,0.4c0.1,0.1,0.3,0.2,0.5,0.2c0.2,0,0.4,0,0.5-0.2c0.1-0.1,0.2-0.3,0.3-0.4
		C241,109.6,241,109.3,241,108.9L241,108.9z"/>
	<path class="st2" d="M243.3,110.4v-3h-0.7v-0.2h0.7c-0.1-0.7,0.1-1.3,0.5-1.8c0.3-0.4,0.7-0.7,1.2-0.7c0.2,0,0.4,0.1,0.6,0.2
		c0.2,0.1,0.2,0.3,0.2,0.5c0,0.1,0,0.2-0.1,0.3c-0.2,0.2-0.4,0.2-0.6,0c0,0,0,0,0,0l0,0c-0.1-0.1-0.1-0.2-0.1-0.3
		c0-0.2,0.1-0.4,0.3-0.4c-0.1-0.1-0.2-0.1-0.4-0.1c-0.2,0-0.3,0.1-0.5,0.1c-0.2,0.1-0.2,0.3-0.3,0.4c0,0.3-0.1,0.7-0.1,1v0.7h0.8
		v0.2h-0.8v3h0.7v0.2h-2.3v-0.2H243.3z"/>
	<path class="st2" d="M250.6,104.7v3.1l0,0c0.2-0.4,0.6-0.7,1.1-0.7c0.4,0,0.9,0.2,1.1,0.5c0.3,0.3,0.5,0.8,0.5,1.3
		c0,0.5-0.2,0.9-0.5,1.3c-0.3,0.4-0.7,0.6-1.1,0.6c-0.5,0-1-0.3-1.1-0.8l0,0v0.7c-0.3,0-0.6,0-0.8,0h-0.6v-0.2h0.6V105h-0.6v-0.2
		h0.6C250,104.8,250.3,104.8,250.6,104.7z M251.7,110.6c0.2,0,0.5-0.1,0.5-0.3c0.1-0.4,0.1-0.9,0.1-1.3c0-0.4,0-0.9-0.1-1.3
		c-0.1-0.2-0.2-0.3-0.5-0.3c-0.2,0-0.4,0.1-0.6,0.2c-0.2,0.1-0.3,0.3-0.4,0.5c-0.1,0.3-0.1,0.7-0.1,1c0,0.4,0.1,0.8,0.3,1.1
		C251.1,110.4,251.4,110.5,251.7,110.6z"/>
	<path class="st2" d="M255.5,107.1v3.3h0.6v0.2h-2v-0.2h0.6v-3H254v-0.2h0.6C254.9,107.2,255.2,107.2,255.5,107.1z M254.6,105.4
		c0-0.3,0.2-0.5,0.5-0.5c0.1,0,0.2,0,0.3,0.1c0.1,0.1,0.1,0.2,0.1,0.3c0,0.3-0.2,0.5-0.4,0.5l0,0c-0.1,0-0.3,0-0.3-0.1
		C254.7,105.7,254.6,105.6,254.6,105.4z"/>
	<path class="st2" d="M257.1,110.4v-3h-0.7v-0.2h0.7c0.3,0,0.6,0,0.9-0.1v0.8l0,0c0.2-0.5,0.5-0.8,0.9-0.8c0.3,0,0.6,0.2,0.6,0.5
		l0,0c0,0.1,0,0.2-0.1,0.3c-0.1,0.1-0.2,0.1-0.3,0.1c-0.2,0-0.3-0.1-0.4-0.3c0,0,0-0.1,0-0.1v-0.2c0-0.1,0-0.1-0.1-0.1
		s-0.2,0.1-0.4,0.4c-0.2,0.4-0.3,0.8-0.2,1.2v1.3h0.7v0.2h-2.3v-0.2L257.1,110.4z"/>
	<path class="st2" d="M261.7,106.2v1h1v0.2h-1v2.2c0,0.2,0,0.4,0.1,0.6c0,0.1,0.2,0.2,0.3,0.2c0.1,0,0.3-0.1,0.4-0.1
		c0.1-0.1,0.2-0.3,0.3-0.4h0.2c-0.1,0.6-0.7,0.9-1.2,0.9c-0.2,0-0.4,0-0.6-0.2c-0.1-0.1-0.2-0.2-0.2-0.4c0-0.2-0.1-0.4,0-0.6v-2.1
		H260v-0.2h0.8v-0.9C261.1,106.3,261.4,106.2,261.7,106.2z"/>
	<path class="st2" d="M264.2,110.4V105h-0.7v-0.2h0.7c0.3,0,0.6,0,0.9-0.1v3.3l0,0c0.2-0.5,0.7-0.8,1.2-0.8c0.2,0,0.4,0.1,0.6,0.2
		c0.2,0.1,0.3,0.3,0.4,0.5c0.1,0.3,0.1,0.7,0.1,1v1.7h0.6v0.2h-2v-0.2h0.6v-2.8c0-0.2-0.2-0.3-0.4-0.3l0,0c-0.3,0-0.5,0.1-0.6,0.3
		c-0.2,0.2-0.3,0.4-0.3,0.7c-0.1,0.4-0.1,0.7-0.1,1.1v1h0.6v0.2h-2v-0.2L264.2,110.4z"/>
	<path class="st3" d="M217.6,118.6c0-1.9,0.8-3,2-3c1.2,0,2,1,2,3s-0.8,3-2,3C218.4,121.6,217.6,120.6,217.6,118.6z M220.5,118.6
		c0-1.6-0.4-2.1-1-2.1s-1,0.5-1,2.1s0.4,2.2,1,2.2S220.5,120.2,220.5,118.6z"/>
	<path class="st3" d="M222.2,120.9c1.6-1.5,2.6-2.5,2.6-3.4c0.1-0.5-0.3-0.9-0.8-1h-0.2c-0.4,0-0.9,0.3-1.1,0.6l-0.6-0.6
		c0.4-0.6,1.1-0.9,1.8-0.9c0.9-0.1,1.7,0.6,1.8,1.5c0,0,0,0,0,0v0.2c0,1-0.9,2.1-2.1,3.3c0.3,0,0.7-0.1,1-0.1h1.4v0.9h-3.9
		L222.2,120.9z"/>
	<path class="st3" d="M228.7,115.1h0.7l-2.1,7.9h-0.7L228.7,115.1z"/>
	<path class="st3" d="M230,118.6c0-1.9,0.8-3,2-3c1.2,0,1.9,1,1.9,3s-0.8,3-1.9,3C230.8,121.6,230,120.6,230,118.6z M232.9,118.6
		c0-1.6-0.4-2.1-1-2.1s-1,0.5-1,2.1s0.4,2.2,1,2.2S232.9,120.2,232.9,118.6z"/>
	<path class="st3" d="M234.6,120.9c1.6-1.5,2.6-2.5,2.6-3.4c0.1-0.5-0.3-0.9-0.8-1h-0.2c-0.4,0-0.9,0.3-1.1,0.6l-0.6-0.6
		c0.4-0.6,1.1-0.9,1.8-0.9c0.9-0.1,1.7,0.6,1.8,1.5c0,0,0,0,0,0v0.2c0,1-0.9,2.1-2.1,3.3c0.3,0,0.7-0.1,1-0.1h1.4v0.9h-3.9
		L234.6,120.9z"/>
	<path class="st3" d="M241.1,115.1h0.7l-2.1,7.9H239L241.1,115.1z"/>
	<path class="st3" d="M242.7,120.7h1.3v-3.8h-1.1v-0.6c0.5-0.1,0.9-0.2,1.3-0.5h0.7v4.9h1.1v0.8h-3.4V120.7z"/>
	<path class="st3" d="M247.6,120.3c0.2,0.3,0.6,0.4,0.9,0.4c0.7,0,1.3-0.5,1.3-2.1c-0.3,0.4-0.8,0.6-1.2,0.7
		c-0.9,0.1-1.6-0.6-1.7-1.4c0-0.1,0-0.2,0-0.3c0-1,0.7-1.8,1.7-1.9h0.1c1.1,0,2.1,0.9,2.1,2.8c0,2.2-1.1,3.2-2.3,3.2
		c-0.6,0-1.1-0.2-1.5-0.6L247.6,120.3z M249.9,117.9c-0.1-1-0.5-1.4-1.1-1.4c-0.6,0-0.8,0.4-0.8,1.1c0,0.7,0.3,1,0.9,1
		C249.3,118.5,249.7,118.3,249.9,117.9z"/>
	<path class="st3" d="M252.7,118.6L252.7,118.6c-0.5-0.3-0.8-0.8-0.8-1.3c0-0.9,0.7-1.5,1.6-1.5c0,0,0,0,0,0h0.1
		c0.8-0.1,1.6,0.5,1.7,1.4c0,0.1,0,0.1,0,0.2c0,0.5-0.3,1-0.8,1.3l0,0c0.6,0.3,1,0.8,1,1.5c0,0.9-0.8,1.6-1.9,1.6
		c-1.2,0-2-0.6-2-1.6C251.7,119.4,252.1,118.8,252.7,118.6z M253.6,120.9c0.5,0.1,0.9-0.2,1-0.7c0,0,0,0,0,0c0,0,0-0.1,0-0.2
		c0-0.6-0.6-0.8-1.4-1.2c-0.4,0.2-0.6,0.6-0.6,1.1C252.6,120.5,253.1,120.9,253.6,120.9z M254.5,117.3c0-0.4-0.3-0.8-0.7-0.9
		c0,0,0,0,0,0h-0.1c-0.4,0-0.8,0.3-0.8,0.7c0,0,0,0,0,0v0.1c0,0.6,0.5,0.8,1.2,1.1C254.3,118,254.5,117.7,254.5,117.3z"/>
	<path class="st3" d="M256.6,120.2c0.3,0.4,0.8,0.6,1.3,0.6c0.5,0.1,1-0.3,1.1-0.9c0,0,0,0,0,0c0-0.1,0-0.1,0-0.2
		c0-0.5-0.4-1-0.9-1.1H258c-0.3,0-0.7,0.1-0.9,0.3l-0.5-0.3l0.2-2.8h3.1v0.9h-2.2l-0.1,1.4c0.2-0.1,0.5-0.2,0.8-0.2
		c0.9-0.1,1.7,0.6,1.8,1.5c0,0,0,0,0,0c0,0.1,0,0.2,0,0.3c0,1.1-0.8,2-1.9,2c0,0,0,0,0,0h-0.1c-0.8,0-1.5-0.3-2-0.8L256.6,120.2z"/>
	<path class="st4" d="M112.7,145.1v1.4h-0.2c-0.3-0.8-0.7-1.2-1.4-1.2c-0.3,0-0.6,0.1-0.9,0.3c-0.2,0.2-0.3,0.4-0.3,0.6
		c0,0.2,0.1,0.4,0.3,0.5c0.3,0.2,0.6,0.3,0.9,0.3c0.3,0.1,0.7,0.1,1,0.3c0.3,0.1,0.5,0.3,0.6,0.6c0.2,0.3,0.2,0.6,0.2,0.9
		c0,0.5-0.2,1-0.5,1.3c-0.3,0.3-0.8,0.5-1.3,0.5c-0.5,0-0.9-0.2-1.2-0.5l-0.4,0.3h-0.1V149h0.2c0.1,0.4,0.3,0.8,0.6,1.1
		c0.5,0.5,1.3,0.5,1.8,0c0.5-0.3,0.6-0.9,0.2-1.4c0-0.1-0.1-0.1-0.1-0.1c-0.3-0.2-0.6-0.4-0.9-0.4c-0.3-0.1-0.7-0.1-1-0.3
		c-0.2-0.1-0.4-0.3-0.6-0.5c-0.2-0.2-0.3-0.5-0.2-0.8c0-0.4,0.2-0.8,0.4-1.1c0.3-0.3,0.7-0.5,1.1-0.5c0.4,0,0.8,0.1,1.1,0.4
		c0.1-0.1,0.2-0.2,0.3-0.3L112.7,145.1z"/>
	<path class="st4" d="M116.6,148.6h-2c-0.1,0.5,0,1,0.1,1.4c0.1,0.2,0.3,0.3,0.6,0.3c0.6,0,1.1-0.4,1.1-1h0.2
		c-0.1,0.3-0.2,0.7-0.5,0.9c-0.2,0.2-0.5,0.3-0.8,0.3c-0.4,0-0.8-0.2-1.1-0.5c-0.3-0.3-0.5-0.7-0.5-1.2c0-0.4,0.2-0.9,0.5-1.2
		c0.3-0.3,0.7-0.5,1.1-0.5c0.3,0,0.7,0.1,0.9,0.4C116.5,147.9,116.6,148.2,116.6,148.6z M114.6,148.5h1.2V148c0-0.4-0.2-0.6-0.6-0.6
		c-0.2,0-0.3,0-0.4,0.1c-0.1,0.1-0.2,0.3-0.2,0.4L114.6,148.5z"/>
	<path class="st4" d="M119.5,148.6l1.4,1.6h0.4v0.2h-1.9v-0.2h0.5l-0.9-1.1l-1,1.1h0.6v0.2h-1.5v-0.2h0.6l1.1-1.2l-1.3-1.5h-0.4
		v-0.2h1.9v0.2h-0.5l0.8,1l0.9-1h-0.6v-0.2h1.4v0.2h-0.6L119.5,148.6z"/>
	<path class="st4" d="M122,147.7c0-0.1,0.1-0.3,0.1-0.3c0.1-0.1,0.2-0.1,0.3-0.1c0.1,0,0.3,0.1,0.4,0.1c0.1,0.1,0.1,0.2,0.1,0.3
		c0,0.1,0,0.3-0.1,0.4c-0.1,0.1-0.2,0.2-0.4,0.1c-0.1,0-0.3-0.1-0.3-0.1C122,148,122,147.8,122,147.7z M122,150
		c0-0.1,0.1-0.3,0.1-0.3c0.1-0.1,0.2-0.1,0.3-0.1c0.1,0,0.3,0.1,0.4,0.1c0.1,0.1,0.1,0.2,0.1,0.3c0,0.1,0,0.3-0.1,0.4
		c-0.1,0.1-0.2,0.2-0.4,0.1c-0.1,0-0.3-0.1-0.3-0.1C122,150.3,122,150.1,122,150L122,150z"/>
	<path class="st3" d="M126.3,145.1h1l1,2.6l0.3,1l0,0l0.3-1l0.9-2.6h1.1v5.3h-0.9V148c0-0.5,0.1-1.2,0.1-1.7l0,0l-0.4,1.2l-0.9,2.4
		h-0.4l-0.9-2.4l-0.4-1.2l0,0c0,0.5,0.1,1.2,0.1,1.7v2.4h-0.9L126.3,145.1z"/>
	<path class="st4" d="M140.6,145.3v2.3h0.5c0.1,0,0.3,0,0.4,0c0.1,0,0.2-0.1,0.3-0.3c0.1-0.2,0.2-0.4,0.2-0.7h0.2v2.2H142
		c0-0.3-0.1-0.6-0.2-0.8c-0.2-0.2-0.4-0.2-0.7-0.2h-0.5v2.4h1.1c0.5,0,0.9-0.1,1.3-0.4c0.3-0.3,0.4-0.8,0.4-1.2h0.2v1.8h-4.7v-0.2
		h0.8v-4.9h-0.8v-0.2h4.5l0.1,1.4h-0.2c0-0.3-0.2-0.7-0.4-0.9c-0.3-0.2-0.7-0.3-1.1-0.3L140.6,145.3z"/>
	<path class="st4" d="M145.6,147.5l1.1,2.2l1-2.2H147v-0.2h1.4v0.2h-0.5l-1.6,3.6c-0.2,0.4-0.3,0.7-0.6,1.1
		c-0.1,0.2-0.4,0.3-0.6,0.3c-0.1,0-0.2,0-0.3-0.1c-0.1-0.1-0.1-0.2-0.1-0.3c0-0.1,0-0.2,0.1-0.3c0.1-0.1,0.1-0.1,0.2-0.1
		c0.1,0,0.2,0.1,0.3,0.2c0.1,0.1,0.1,0.2,0.2,0.2c0.1,0,0.1-0.1,0.2-0.2c0.1-0.2,0.3-0.5,0.4-0.7l0.3-0.6l-1.6-3h-0.5v-0.2h1.9v0.2
		L145.6,147.5z"/>
	<path class="st4" d="M151.5,148.6h-2c-0.1,0.5,0,1,0.1,1.4c0.1,0.2,0.3,0.3,0.6,0.3c0.6,0,1.1-0.4,1.1-1h0.2
		c-0.1,0.3-0.2,0.7-0.5,0.9c-0.2,0.2-0.5,0.3-0.8,0.3c-0.4,0-0.8-0.2-1.1-0.5c-0.3-0.3-0.5-0.7-0.5-1.2c0-0.4,0.2-0.9,0.5-1.2
		c0.3-0.3,0.7-0.5,1.1-0.5c0.3,0,0.7,0.1,0.9,0.4C151.3,147.9,151.5,148.2,151.5,148.6z M149.5,148.5h1.2V148c0-0.4-0.2-0.6-0.6-0.6
		c-0.2,0-0.3,0-0.4,0.1c-0.1,0.1-0.2,0.3-0.2,0.4L149.5,148.5z"/>
	<path class="st4" d="M154.2,147.3v0.9h-0.2c0-0.5-0.4-0.8-0.9-0.8c-0.2,0-0.4,0-0.5,0.2c-0.1,0.1-0.2,0.2-0.2,0.4
		c0,0.1,0.1,0.2,0.1,0.3c0.2,0.1,0.4,0.2,0.7,0.2c0.8,0.1,1.2,0.5,1.2,1.1c0,0.6-0.4,1.1-1,1.1l0,0c-0.3,0-0.6-0.1-0.9-0.4l-0.3,0.2
		h-0.1v-1.2h0.1c0.2,0.7,0.6,1.1,1.1,1.1c0.2,0,0.4-0.1,0.5-0.2c0.2-0.1,0.2-0.3,0.2-0.4c0-0.1,0-0.3-0.1-0.3
		c-0.3-0.1-0.5-0.2-0.8-0.2c-0.7-0.1-1.1-0.4-1.1-1c0-0.3,0.1-0.5,0.3-0.7c0.2-0.2,0.5-0.3,0.7-0.3c0.3,0,0.6,0.1,0.8,0.3
		C154.1,147.4,154.1,147.4,154.2,147.3L154.2,147.3z"/>
	<path class="st4" d="M155.4,147.7c0-0.1,0.1-0.3,0.1-0.3c0.1-0.1,0.2-0.1,0.3-0.1c0.1,0,0.3,0.1,0.4,0.1c0.1,0.1,0.2,0.2,0.1,0.3
		c0,0.3-0.2,0.5-0.5,0.5c-0.1,0-0.3-0.1-0.3-0.1C155.4,148,155.4,147.8,155.4,147.7z M155.4,150c0-0.1,0.1-0.3,0.1-0.3
		c0.1-0.1,0.2-0.1,0.3-0.1c0.1,0,0.3,0.1,0.4,0.1c0.1,0.1,0.2,0.2,0.1,0.3c0,0.3-0.2,0.5-0.5,0.5c-0.1,0-0.3-0.1-0.3-0.1
		C155.4,150.3,155.4,150.1,155.4,150L155.4,150z"/>
	<path class="st3" d="M159.7,145.1h1.7c1.1,0,1.9,0.3,1.9,1.3c0,0.6-0.4,1-0.9,1.1l0,0c0.8,0.1,1.2,0.5,1.2,1.3c0,1.1-0.9,1.6-2,1.6
		h-1.8L159.7,145.1z M161.3,147.3c0.7,0,1.1-0.3,1.1-0.8s-0.3-0.7-1-0.7h-0.7v1.5H161.3z M161.4,149.7c0.8,0,1.2-0.3,1.2-0.9
		s-0.4-0.8-1.2-0.8h-0.8v1.7L161.4,149.7z"/>
	<path class="st3" d="M167.4,150.4l-1.1-2.1h-0.8v2.1h-0.9v-5.3h1.8c1.1,0,2,0.4,2,1.6c0.1,0.7-0.4,1.3-1,1.5l1.3,2.2H167.4z
		 M165.4,147.6h0.8c0.7,0,1.1-0.3,1.1-0.9s-0.4-0.8-1.1-0.8h-0.8V147.6z"/>
	<path class="st3" d="M169.1,147.8c0-1.7,1-2.7,2.3-2.7c1.3,0,2.3,1,2.3,2.7c0,1.7-1,2.8-2.3,2.8
		C170.1,150.5,169.1,149.5,169.1,147.8z M172.8,147.8c0-1.2-0.5-1.9-1.4-1.9c-0.8,0-1.4,0.7-1.4,1.9s0.5,2,1.4,2
		C172.3,149.8,172.8,149,172.8,147.8z"/>
	<path class="st4" d="M179.7,150.2v-4.9h-0.8v-0.2h2.6v0.2h-0.8v2.3h2.3v-2.3h-0.8v-0.2h2.6v0.2h-0.8v4.9h0.8v0.2h-2.6v-0.2h0.8
		v-2.4h-2.3v2.4h0.8v0.2h-2.6v-0.2H179.7z"/>
	<path class="st4" d="M186.8,146.4v0.9h0.9v0.2h-0.9v2c0,0.2,0,0.4,0.1,0.6c0,0.1,0.1,0.2,0.3,0.2c0.1,0,0.3,0,0.4-0.1
		c0.1-0.1,0.2-0.2,0.3-0.4h0.2c-0.1,0.5-0.6,0.8-1.1,0.8c-0.2,0-0.4,0-0.6-0.1c-0.1-0.1-0.2-0.2-0.3-0.4c0-0.2,0-0.4,0-0.6v-1.9
		h-0.7v-0.2h0.7v-0.8C186.3,146.5,186.5,146.5,186.8,146.4z"/>
	<path class="st4" d="M188.7,147.7c0-0.3,0.2-0.5,0.5-0.5c0,0,0,0,0,0c0.3,0,0.5,0.2,0.5,0.5c0,0.1-0.1,0.3-0.1,0.4
		c-0.2,0.2-0.5,0.2-0.7,0c0,0,0,0,0,0C188.8,148,188.7,147.8,188.7,147.7z M188.7,150c0-0.3,0.2-0.5,0.5-0.5c0,0,0,0,0,0
		c0.1,0,0.3,0,0.4,0.1c0.1,0.1,0.2,0.2,0.1,0.3c0,0.1-0.1,0.3-0.1,0.4c-0.2,0.2-0.5,0.2-0.7,0c0,0,0,0,0,0
		C188.8,150.3,188.7,150.1,188.7,150L188.7,150z"/>
	<path class="st3" d="M195.6,146.3c-0.2-0.2-0.5-0.4-0.8-0.4c-0.6,0-1.2,0.5-1.2,1.9c0.3-0.4,0.7-0.6,1.1-0.6
		c0.8-0.1,1.5,0.5,1.5,1.3c0,0.1,0,0.2,0,0.3c0.1,0.9-0.6,1.6-1.5,1.7c0,0,0,0,0,0h-0.1c-1,0-1.9-0.8-1.9-2.5c0-2,1-2.8,2-2.8
		c0.5,0,1,0.2,1.4,0.6L195.6,146.3z M195.3,148.8c0-0.6-0.3-0.9-0.8-0.9c-0.4,0-0.7,0.3-0.9,0.6c0.1,0.9,0.5,1.3,1,1.3
		C195.1,149.8,195.3,149.5,195.3,148.8L195.3,148.8z"/>
	<path class="st3" d="M196.8,148.1h1.9v0.7h-1.9V148.1z"/>
	<path class="st3" d="M199.5,147.8c0-1.7,0.7-2.7,1.7-2.7s1.8,0.9,1.8,2.7c0,1.7-0.7,2.7-1.8,2.7S199.5,149.6,199.5,147.8z
		 M202.1,147.8c0-1.5-0.3-1.9-0.9-1.9s-0.9,0.5-0.9,1.9s0.4,2,0.9,2S202.1,149.3,202.1,147.8z"/>
	<path class="st3" d="M203.6,147.8c0-1.7,0.7-2.7,1.7-2.7c1.1,0,1.8,0.9,1.8,2.7c0,1.7-0.7,2.7-1.8,2.7
		C204.3,150.5,203.6,149.6,203.6,147.8z M206.2,147.8c0-1.5-0.4-1.9-0.9-1.9s-0.9,0.5-0.9,1.9s0.4,2,0.9,2S206.2,149.3,206.2,147.8z
		"/>
	
		<image style="overflow:visible;enable-background:new    ;" width="160" height="32" xlink:href="4EA473787BBE2F8.png"  transform="matrix(0.1959 0 0 0.3266 38.6738 140.6018)">
	</image>
	
		<image style="overflow:visible;enable-background:new    ;" width="330" height="164" id="MAP" xlink:href="4EA473787BBE2FE.png"  transform="matrix(0.36 0 0 0.34 156.3952 8.2674)">
	</image>
	<g id="PERSON" class="st5">
		<path d="M58.7,87.2c-1.8-0.7-4.4-2.8-4.4-4.1v-3.4c1-1.2,1.8-3.7,2.3-6.5c1.1-0.4,1.7-1.1,2.5-4c0.8-3.1-1.2-3-1.2-3
			c1.7-5.9-0.5-11.5-4.2-11.1c-2.6-4.7-11.1,1.1-13.8,0.7c0,1,0.2,2,0.6,2.8c-0.9,1.9-0.6,5.6-0.3,7.5c-0.1,0-2,0-1.2,3
			s1.4,3.6,2.5,4c0.5,2.8,1.3,5.3,2.3,6.5v3.4c0,1.3-2.8,3.5-4.4,4.1C35.8,88.4,27.5,92,28,98.8c0.1,1.6,8.6,3.3,20.9,3.3
			s20.8-1.7,20.9-3.3C70.4,92,62,88.5,58.7,87.2z"/>
	</g>
</g>
<g id="GEO">
	<path class="st6" d="M250.7,14.8h5.9V17c-0.1,0.3-0.3,0.8-0.7,1.4c-0.2,0.2-0.9,1.2-2.3,1.8c-1.6,0.7-3.8,0.7-5.6-0.2
		c-2.5-1.3-2.7-3.6-2.7-4.2c0-0.4-0.1-1.9,1.1-3.3c0.8-0.9,1.7-1.3,2.2-1.5c0.5-0.2,2.3-0.8,4.2-0.2c0.3,0.1,1.1,0.4,1.8,1
		c0.6,0.6,0.8,1.2,0.9,1.5c-0.8,0-1.6,0-2.4,0c-0.1-0.2-0.4-0.6-1-0.8c-1.3-0.6-2.7,0.1-2.9,0.1c-1.1,0.5-1.5,1.4-1.6,1.8
		c-0.3,0.6-0.3,1.3-0.3,1.3s0,0.1,0,0.1c0,0.4,0.1,1.5,1.2,2.3c1.2,0.9,3.2,1,4.5,0.2c0.7-0.4,0.9-1,1-1.4c0-0.1,0-0.2,0-0.3
		c-1.2,0-2.4,0-3.6-0.1V14.8z"/>
	<polygon class="st6" points="256.7,10.7 256.7,20.6 262.8,20.6 262.8,18.7 259.3,18.7 259.3,16.6 262.8,16.6 262.8,14.6 
		259.2,14.6 259.2,13 262.8,13 262.8,10.7 	"/>
	<path class="st6" d="M268.1,10.7c-3.2,0-5.8,2.2-5.8,4.9c0,2.7,2.6,4.9,5.8,4.9s5.8-2.2,5.8-4.9C273.8,12.9,271.3,10.7,268.1,10.7z
		 M268.1,18.4c-4.3,0-4.3-5.7,0-5.7C272.5,12.7,272.5,18.4,268.1,18.4z"/>
</g>
<g id="Georgia_text">
	<path class="st7" d="M20,28.1c-0.9,0-1.7-0.2-2.4-0.6s-1.4-1-1.9-1.7s-1-1.7-1.3-2.8c-0.3-1.1-0.5-2.3-0.5-3.7
		c0-1.8,0.3-3.4,0.8-4.7c0.5-1.3,1.2-2.3,2.2-3c0.9-0.7,2-1.1,3.2-1.1c1.5,0,2.8,0.5,3.7,1.4s1.6,2.2,1.9,3.8l-1.9,0.4
		c-0.3-1-0.7-1.8-1.3-2.4c-0.6-0.6-1.3-0.9-2.2-0.9c-0.9,0-1.7,0.3-2.3,0.8S16.7,15,16.4,16s-0.5,2.1-0.5,3.4c0,1.3,0.1,2.4,0.5,3.4
		c0.3,1,0.8,1.7,1.4,2.2c0.6,0.5,1.4,0.8,2.3,0.8c0.7,0,1.4-0.2,1.9-0.5s1-0.9,1.3-1.6c0.3-0.7,0.5-1.6,0.6-2.6h-2.6v-2h4.6
		c0,0.1,0,0.3,0,0.6c0,0.2,0,0.4,0,0.4c0,1.6-0.2,2.9-0.7,4.2c-0.5,1.2-1.2,2.2-2,2.9C22.3,27.8,21.3,28.1,20,28.1z"/>
	<path class="st7" d="M33.8,26.5c-0.8,0.3-1.5,0.4-2.3,0.3c-0.8-0.1-1.4-0.5-2.1-1.1c-0.6-0.6-1.1-1.3-1.6-2.3
		c-0.4-1-0.6-1.9-0.6-2.8c0-0.9,0.2-1.6,0.6-2.3c0.4-0.6,1-1.1,1.7-1.5c0.8-0.3,1.6-0.4,2.3-0.2c0.7,0.2,1.4,0.6,2,1.3
		c0.6,0.7,1.1,1.6,1.5,2.7L34,21.3l-0.3-0.6c-0.5-1.1-1-1.8-1.5-2.1c-0.6-0.4-1.2-0.4-1.9-0.1c-0.8,0.3-1.2,0.8-1.3,1.6
		c-0.1,0.7,0,1.6,0.5,2.7c0.4,1,1,1.7,1.6,2.1c0.6,0.4,1.3,0.4,2,0.1c0.5-0.2,0.8-0.5,1.1-0.9c0.2-0.4,0.3-0.9,0.3-1.4l1.7-0.1
		c0,0.9-0.1,1.8-0.6,2.5C35.2,25.6,34.6,26.2,33.8,26.5z M29.2,23.4L28.6,22l5.6-2.4l0.6,1.4L29.2,23.4z"/>
	<path class="st7" d="M43,28.1c-1,0-1.8-0.3-2.6-0.9c-0.7-0.6-1.3-1.4-1.7-2.4c-0.4-1-0.6-2.2-0.6-3.5c0-1.3,0.2-2.5,0.6-3.5
		c0.4-1,1-1.8,1.7-2.3c0.7-0.6,1.6-0.8,2.5-0.8c1,0,1.8,0.3,2.6,0.9c0.7,0.6,1.3,1.4,1.7,2.3c0.4,1,0.6,2.1,0.6,3.4
		c0,1.3-0.2,2.5-0.6,3.5c-0.4,1-1,1.8-1.7,2.3C44.8,27.8,44,28.1,43,28.1z M43,25.8c0.9,0,1.6-0.4,2.1-1.2s0.7-1.9,0.7-3.1
		c0-1.3-0.2-2.4-0.7-3.2s-1.2-1.2-2.1-1.2c-0.6,0-1.2,0.2-1.6,0.6c-0.4,0.4-0.7,0.9-0.9,1.5c-0.2,0.6-0.3,1.4-0.3,2.3
		c0,1.3,0.2,2.4,0.7,3.2S42.1,25.8,43,25.8z"/>
	<path class="st7" d="M49.8,27.8V15.2h1.7v3.1l-0.2-0.4c0.1-0.4,0.3-0.8,0.5-1.1c0.2-0.3,0.4-0.6,0.7-0.8c0.2-0.2,0.5-0.4,0.8-0.5
		c0.3-0.1,0.6-0.2,0.9-0.2c0.3,0,0.6,0,0.9,0.1v2.3c-0.3-0.1-0.7-0.1-1.1-0.1c-0.4,0-0.8,0.2-1.1,0.5c-0.3,0.3-0.6,0.6-0.7,0.9
		c-0.2,0.4-0.3,0.8-0.4,1.2s-0.1,0.9-0.1,1.4v6.4H49.8z"/>
	<path class="st7" d="M60.4,28.1c-0.9,0-1.7-0.3-2.4-0.9s-1.2-1.4-1.5-2.4c-0.4-1-0.5-2.1-0.5-3.4c0-1.3,0.2-2.4,0.5-3.4
		c0.4-1,0.9-1.8,1.6-2.4c0.7-0.6,1.5-0.9,2.4-0.9c0.9,0,1.7,0.3,2.4,0.9c0.6,0.6,1.1,1.4,1.4,2.4c0.3,1,0.5,2.1,0.5,3.4
		c0,1.3-0.2,2.4-0.5,3.4s-0.8,1.8-1.5,2.4S61.4,28.1,60.4,28.1z M60.6,33.7c-0.5,0-1-0.1-1.5-0.3c-0.5-0.2-0.9-0.5-1.4-0.9
		c-0.4-0.4-0.7-0.9-1-1.5l1.8-1.1c0.2,0.5,0.5,0.9,0.9,1.2c0.4,0.2,0.8,0.4,1.3,0.4c0.5,0,1-0.1,1.4-0.4c0.4-0.2,0.7-0.6,0.9-1.1
		s0.3-1.1,0.3-1.8v-3.5h0.2v-9.4h1.7v12.9c0,0.3,0,0.7,0,1c0,0.3-0.1,0.6-0.1,0.9c-0.1,0.8-0.4,1.5-0.8,2.1s-0.9,1-1.5,1.2
		S61.4,33.7,60.6,33.7z M60.7,25.9c0.6,0,1.1-0.2,1.5-0.6c0.4-0.4,0.7-0.9,0.9-1.6s0.3-1.4,0.3-2.3s-0.1-1.6-0.3-2.3
		s-0.5-1.2-0.9-1.6c-0.4-0.4-0.9-0.6-1.5-0.6c-0.6,0-1.2,0.2-1.6,0.6c-0.4,0.4-0.7,0.9-0.9,1.6S58,20.6,58,21.5
		c0,0.8,0.1,1.6,0.3,2.3s0.5,1.2,0.9,1.6C59.6,25.7,60.1,25.9,60.7,25.9z"/>
	<path class="st7" d="M67.8,13.1v-2.4h1.9v2.4H67.8z M67.8,27.8V15.2h1.9v12.6H67.8z"/>
	<path class="st7" d="M75.2,28.1c-0.7,0-1.3-0.2-1.8-0.5s-0.9-0.8-1.1-1.4c-0.3-0.6-0.4-1.2-0.4-1.9c0-0.6,0.1-1.2,0.3-1.7
		c0.2-0.5,0.4-0.9,0.8-1.2c0.3-0.3,0.8-0.6,1.3-0.8c0.4-0.2,0.9-0.3,1.5-0.4c0.6-0.1,1.1-0.2,1.7-0.4c0.6-0.1,1.2-0.2,1.8-0.3
		L78.6,20c0-1-0.2-1.7-0.5-2.2c-0.3-0.5-0.9-0.7-1.7-0.7c-0.5,0-1,0.2-1.4,0.5c-0.4,0.3-0.7,0.8-0.9,1.5l-1.8-0.7
		c0.2-1.1,0.7-1.9,1.4-2.6c0.7-0.6,1.6-1,2.7-1c0.9,0,1.7,0.2,2.3,0.6c0.7,0.4,1.1,1,1.4,1.8c0.2,0.4,0.3,0.8,0.3,1.3s0.1,1,0.1,1.5
		v7.8h-1.7v-2.9l0.3,0.4c-0.4,1-0.9,1.7-1.6,2.2C76.9,27.9,76.2,28.1,75.2,28.1z M75.6,26.1c0.5,0,1-0.1,1.4-0.4
		c0.4-0.2,0.7-0.6,0.9-0.9c0.2-0.4,0.4-0.8,0.5-1.2c0.1-0.4,0.2-0.8,0.2-1.3c0-0.5,0-0.8,0-1.1l0.6,0.3c-0.6,0.1-1.2,0.2-1.6,0.3
		c-0.5,0.1-0.9,0.2-1.3,0.3s-0.8,0.2-1.1,0.3c-0.3,0.1-0.5,0.3-0.7,0.4c-0.2,0.2-0.4,0.4-0.5,0.6c-0.1,0.2-0.2,0.5-0.2,0.9
		c0,0.3,0.1,0.6,0.2,0.9c0.1,0.3,0.3,0.5,0.6,0.7C74.8,26,75.2,26.1,75.6,26.1z"/>
</g>
<g id="KMUSyC.tif">
	
		<image style="overflow:visible;" width="728" height="432" id="Layer_1_1_" xlink:href="4EA473787BBE2FA.png"  transform="matrix(0.381 0 0 0.4006 6.1299 4.1047)">
	</image>
</g>
</svg>
