<?xml version="1.0" encoding="utf-8"?>
<!-- Generator: Adobe Illustrator 24.0.1, SVG Export Plug-In . SVG Version: 6.00 Build 0)  -->
<svg version="1.1" id="Слой_1" xmlns="http://www.w3.org/2000/svg" xmlns:xlink="http://www.w3.org/1999/xlink" x="0px" y="0px"
	 viewBox="0 0 24 22.8" style="enable-background:new 0 0 24 22.8;" xml:space="preserve">
<style type="text/css">
	.st0{fill:#1EF5E9;}
	.st1{fill:#FFFFFF;}
	.st2{display:none;}
	.st3{display:inline;}
	.st4{fill:#01D925;}
</style>
<g id="Слой_1_4_">
	<g id="Слой_1_1_">
		<g id="Слой_1_2_">
			<g id="Слой_2_2_">
				<path class="st0" d="M0.6,2.5v14C1.1,19.1,3.7,19,3.7,19c1,0.3,1.9-1.4,0-1.5C2.5,17.3,2.5,16,2.5,16V7.2C2.4,6.6,3,6.6,3,6.6
					h17.8c-0.7,0,0.4-0.2,0.4,0.4l0.1,9.4c0,0-0.1,0.9-0.9,1c-1.5,0.2-1.6,1.6,0,1.6c0,0,2.6,0,2.9-2.5v-14c0-1.1-0.6-2-2.1-2H3
					C1.5,0.5,0.6,1.4,0.6,2.5z"/>
				<ellipse class="st1" cx="3.9" cy="3.7" rx="0.9" ry="1"/>
				<ellipse class="st1" cx="11.1" cy="3.7" rx="0.9" ry="1"/>
				<ellipse class="st1" cx="7.5" cy="3.7" rx="0.9" ry="1"/>
			</g>
		</g>
	</g>
	<g id="Слой_2_3_" class="st2">
		<g id="Слой_2_1_" class="st3">
			<g id="Слой_1_3_">
				<path class="st4" d="M12-0.6c1.2,0,2.1,0.9,2.1,1.9v0.1c0,0.6,0.4,1.2,1,1.4c0.6,0.3,1.3,0.1,1.8-0.3l0,0c0.7-0.7,2.1-0.7,2.8,0
					l0,0c0.7,0.7,0.7,2,0,2.7l0,0l0,0c-0.4,0.4-0.6,1.2-0.3,1.7V7c0.3,0.6,0.9,1,1.5,1H21c1.2,0,2.1,0.9,2.1,1.9s-0.9,1.9-2.1,1.9
					h-0.1c-0.6,0-1.3,0.4-1.5,1c-0.3,0.6-0.1,1.3,0.3,1.7l0,0c0.7,0.7,0.7,2,0,2.7l0,0c-0.7,0.7-2.1,0.7-2.8,0l0,0l0,0
					c-0.4-0.4-1.2-0.6-1.8-0.3c-0.6,0.3-1,0.9-1,1.4v0.1c0,1-0.9,1.9-2.1,1.9s-2-0.5-2-1.5v-0.1c0-0.7-0.4-1.3-1-1.4s-1.3,0-1.8,0.4
					l0,0c-0.7,0.7-2.1,0.7-2.8,0l0,0c-0.7-0.7-0.7-2,0-2.7l0,0l0,0c0.4-0.4,0.6-1.2,0.3-1.7c-0.3-0.6-0.9-1-1.5-1H3.1
					c-1.2,0-2.1-0.9-2.1-1.9s0.9-2,2.1-2h0.1c0.7,0,1.3-0.4,1.5-1C5,6.8,4.8,6.1,4.4,5.7l0,0C3.7,5,3.7,3.7,4.4,3l0,0
					c0.7-0.7,2.1-0.7,2.8,0l0,0l0,0C7.6,3.4,8.4,3.6,9,3.3h0.1c0.6-0.3,1-0.9,1-1.4V1.6C10,0.3,10.8-0.6,12-0.6"/>
				<ellipse class="st1" cx="12" cy="10.1" rx="2.9" ry="2.9"/>
			</g>
		</g>
	</g>
	<g>
		<path class="st4" d="M6.5,11.5c0,0-0.1-0.4,0.3-0.7c0.3-0.2,0.7-0.2,0.7-0.1C7.7,10.8,7.8,11,8,11.1c0.2,0.1,0.3,0.3,0.5,0.4
			c0.3-0.2,0.6-0.4,1-0.5c0.7-0.3,1.4-0.4,1.9-0.5c0-0.2,0-0.5,0-0.7h-0.8C10.2,9.7,10,9.4,10,9.1c0-0.4,0.3-0.8,0.8-0.8
			c0.9,0,1.8,0,2.7,0c0.5,0,0.9,0.4,0.9,0.8c0,0.3-0.3,0.6-0.6,0.6s-0.6,0-0.9,0c0,0.2,0,0.5,0.1,0.7c0.4,0,0.9,0.1,1.5,0.3
			s1,0.5,1.3,0.7c0.3-0.3,0.6-0.5,0.9-0.8c0.4-0.2,0.8-0.1,1,0.2c0.3,0.3,0.1,0.7,0.1,0.7c-0.2,0.2-0.5,0.5-0.7,0.7
			c1.7,1.9,2.1,4.5,0.9,6.6c-1.1,2-3.3,3.2-5.5,3.3c-3,0.1-5.9-1.9-6.6-4.6c-0.7-2.8,1.1-5,1.4-5.3C7.2,12.1,7.1,12,7,11.9
			C6.8,11.8,6.7,11.6,6.5,11.5z"/>
		<path class="st1" d="M15.6,18.8c-1.5,1.8-4.4,1.9-6.2,0.5c-1.4-1.2-1.9-3.2-1-4.8c1.1-1.9,3.9-2.6,6-1.4S17.1,17,15.6,18.8z"/>
	</g>
</g>
<path class="st4" d="M9.2,12.1"/>
<path class="st4" d="M20.7,21.4"/>
</svg>
