<?xml version="1.0" encoding="utf-8"?>
<!-- Generator: Adobe Illustrator 24.0.1, SVG Export Plug-In . SVG Version: 6.00 Build 0)  -->
<svg version="1.1" id="Слой_1" xmlns="http://www.w3.org/2000/svg" xmlns:xlink="http://www.w3.org/1999/xlink" x="0px" y="0px"
	 viewBox="0 0 24 24" style="enable-background:new 0 0 24 24;" xml:space="preserve">
<style type="text/css">
	.st0{fill:#01D925;}
	.st1{fill:#FFFFFF;}
	.st2{fill:#1EF5E9;}
</style>
<g id="Слой_1_2_">
	<g id="Слой_2_2_">
		<path class="st0" d="M12,8.8c0.8,0,1.4,0.6,1.4,1.3v0.1c0,0.4,0.3,0.8,0.7,1s0.9,0.1,1.2-0.2l0,0c0.5-0.5,1.4-0.5,1.9,0l0,0
			c0.5,0.5,0.5,1.4,0,1.9l0,0l0,0c-0.3,0.3-0.4,0.8-0.2,1.2v0.1c0.2,0.4,0.6,0.7,1,0.7h0.1c0.8,0,1.4,0.6,1.4,1.3
			c0,0.7-0.6,1.3-1.4,1.3H18c-0.4,0-0.9,0.3-1,0.7c-0.2,0.4-0.1,0.9,0.2,1.2l0,0c0.5,0.5,0.5,1.4,0,1.9l0,0c-0.5,0.5-1.4,0.5-1.9,0
			l0,0l0,0c-0.3-0.3-0.8-0.4-1.2-0.2c-0.4,0.2-0.7,0.6-0.7,1v0.1c0,0.7-0.6,1.3-1.4,1.3s-1.4-0.6-1.4-1.3v-0.1c0-0.5-0.3-0.9-0.7-1
			s-0.9,0-1.2,0.3l0,0c-0.5,0.5-1.4,0.5-1.9,0l0,0c-0.5-0.5-0.5-1.4,0-1.9l0,0l0,0c0.3-0.3,0.4-0.8,0.2-1.2c-0.2-0.4-0.6-0.7-1-0.7
			H5.9c-0.8,0-1.4-0.6-1.4-1.3c0-0.7,0.6-1.3,1.4-1.3H6c0.5,0,0.9-0.3,1-0.7c0.2-0.4,0.1-0.9-0.2-1.2l0,0c-0.5-0.5-0.5-1.4,0-1.9
			l0,0c0.5-0.5,1.4-0.5,1.9,0l0,0l0,0c0.3,0.3,0.8,0.4,1.2,0.2H10c0.4-0.2,0.7-0.6,0.7-1v-0.1C10.6,9.4,11.2,8.8,12,8.8"/>
		<circle class="st1" cx="12" cy="16.2" r="2"/>
		<path class="st2" d="M0.6,2.5v14C1.1,19.1,3.7,19,3.7,19c1,0.3,1.9-1.4,0-1.5C2.5,17.3,2.5,16,2.5,16V7.2C2.4,6.6,3,6.6,3,6.6
			h17.8c-0.7,0,0.4-0.2,0.4,0.4l0.1,9.4c0,0-0.1,0.9-0.9,1c-1.5,0.2-1.6,1.6,0,1.6c0,0,2.6,0,2.9-2.5v-14c0-1.1-0.6-2-2.1-2H3
			C1.5,0.5,0.6,1.4,0.6,2.5z"/>
		<ellipse class="st1" cx="3.9" cy="3.8" rx="0.9" ry="1"/>
		<ellipse class="st1" cx="11.1" cy="3.8" rx="0.9" ry="1"/>
		<ellipse class="st1" cx="7.5" cy="3.8" rx="0.9" ry="1"/>
	</g>
</g>
</svg>
