<svg id="Слой_1" data-name="Слой 1" xmlns="http://www.w3.org/2000/svg" width="135.6mm" height="151.46mm" viewBox="0 0 384.39 429.34"><defs><style>.cls-1{fill:#1ef5e9;}.cls-2{fill:#01d925;}.cls-3{fill:#fff;}</style></defs><title>ft-2</title><path class="cls-1" d="M234.67,442.34c24.8-9.28,103-42.2,142.83-124.51a229.85,229.85,0,0,0,21-71.09V79.91C381.3,71.38,265.2,33.59,234.67,29.37,207.18,29,87.84,65.26,74.24,73.75L77,252.45a234.22,234.22,0,0,0,25.38,76.92C142.1,403.09,210.65,433.12,234.67,442.34Z" transform="translate(-14.06 -13)"/><ellipse class="cls-2" cx="84.11" cy="77.49" rx="84.11" ry="77.49"/><polygon class="cls-3" points="42.55 86.48 71.01 111.11 121.35 65.69 111.5 55.56 72.1 90.31 53.5 75.53 42.55 86.48"/></svg>