<svg xmlns="http://www.w3.org/2000/svg" width="165.57mm" height="167.91mm" viewBox="0 0 469.33 475.97"><defs><style>.cls-1{fill:#1ef5e9;}.cls-2{fill:#01d925;}.cls-3{fill:#fff;}.cls-4{fill:none;stroke:#fff;stroke-miterlimit:10;}</style></defs><title>ft-3</title><g id="Слой_1" data-name="Слой 1"><circle class="cls-1" cx="239.04" cy="247.63" r="208.4"/><ellipse class="cls-2" cx="98.17" cy="90.49" rx="84.11" ry="77.49"/><polygon class="cls-3" points="56.61 99.48 85.07 124.11 135.41 78.69 125.56 68.56 86.16 103.31 67.56 88.53 56.61 99.48"/></g><g id="Слой_2" data-name="Слой 2"><path class="cls-3" d="M246.82,293.21a3.61,3.61,0,0,1-5.44.08l-38.76-43.35a3.6,3.6,0,0,0-5.48.13l-54.83,67.45a3.6,3.6,0,0,1-5.41.2l-11.67-12.33a3.6,3.6,0,0,1-.15-4.79L197.58,214a3.59,3.59,0,0,1,5.47-.06l38.48,44.1a3.61,3.61,0,0,0,5.55-.14l52.08-66.15a3.6,3.6,0,0,0-2.68-5.83l-18.93-.77a3.59,3.59,0,0,1-3.45-3.5l-.52-18.8a3.6,3.6,0,0,1,3.72-3.7l60.88,1.91a3.6,3.6,0,0,1,3.49,3.6v76.39a3.61,3.61,0,0,1-3.6,3.61H323.46a3.6,3.6,0,0,1-3.6-3.49l-.78-24.11a3.6,3.6,0,0,0-6.35-2.2Z"/><path class="cls-4" d="M125.23,305.39l11.67,12.33a3.6,3.6,0,0,0,5.41-.2l54.83-67.45a3.6,3.6,0,0,1,5.48-.13l38.76,43.35a3.61,3.61,0,0,0,5.44-.08l65.91-78.33a3.6,3.6,0,0,1,6.35,2.2l.78,24.11a3.6,3.6,0,0,0,3.6,3.49h14.61a3.61,3.61,0,0,0,3.6-3.61V164.68a3.6,3.6,0,0,0-3.49-3.6l-60.88-1.91a3.6,3.6,0,0,0-3.72,3.7l.52,18.8a3.59,3.59,0,0,0,3.45,3.5l18.93.77a3.6,3.6,0,0,1,2.68,5.83l-52.08,66.15a3.61,3.61,0,0,1-5.55.14L203.05,214a3.59,3.59,0,0,0-5.47.06l-72.5,86.58A3.6,3.6,0,0,0,125.23,305.39Z"/></g></svg>