<?xml version="1.0" encoding="utf-8"?>
<!-- Generator: Adobe Illustrator 24.0.1, SVG Export Plug-In . SVG Version: 6.00 Build 0)  -->
<svg version="1.1" id="Слой_1" xmlns="http://www.w3.org/2000/svg" xmlns:xlink="http://www.w3.org/1999/xlink" x="0px" y="0px"
	 viewBox="0 0 469.3 476" style="enable-background:new 0 0 469.3 476;" xml:space="preserve">
<style type="text/css">
	.st0{fill:#1EF5E9;}
	.st1{fill:#01D925;}
	.st2{fill:#FFFFFF;}
</style>
<path class="st0" d="M234.7,442.3c24.8-9.3,103-42.2,142.8-124.5c12.6-26,18.4-50.9,21-71.1c0-55.6,0-111.2,0-166.8
	c-17.2-8.5-133.3-46.3-163.8-50.5C207.2,29,87.8,65.3,74.2,73.7c0.9,59.6,1.8,119.1,2.7,178.7c3.1,20.9,9.9,48.2,25.4,76.9
	C142.1,403.1,210.6,433.1,234.7,442.3z"/>
<ellipse class="st1" cx="98.2" cy="90.5" rx="84.1" ry="77.5"/>
<polygon class="st2" points="56.6,99.5 85.1,124.1 135.4,78.7 125.6,68.6 86.2,103.3 67.6,88.5 "/>
</svg>
