<svg xmlns="http://www.w3.org/2000/svg" width="8.3mm" height="9.47mm" viewBox="0 0 23.52 26.84"><defs><style>.cls-1{fill:#1ef5e9;}.cls-2{fill:#fff;}.cls-3{fill:#01d925;}</style></defs><title>ft-4</title><g id="Слой_1" data-name="Слой 1"><g id="Слой_1-2" data-name="Слой 1"><g id="Слой_1-3" data-name="Слой 1"><g id="Слой_2" data-name="Слой 2"><path class="cls-1" d="M.6,4.1v14a3.06,3.06,0,0,0,3.1,2.5c1,.3,1.9-1.4,0-1.5a1.52,1.52,0,0,1-1.2-1.5V8.8A.49.49,0,0,1,3,8.2H20.8c-.7,0,.4-.2.4.4l.1,9.4s-.1.9-.9,1c-1.5.2-1.6,1.6,0,1.6a2.9,2.9,0,0,0,2.9-2.5V4.1a1.87,1.87,0,0,0-2.1-2H3A2.13,2.13,0,0,0,.6,4.1Z" transform="translate(-0.5 -2.1)"/><ellipse class="cls-2" cx="3.4" cy="3.2" rx="0.9" ry="1"/><ellipse class="cls-2" cx="10.6" cy="3.2" rx="0.9" ry="1"/><ellipse class="cls-2" cx="7" cy="3.2" rx="0.9" ry="1"/></g></g></g><path class="cls-3" d="M6.46,13.16a.79.79,0,0,1,.3-.71.9.9,0,0,1,.73-.14l1,.84a6.17,6.17,0,0,1,1-.54,6,6,0,0,1,1.93-.48v-.72h-.82a.79.79,0,0,1-.58-.7.83.83,0,0,1,.83-.78h2.7a.84.84,0,0,1,.91.8.82.82,0,0,1-.63.65H13l.06.69a5.24,5.24,0,0,1,1.47.34,4.91,4.91,0,0,1,1.28.74l.92-.78a.9.9,0,0,1,1,.18.78.78,0,0,1,.14.74l-.71.74a5.79,5.79,0,0,1,1,6.64A6.56,6.56,0,0,1,12.56,24a6.6,6.6,0,0,1-6.63-4.6,6.15,6.15,0,0,1,1.39-5.27Z" transform="translate(-0.5 -2.1)"/><path class="cls-2" d="M15.62,20.4a4.55,4.55,0,0,1-6.18.53,3.8,3.8,0,0,1-1-4.83,4.5,4.5,0,0,1,6-1.38A3.82,3.82,0,0,1,15.62,20.4Z" transform="translate(-0.5 -2.1)"/></g><g id="Слой_2-2" data-name="Слой 2"><path class="cls-3" d="M9.06,28.58l14.28-15a6,6,0,0,0-.41-6.2A6,6,0,0,0,16.2,5.31L.82,20.32a7,7,0,0,0,1.1,6.33A6.56,6.56,0,0,0,9.06,28.58Z" transform="translate(-0.5 -2.1)"/></g></svg>