<svg id="Слой_1" data-name="Слой 1" xmlns="http://www.w3.org/2000/svg" width="8.47mm" height="8.04mm" viewBox="0 0 24 22.8"><defs><style>.cls-1{fill:#1ef5e9;}.cls-2{fill:#fff;}.cls-3{fill:#01d925;}</style></defs><title>ft-4</title><g id="Слой_1-2" data-name="Слой 1"><g id="Слой_1-3" data-name="Слой 1"><g id="Слой_1-4" data-name="Слой 1"><g id="Слой_2" data-name="Слой 2"><path class="cls-1" d="M.6,2.5v14A3.06,3.06,0,0,0,3.7,19c1,.3,1.9-1.4,0-1.5A1.52,1.52,0,0,1,2.5,16V7.2A.49.49,0,0,1,3,6.6H20.8c-.7,0,.4-.2.4.4l.1,9.4s-.1.9-.9,1c-1.5.2-1.6,1.6,0,1.6a2.9,2.9,0,0,0,2.9-2.5V2.5a1.87,1.87,0,0,0-2.1-2H3A2.13,2.13,0,0,0,.6,2.5Z"/><ellipse class="cls-2" cx="3.9" cy="3.7" rx="0.9" ry="1"/><ellipse class="cls-2" cx="11.1" cy="3.7" rx="0.9" ry="1"/><ellipse class="cls-2" cx="7.5" cy="3.7" rx="0.9" ry="1"/></g></g></g><path class="cls-3" d="M6.5,11.5a.7.7,0,0,1,.3-.7c.3-.2.7-.2.7-.1l.49.39.51.41a3.13,3.13,0,0,1,1-.5,9,9,0,0,1,1.9-.5V9.8h-.8a.73.73,0,0,1-.6-.7.79.79,0,0,1,.8-.8h2.7a.88.88,0,0,1,.9.8.65.65,0,0,1-.6.6h-.9a1.7,1.7,0,0,0,.1.7,4.94,4.94,0,0,1,1.5.3,5,5,0,0,1,1.3.7c.3-.3.6-.5.9-.8a.75.75,0,0,1,1,.2.63.63,0,0,1,.1.7l-.7.7a5.64,5.64,0,0,1,.9,6.6A6.67,6.67,0,0,1,5.9,17.5a6,6,0,0,1,1.4-5.3L7,11.91Z"/><path class="cls-2" d="M15.6,18.8a4.62,4.62,0,0,1-6.2.5,3.87,3.87,0,0,1-1-4.8,4.5,4.5,0,0,1,6-1.4A3.78,3.78,0,0,1,15.6,18.8Z"/></g></svg>