<svg id="Слой_1" data-name="Слой 1" xmlns="http://www.w3.org/2000/svg" width="99.32mm" height="108.28mm" viewBox="0 0 281.54 306.94"><defs><style>.cls-1{fill:#01d925;}.cls-2{fill:#fff;}</style></defs><title>ft-4-clock</title><path class="cls-1" d="M38.92,80.09c-.06-.42-1.09-8.66,5.38-13.92,5.85-4.76,12.83-3,13.52-2.8L76.71,80A100.18,100.18,0,0,1,94.23,69.38a101.87,101.87,0,0,1,35.26-9.48V45.78h-15C108.27,43.5,104,37.94,103.9,32c-.19-7.62,6.31-14.84,15.2-15.52h49.48c10,.15,17.18,8.2,16.61,15.87-.42,5.64-5,10.84-11.4,12.8H158.16l1,13.63A88.56,88.56,0,0,1,209.63,80l16.85-15.45c6.71-3.14,14.44-1.53,18.72,3.59,5.08,6.07,2.7,13.95,2.53,14.49l-13,14.58c31.43,36.87,38.19,88.44,17.37,130.74-19.76,40.15-60.4,63.83-101.37,65.48C95,295.71,42.09,257,29.15,203.06,16.1,148.65,50,104.93,54.56,99.2Z"/><path class="cls-2" d="M206.68,222.71c-27.55,36.37-81.44,38-113.27,10.31C67,210.1,58.39,169.37,75.78,138,96.4,100.68,148.09,86.49,186,110.88,223.1,134.79,233.58,187.2,206.68,222.71Z"/><path class="cls-1" d="M150.8,190.21l33.47-35.07a13.67,13.67,0,0,0-16.74-19.31l-36,35.07c-.14.42-2.75,8.44,2.58,14.81A15.43,15.43,0,0,0,150.8,190.21Z"/></svg>