<svg id="Слой_2" data-name="Слой 2" xmlns="http://www.w3.org/2000/svg" width="8.47mm" height="8.47mm" viewBox="0 0 24 24"><defs><style>.cls-1{fill:#01d925;}.cls-2{fill:#fff;}</style></defs><title>gear</title><g id="Слой_2-2" data-name="Слой 2"><g id="Слой_1" data-name="Слой 1"><path class="cls-1" d="M12,1a2,2,0,0,1,2.06,1.88v.14a1.74,1.74,0,0,0,1,1.45,1.6,1.6,0,0,0,1.76-.29h0a2.05,2.05,0,0,1,2.79,0h0a2,2,0,0,1,0,2.74h0a1.52,1.52,0,0,0-.29,1.73v.15a1.76,1.76,0,0,0,1.47,1H21A2,2,0,0,1,23,11.73,2,2,0,0,1,21,13.61h-.15a1.59,1.59,0,0,0-1.47,1,1.52,1.52,0,0,0,.29,1.73h0a2,2,0,0,1,0,2.74h0a2.05,2.05,0,0,1-2.79,0h0a1.58,1.58,0,0,0-1.76-.28,1.72,1.72,0,0,0-1,1.44v.14A2,2,0,0,1,12,22.27,2,2,0,0,1,10,20.39v-.14a1.43,1.43,0,0,0-1-1.44,2,2,0,0,0-1.76.43h0a2.07,2.07,0,0,1-2.79,0h0a2,2,0,0,1,0-2.75h0a1.5,1.5,0,0,0,.29-1.73,1.76,1.76,0,0,0-1.47-1H3.05a2,2,0,0,1-2-1.88A2,2,0,0,1,3.05,10H3.2A1.45,1.45,0,0,0,4.67,9a1.5,1.5,0,0,0-.29-1.73h0a2,2,0,0,1,0-2.74h0a2.05,2.05,0,0,1,2.79,0h0a1.58,1.58,0,0,0,1.76.28h.15a1.72,1.72,0,0,0,1-1.44V3.21A1.85,1.85,0,0,1,12,1"/><ellipse class="cls-2" cx="12.02" cy="11.73" rx="2.94" ry="2.89"/></g></g></svg>