<svg id="Layer_1" data-name="Layer 1" xmlns="http://www.w3.org/2000/svg" width="33.9mm" height="36.06mm" viewBox="0 0 96.11 102.23"><defs><style>.cls-1{fill-rule:evenodd;}</style></defs><title>lock</title><path class="cls-1" d="M27.09,55l.38-17a22.4,22.4,0,0,1,6-15.38,19.73,19.73,0,0,1,29.08,0h0a22.37,22.37,0,0,1,6,15.38v4.75c4.36-.2,8.72-.47,13.08-.85V38.18a36.53,36.53,0,0,0-9.89-25.13h0a32.26,32.26,0,0,0-47.54,0h0a36.53,36.53,0,0,0-9.89,25.13V55C18.75,54.54,22.72,55.17,27.09,55Z"/><path class="cls-1" d="M87.65,40.79H8.46a2.51,2.51,0,0,0-2.53,2.47V95.5A2.51,2.51,0,0,0,8.46,98H87.65a2.51,2.51,0,0,0,2.53-2.47V43.26A2.51,2.51,0,0,0,87.65,40.79ZM55,62.23a7.33,7.33,0,0,1-6,7.14l-3.76-.2a7.27,7.27,0,0,1-5.14-7.72A7.47,7.47,0,0,1,55,62.23"/></svg>