<?xml version="1.0" encoding="utf-8"?>
<!-- Generator: Adobe Illustrator 24.0.1, SVG Export Plug-In . SVG Version: 6.00 Build 0)  -->
<svg version="1.1" id="Слой_1" xmlns="http://www.w3.org/2000/svg" xmlns:xlink="http://www.w3.org/1999/xlink" x="0px" y="0px"
	 viewBox="0 0 308.6 338.1" style="enable-background:new 0 0 308.6 338.1;" xml:space="preserve">
<style type="text/css">
	.st0{fill:none;stroke:#000000;stroke-width:20;stroke-miterlimit:10;}
	.st1{fill:none;stroke:#000000;stroke-width:12;stroke-miterlimit:10;}
</style>
<path class="st0" d="M104.6,29.1c17.5-10.2,34.7-10.3,44.3-10.2c9.8,0.1,18,1.6,23.8,3c6.4,0.9,22.4,4,35.9,16.9
	c2.9,2.8,10.1,9.8,14.6,21.6c2.3,6,3.1,11.3,3.5,15.1c1,6.7,1.8,14.6,1.8,23.4c0,10.9-1.2,20.5-2.7,28.4c-1.6,7.1-3.2,14.1-4.8,21.2
	c-3.1,11.1-6.6,22.6-10.7,34.4c-11.8,34.1-25.7,63.8-39.9,89.3c-6.8,11.2-13.6,22.4-20.5,33.5c-6.3-10.5-12.5-20.9-18.8-31.4
	c-10.3-20.8-20.5-41.5-30.8-62.3l-13-35.2l-8.4-23.8l-4.3-17.3c-2.3-10.2-4.2-23.4-3.9-38.8c0.2-10.3,1.4-19.4,2.9-27.1
	c1.5-5.9,5.1-16.1,13.5-26C88.6,41.7,94.5,35,104.6,29.1z"/>
<path class="st1" d="M148.8,80.5c9.1-0.3,17.7,4.3,22.5,12c1,2,3.6,8.2,2,15.9c-0.3,1.5-1.5,6.6-5.7,11c-6.7,7-20.6,11.6-31.4,4.1
	c-9.5-6.6-13.3-18.5-9.3-28.3C130.4,86.1,139.7,80.8,148.8,80.5z"/>
</svg>
