<?xml version="1.0" encoding="utf-8"?>
<!-- Generator: Adobe Illustrator 24.0.1, SVG Export Plug-In . SVG Version: 6.00 Build 0)  -->
<svg version="1.1" id="Слой_1" xmlns="http://www.w3.org/2000/svg" xmlns:xlink="http://www.w3.org/1999/xlink" x="0px" y="0px"
	 viewBox="0 0 171.6 202" style="enable-background:new 0 0 171.6 202;" xml:space="preserve">
<style type="text/css">
	.st0{fill:#F2F2F2;}
	.st1{fill:#FFFFFF;}
	.st2{fill:#F1F1F2;}
	.st3{fill:#343434;}
	.st4{font-family:'Arial-BoldMT';}
	.st5{font-size:4.39px;}
	.st6{fill:url(#SVGID_1_);}
	.st7{opacity:0.25;fill:url(#SVGID_2_);enable-background:new    ;}
	.st8{fill:url(#SVGID_3_);}
	.st9{opacity:0.2;}
	.st10{fill:none;stroke:#8D8D8D;stroke-width:0.24;stroke-miterlimit:9.9997;}
	.st11{fill:none;stroke:#EAEAEA;stroke-width:0.6;stroke-linecap:round;stroke-linejoin:round;stroke-miterlimit:3.9999;}
	.st12{fill:#3357A4;}
</style>
<title>transactions</title>
<g>
	<g id="Слой_1_1_">
		<g>
			
				<image style="overflow:visible;opacity:0.25;" width="177" height="216" xlink:href="CB2985B69F18C589.png"  transform="matrix(1 0 0 1 1.4961 -2.5039)">
			</image>
			<g>
				<path class="st0" d="M166.7,202V26.2C166.7,14,156.8,4,144.5,4H30C17.7,4,7.8,14,7.8,26.2V202"/>
			</g>
		</g>
		<path class="st1" d="M144.6,6.8H30c-10.6,0-19.1,8.6-19.1,19.1c0,0,0.4,176,0.6,176c2.6,0,143.2,0,152.3,0V26
			C163.7,15.4,155.1,6.8,144.6,6.8z"/>
		<path class="st0" d="M78.1,13.8h18.2c0.5,0,0.9,0.4,0.9,0.9v0.4c0,0.5-0.4,0.9-0.9,0.9H78.1c-0.5,0-0.9-0.4-0.9-0.9v-0.4
			C77.2,14.2,77.6,13.8,78.1,13.8z"/>
		<ellipse class="st0" cx="104.6" cy="15.2" rx="3" ry="2.8"/>
		<ellipse class="st1" cx="104.6" cy="15.2" rx="2.5" ry="2.3"/>
		<ellipse class="st2" cx="104.6" cy="15.2" rx="2.1" ry="2"/>
		<text transform="matrix(1.08 0 0 1 32.7715 20.9293)" class="st3 st4 st5">8:30</text>
		<rect x="129.5" y="19.6" class="st3" width="1" height="1.5"/>
		<rect x="130.9" y="19" class="st3" width="1" height="2"/>
		<rect x="132.3" y="18.5" class="st3" width="1" height="2.6"/>
		<rect x="133.7" y="17.8" class="st3" width="1" height="3.3"/>
		<path class="st3" d="M136.8,19.5c1.2-1.1,3.1-1.1,4.3,0l0.6-0.6c-1.6-1.4-4-1.4-5.6,0L136.8,19.5z"/>
		<path class="st3" d="M137.6,20.3c0.7-0.6,1.8-0.6,2.6,0l0.6-0.6c-0.5-0.5-1.2-0.7-1.9-0.7s-1.4,0.3-1.9,0.7L137.6,20.3z"/>
		<path class="st3" d="M138.5,21.1c0.2-0.2,0.6-0.2,0.8,0l0.6-0.6c-0.3-0.3-0.7-0.4-1.1-0.4c-0.4,0-0.8,0.1-1.1,0.4L138.5,21.1z"/>
		<path class="st3" d="M143.3,18.2h5.8c0.1,0,0.2,0.1,0.2,0.2v2.1c0,0.1-0.1,0.2-0.2,0.2h-5.8c-0.1,0-0.2-0.1-0.2-0.2v-2.1
			C143.1,18.3,143.2,18.2,143.3,18.2z"/>
		<path class="st3" d="M149.5,18.9h0.2c0.1,0,0.2,0.1,0.2,0.2v0.7c0,0.1-0.1,0.2-0.2,0.2h-0.2c-0.1,0-0.2-0.1-0.2-0.2v-0.7
			C149.4,19,149.5,18.9,149.5,18.9z"/>
		
			<linearGradient id="SVGID_1_" gradientUnits="userSpaceOnUse" x1="53.7292" y1="658.5408" x2="148.5592" y2="563.7108" gradientTransform="matrix(1 0 0 1 -3.794968e-03 -532.0162)">
			<stop  offset="0" style="stop-color:#F18532"/>
			<stop  offset="0.31" style="stop-color:#E85F37"/>
			<stop  offset="0.43" style="stop-color:#E45D46"/>
			<stop  offset="0.54" style="stop-color:#E15B4F"/>
			<stop  offset="0.75" style="stop-color:#8D464C"/>
			<stop  offset="1" style="stop-color:#272D49"/>
		</linearGradient>
		<path class="st6" d="M154.3,58.9v68.2c0,4-3.3,7.3-7.3,7.3H27.5c-4,0-7.3-3.3-7.3-7.3l0,0V58.9c0-4,3.3-7.3,7.3-7.3H147
			C151,51.6,154.3,54.9,154.3,58.9L154.3,58.9z"/>
		
			<linearGradient id="SVGID_2_" gradientUnits="userSpaceOnUse" x1="-53.0886" y1="497.9853" x2="-38.9786" y2="497.9453" gradientTransform="matrix(0.9999 8.028203e-03 -8.028203e-03 0.9999 87.9123 -406.6481)">
			<stop  offset="0" style="stop-color:#2B2B2B"/>
			<stop  offset="1" style="stop-color:#636363"/>
		</linearGradient>
		<path class="st7" d="M43.2,97.1L33.3,97c-1-0.1-1.8-1-1.7-2l0.1-8.3c-0.1-1,0.7-1.9,1.7-2l0,0l9.9,0.1c1,0.1,1.8,1,1.7,2l0,0
			l-0.1,8.3C45,96.1,44.2,97,43.2,97.1L43.2,97.1z"/>
		
			<linearGradient id="SVGID_3_" gradientUnits="userSpaceOnUse" x1="-53.2883" y1="497.7422" x2="-39.1783" y2="497.6922" gradientTransform="matrix(0.9999 8.028203e-03 -8.028203e-03 0.9999 87.9123 -406.6481)">
			<stop  offset="0" style="stop-color:#CFCFCF"/>
			<stop  offset="1" style="stop-color:#9E9E9E"/>
		</linearGradient>
		<path class="st8" d="M43,96.8l-9.9-0.1c-1-0.1-1.8-1-1.7-2l0,0l0.1-8.3c-0.1-1,0.7-1.9,1.7-1.9l9.9,0.1c1,0.1,1.8,1,1.7,2l0,0v8.3
			C44.8,95.8,44.1,96.7,43,96.8L43,96.8z"/>
		<g class="st9">
			<polygon class="st10" points="40.1,92.9 35.5,92.8 35.5,88 40.2,88.1 			"/>
			<polygon class="st10" points="42.3,86.2 37.9,86.2 37.9,88 42.3,88.1 			"/>
			<polygon class="st10" points="37.9,86.2 33.4,86.1 33.4,88 37.9,88 			"/>
			<polygon class="st10" points="42.3,92.9 37.8,92.9 37.8,94.7 42.3,94.7 			"/>
			<polygon class="st10" points="37.8,92.9 33.4,92.8 33.4,94.7 37.8,94.7 			"/>
			<line class="st10" x1="42.3" y1="88.1" x2="44.6" y2="88.1"/>
			<line class="st10" x1="42.3" y1="92.9" x2="44.6" y2="92.9"/>
			<line class="st10" x1="31.2" y1="88" x2="33.5" y2="88"/>
			<line class="st10" x1="31.2" y1="92.8" x2="33.5" y2="92.8"/>
			<line class="st10" x1="31.2" y1="90.4" x2="35.5" y2="90.4"/>
			<line class="st10" x1="40.2" y1="90.5" x2="44.6" y2="90.5"/>
			<line class="st10" x1="33.4" y1="94.7" x2="33.3" y2="96.4"/>
			<line class="st10" x1="37.8" y1="94.7" x2="37.8" y2="96.5"/>
			<line class="st10" x1="42.3" y1="94.7" x2="42.3" y2="96.5"/>
			<line class="st10" x1="35.6" y1="94.7" x2="35.6" y2="96.5"/>
			<line class="st10" x1="40.1" y1="94.7" x2="40.1" y2="96.6"/>
			<line class="st10" x1="33.4" y1="84.4" x2="33.4" y2="86.1"/>
			<line class="st10" x1="37.9" y1="84.4" x2="37.9" y2="86.2"/>
			<line class="st10" x1="42.3" y1="84.5" x2="42.3" y2="86.2"/>
			<line class="st10" x1="35.7" y1="84.4" x2="35.6" y2="86.3"/>
			<line class="st10" x1="40.2" y1="84.4" x2="40.2" y2="86.3"/>
		</g>
		
			<image style="overflow:visible;enable-background:new    ;" width="533" height="567" xlink:href="CB2985B69F18C585.png"  transform="matrix(2.791316e-02 0 0 2.791316e-02 26.4623 56.5248)">
		</image>
		
			<image style="overflow:visible;enable-background:new    ;" width="833" height="533" xlink:href="CB2985B69F18C584.png"  transform="matrix(2.852197e-02 0 0 2.852197e-02 125.8089 115.2355)">
		</image>
		<g>
			<path class="st11" d="M139.7,88.8c1.6,1.8,1.6,4.5,0,6.2"/>
			<path class="st11" d="M141.4,87.4c2.4,2.4,2.1,6.9,0,8.9"/>
			<path class="st11" d="M143.3,86.3c3,3.1,2.7,8.7,0,11.2"/>
		</g>
		<path class="st1" d="M31.7,123.7l-0.2-0.2l0.3-0.5l-0.5-0.2l0.1-0.3l0.5,0.2v-0.6h0.3v0.6l0.5-0.2l0.1,0.3l-0.5,0.2l0.3,0.5
			l-0.2,0.2l-0.3-0.5L31.7,123.7z"/>
		<path class="st1" d="M33.4,123.7l-0.2-0.2l0.3-0.5l-0.5-0.2l0.1-0.3l0.5,0.2v-0.6h0.3v0.6l0.5-0.2l0.1,0.3L34,123l0.3,0.5
			l-0.2,0.2l-0.3-0.5L33.4,123.7z"/>
		<path class="st1" d="M35.2,123.7l-0.2-0.2l0.3-0.5l-0.5-0.2l0.1-0.3l0.5,0.2v-0.6h0.3v0.6l0.5-0.2l0.1,0.3l-0.5,0.2l0.3,0.5
			l-0.2,0.2l-0.3-0.5L35.2,123.7z"/>
		<path class="st1" d="M36.9,123.7l-0.2-0.2L37,123l-0.5-0.2l0.1-0.3l0.5,0.2v-0.6h0.3v0.6l0.5-0.2l0.1,0.3l-0.5,0.2l0.3,0.5
			l-0.2,0.2l-0.3-0.5L36.9,123.7z"/>
		<path class="st1" d="M39.2,125.8c-0.1,0-0.3,0-0.4-0.1c-0.1-0.1-0.2-0.2-0.3-0.3c-0.1-0.1-0.2-0.3-0.2-0.5l0.3-0.1
			c0,0.1,0.1,0.2,0.1,0.3c0.1,0.1,0.1,0.2,0.2,0.2c0.1,0,0.2,0.1,0.3,0.1s0.2,0,0.3-0.1s0.2-0.2,0.2-0.3c0.1-0.1,0.1-0.3,0.1-0.4
			s0-0.3-0.1-0.4s-0.1-0.2-0.2-0.3c-0.1-0.1-0.2-0.1-0.3-0.1s-0.2,0-0.3,0.1s-0.2,0.2-0.2,0.3l-0.3-0.1l0.1-1.9H40v0.3h-1.4l0.1-0.2
			l-0.1,1.6l-0.1-0.1c0.1-0.1,0.2-0.2,0.3-0.3c0.1-0.1,0.2-0.1,0.4-0.1s0.3,0.1,0.5,0.2c0.1,0.1,0.3,0.3,0.3,0.4
			c0.1,0.2,0.1,0.4,0.1,0.6s0,0.4-0.1,0.6s-0.2,0.3-0.4,0.4C39.6,125.7,39.4,125.8,39.2,125.8z"/>
		<path class="st1" d="M41.7,122c0.2,0,0.3,0.1,0.5,0.2s0.3,0.3,0.3,0.4c0.1,0.2,0.1,0.4,0.1,0.6v1.2c0,0.2,0,0.4-0.1,0.6
			s-0.2,0.3-0.4,0.4c-0.1,0.1-0.3,0.2-0.5,0.2s-0.3,0-0.4-0.1c-0.1-0.1-0.3-0.2-0.3-0.4l0.2-0.2c0.1,0.1,0.1,0.2,0.2,0.3
			c0.1,0.1,0.2,0.1,0.3,0.1s0.3,0,0.4-0.1c0.1-0.1,0.2-0.2,0.2-0.3c0.1-0.1,0.1-0.3,0.1-0.4v-0.8l0.1,0.1c-0.1,0.2-0.2,0.3-0.3,0.4
			s-0.3,0.2-0.4,0.1c-0.2,0-0.3-0.1-0.5-0.2s-0.3-0.3-0.3-0.4c-0.1-0.2-0.1-0.4-0.1-0.6s0-0.4,0.1-0.6s0.2-0.3,0.3-0.4
			C41.3,122.1,41.5,122,41.7,122z M41.7,122.3c-0.1,0-0.2,0-0.3,0.1s-0.2,0.2-0.2,0.3c-0.1,0.3-0.1,0.6,0,0.9
			c0.1,0.1,0.1,0.2,0.2,0.3c0.1,0.1,0.2,0.1,0.3,0.1s0.2,0,0.4-0.1c0.1-0.1,0.2-0.2,0.2-0.3c0.1-0.3,0.1-0.6,0-0.9
			c-0.1-0.1-0.1-0.2-0.2-0.3C41.9,122.4,41.8,122.4,41.7,122.3L41.7,122.3z"/>
		<path class="st1" d="M44.2,125.8c-0.2,0-0.3-0.1-0.5-0.2s-0.3-0.3-0.4-0.4c-0.1-0.2-0.1-0.4-0.1-0.6v-1.2c0-0.2,0-0.4,0.1-0.6
			s0.2-0.3,0.4-0.4c0.1-0.1,0.3-0.2,0.5-0.2s0.3,0,0.4,0.1c0.1,0.1,0.3,0.2,0.3,0.4l-0.2,0.2c-0.1-0.1-0.1-0.2-0.2-0.3
			c-0.2-0.1-0.5-0.1-0.7,0c-0.1,0.1-0.2,0.2-0.2,0.3c-0.1,0.1-0.1,0.3-0.1,0.4v0.8l-0.1-0.1c0.1-0.2,0.2-0.3,0.3-0.4
			s0.3-0.2,0.4-0.2c0.2,0,0.3,0.1,0.5,0.2s0.3,0.3,0.3,0.5c0.1,0.2,0.1,0.4,0.1,0.6s0,0.4-0.1,0.6s-0.2,0.3-0.4,0.4
			C44.5,125.7,44.3,125.8,44.2,125.8z M44.2,125.4c0.1,0,0.2,0,0.3-0.1s0.2-0.2,0.2-0.3c0.1-0.1,0.1-0.3,0.1-0.4s0-0.3-0.1-0.4
			s-0.1-0.2-0.2-0.3c-0.1-0.1-0.2-0.1-0.3-0.1s-0.2,0-0.3,0.1s-0.2,0.2-0.2,0.3c-0.1,0.1-0.1,0.3-0.1,0.4s0,0.3,0.1,0.4
			s0.1,0.2,0.2,0.3C43.9,125.4,44,125.4,44.2,125.4z"/>
		<path class="st1" d="M46.6,125.8c-0.2,0-0.3-0.1-0.5-0.1c-0.1-0.1-0.3-0.3-0.3-0.4c-0.1-0.2-0.1-0.4-0.1-0.6v-1.4
			c0-0.2,0-0.4,0.1-0.6s0.2-0.3,0.3-0.4c0.3-0.2,0.7-0.2,1,0c0.1,0.1,0.3,0.3,0.3,0.4c0.1,0.2,0.1,0.4,0.1,0.6v1.4
			c0,0.2,0,0.4-0.1,0.6s-0.2,0.3-0.3,0.4C47,125.7,46.8,125.8,46.6,125.8z M46.6,125.4c0.1,0,0.2,0,0.3-0.1s0.2-0.2,0.2-0.3
			c0.1-0.1,0.1-0.3,0.1-0.4v-1.4c0-0.1,0-0.3-0.1-0.4s-0.1-0.2-0.2-0.3c-0.1-0.1-0.2-0.1-0.3-0.1s-0.2,0-0.3,0.1s-0.2,0.2-0.2,0.3
			c-0.1,0.1-0.1,0.3-0.1,0.4v1.4c0,0.1,0,0.3,0.1,0.4s0.1,0.2,0.2,0.3C46.4,125.4,46.5,125.4,46.6,125.4z"/>
		<g id="Page-1">
			<g id="Face-ID">
				<g id="Corners">
					<g id="Corner">
						<path class="st12" d="M77.5,158.9v-2.2c0-1.3,1.1-2.2,2.3-2.2h0.1h2.4c0.3,0.1,0.5-0.1,0.6-0.4c0.1-0.3-0.1-0.5-0.4-0.6
							c-0.1,0-0.1,0-0.2,0h-2.4c-1.9-0.1-3.4,1.3-3.5,3.2c0,0,0,0,0,0.1v2.2c0,0.3,0.3,0.6,0.6,0.6
							C77.2,159.5,77.5,159.2,77.5,158.9L77.5,158.9z"/>
					</g>
					<g id="Corner-2">
						<path class="st12" d="M97,158.9v-2.2c0-1.3-1.1-2.3-2.4-2.2c0,0,0,0-0.1,0h-2.4c-0.3,0.1-0.5-0.1-0.6-0.4
							c-0.1-0.3,0.1-0.5,0.4-0.6c0.1,0,0.1,0,0.2,0h2.4c1.9-0.1,3.4,1.3,3.5,3.2c0,0,0,0,0,0.1v2.2c0,0.3-0.3,0.5-0.6,0.5
							C97.2,159.4,97.1,159.2,97,158.9L97,158.9z"/>
					</g>
					<g id="Corner-3">
						<path class="st12" d="M77.5,167.8v2.2c0,1.3,1.1,2.2,2.3,2.2h0.1h2.4c0.3-0.1,0.5,0.1,0.6,0.4c0.1,0.3-0.1,0.5-0.4,0.6
							c-0.1,0-0.1,0-0.2,0h-2.4c-1.9,0.1-3.4-1.3-3.5-3.2c0,0,0,0,0-0.1v-2.2c0-0.3,0.3-0.6,0.6-0.6
							C77.2,167.3,77.5,167.5,77.5,167.8L77.5,167.8L77.5,167.8z"/>
					</g>
					<g id="Corner-4">
						<path class="st12" d="M97,167.8v2.2c0,1.3-1.1,2.3-2.4,2.2c0,0,0,0-0.1,0h-2.4c-0.3-0.1-0.5,0.1-0.6,0.4
							c-0.1,0.3,0.1,0.5,0.4,0.6c0.1,0,0.1,0,0.2,0h2.4c1.9,0.1,3.4-1.3,3.5-3.2c0,0,0,0,0-0.1v-2.2c0-0.3-0.3-0.5-0.6-0.5
							C97.2,167.4,97.1,167.6,97,167.8L97,167.8z"/>
					</g>
				</g>
				<g id="Eye">
					<path id="Path" class="st12" d="M82.3,160.9v1.4c0,0.3,0.2,0.5,0.5,0.5s0.5-0.2,0.5-0.5v-1.4c0-0.3-0.2-0.5-0.5-0.5
						S82.3,160.6,82.3,160.9L82.3,160.9z"/>
				</g>
				<g id="Eye-2">
					<path id="Path-2" class="st12" d="M91.3,160.9v1.4c0,0.3,0.3,0.5,0.5,0.5l0,0c0.3,0,0.5-0.2,0.5-0.5v-1.4
						c0-0.3-0.2-0.5-0.5-0.5S91.3,160.6,91.3,160.9L91.3,160.9z"/>
				</g>
				<path id="Mouth" class="st12" d="M83.4,168.1c2.2,1.8,5.4,1.8,7.6,0c0.2-0.2,0.2-0.5,0-0.7l0,0c-0.2-0.2-0.6-0.2-0.8,0
					c-1.8,1.4-4.3,1.4-6.1,0c-0.2-0.2-0.6-0.2-0.8,0C83.2,167.6,83.2,167.9,83.4,168.1L83.4,168.1z"/>
				<path id="Nose" class="st12" d="M87.3,160.9v3.7c0,0.2-0.1,0.3-0.4,0.3h-0.4c-0.3-0.1-0.6,0.1-0.6,0.4s0.1,0.6,0.4,0.6
					c0.1,0,0.2,0,0.3,0H87c0.8,0.1,1.5-0.5,1.5-1.3v-0.1v-3.7c0-0.3-0.3-0.6-0.6-0.6C87.5,160.3,87.3,160.6,87.3,160.9L87.3,160.9z"
					/>
			</g>
		</g>
		<path d="M87.3,153.1c5.5,0,10,4.5,10,10s-4.5,10-10,10s-10-4.5-10-10S81.7,153.1,87.3,153.1z M87.3,151.1c-6.6,0-12,5.4-12,12
			s5.4,12,12,12s12-5.4,12-12S93.9,151.1,87.3,151.1z M93.5,160l-1.4-1.4l-6.1,6.2l-3.1-2.9l-1.4,1.4l4.5,4.3L93.5,160z"/>
	</g>
</g>
</svg>
