<?xml version="1.0" encoding="utf-8"?>
<!-- Generator: Adobe Illustrator 24.0.1, SVG Export Plug-In . SVG Version: 6.00 Build 0)  -->
<svg version="1.1" id="Слой_1" xmlns="http://www.w3.org/2000/svg" xmlns:xlink="http://www.w3.org/1999/xlink" x="0px" y="0px"
	 viewBox="0 0 171.6 202" style="enable-background:new 0 0 171.6 202;" xml:space="preserve">
<style type="text/css">
	.st0{fill:#F2F2F2;}
	.st1{fill:#FFFFFF;}
	.st2{fill:#F1F1F2;}
	.st3{fill:#343434;}
	.st4{font-family:'Arial-BoldMT';}
	.st5{font-size:4.39px;}
	.st6{display:none;fill:url(#SVGID_1_);}
	.st7{display:none;opacity:0.25;fill:url(#SVGID_2_);enable-background:new    ;}
	.st8{display:none;fill:url(#SVGID_3_);}
	.st9{display:none;opacity:0.2;}
	.st10{display:inline;fill:none;stroke:#8D8D8D;stroke-width:0.24;stroke-miterlimit:9.9997;}
	.st11{display:none;}
	
		.st12{display:inline;fill:none;stroke:#EAEAEA;stroke-width:0.6;stroke-linecap:round;stroke-linejoin:round;stroke-miterlimit:3.9999;}
	.st13{fill:#3357A4;}
	.st14{opacity:0.5;clip-path:url(#SVGID_5_);fill:#FFFFFF;}
	.st15{opacity:0.75;clip-path:url(#SVGID_5_);fill:#FFFFFF;}
	.st16{fill:url(#SVGID_6_);}
	.st17{fill:none;stroke:#000000;stroke-width:0.156;stroke-linecap:round;stroke-linejoin:round;}
	.st18{opacity:0.25;fill:url(#SVGID_7_);}
	.st19{fill:url(#SVGID_8_);}
	.st20{fill:none;stroke:url(#SVGID_9_);stroke-width:0.2177;stroke-miterlimit:10;}
	.st21{opacity:0.2;}
	.st22{fill:none;stroke:#8C8C8C;stroke-width:0.2177;stroke-miterlimit:10;}
	.st23{fill:none;stroke:#FFFFFF;stroke-width:0.2177;stroke-miterlimit:10;}
	.st24{opacity:0.5;clip-path:url(#SVGID_11_);fill:#FFFFFF;}
	.st25{opacity:0.75;clip-path:url(#SVGID_11_);fill:#FFFFFF;}
	.st26{fill:url(#SVGID_12_);}
	.st27{fill:url(#SVGID_13_);}
	.st28{fill:url(#SVGID_14_);}
	.st29{fill:url(#SVGID_15_);}
	.st30{fill:url(#SVGID_16_);}
	.st31{fill:url(#SVGID_17_);}
	.st32{fill:url(#SVGID_18_);}
	.st33{fill:none;stroke:#EAEAEA;stroke-width:0.5364;stroke-linecap:round;stroke-linejoin:round;stroke-miterlimit:10;}
	.st34{clip-path:url(#SVGID_20_);}
	.st35{clip-path:url(#SVGID_22_);}
	.st36{filter:url(#Adobe_OpacityMaskFilter);}
	.st37{clip-path:url(#SVGID_24_);}
	.st38{fill:url(#SVGID_28_);}
	.st39{fill:url(#SVGID_29_);}
	.st40{fill:url(#SVGID_30_);}
	.st41{opacity:0.66;}
	.st42{fill:url(#SVGID_31_);}
	.st43{fill:url(#SVGID_32_);}
</style>
<title>transactions</title>
<g>
	<g id="Слой_1_1_">
		<g>
			
				<image style="overflow:visible;opacity:0.25;enable-background:new    ;" width="178" height="217" xlink:href="CB2985B69F18C589.png"  transform="matrix(0.995 0 0 0.995 1.4424 -2.4599)">
			</image>
			<g>
				<path class="st0" d="M166.7,202V26.2C166.7,14,156.8,4,144.5,4H30C17.7,4,7.8,14,7.8,26.2V202"/>
			</g>
		</g>
		<path class="st1" d="M144.6,6.8H30c-10.6,0-19.1,8.6-19.1,19.1c0,0,0.4,176,0.6,176c2.6,0,143.2,0,152.3,0V26
			C163.7,15.4,155.1,6.8,144.6,6.8z"/>
		<path class="st0" d="M78.1,13.8h18.2c0.5,0,0.9,0.4,0.9,0.9v0.4c0,0.5-0.4,0.9-0.9,0.9H78.1c-0.5,0-0.9-0.4-0.9-0.9v-0.4
			C77.2,14.2,77.6,13.8,78.1,13.8z"/>
		<ellipse class="st0" cx="104.6" cy="15.2" rx="3" ry="2.8"/>
		<ellipse class="st1" cx="104.6" cy="15.2" rx="2.5" ry="2.3"/>
		<ellipse class="st2" cx="104.6" cy="15.2" rx="2.1" ry="2"/>
		<text transform="matrix(1.08 0 0 1 32.7715 20.9293)" class="st3 st4 st5">8:30</text>
		<rect x="129.5" y="19.6" class="st3" width="1" height="1.5"/>
		<rect x="130.9" y="19" class="st3" width="1" height="2"/>
		<rect x="132.3" y="18.5" class="st3" width="1" height="2.6"/>
		<rect x="133.7" y="17.8" class="st3" width="1" height="3.3"/>
		<path class="st3" d="M136.8,19.5c1.2-1.1,3.1-1.1,4.3,0l0.6-0.6c-1.6-1.4-4-1.4-5.6,0L136.8,19.5z"/>
		<path class="st3" d="M137.6,20.3c0.7-0.6,1.8-0.6,2.6,0l0.6-0.6c-0.5-0.5-1.2-0.7-1.9-0.7s-1.4,0.3-1.9,0.7L137.6,20.3z"/>
		<path class="st3" d="M138.5,21.1c0.2-0.2,0.6-0.2,0.8,0l0.6-0.6c-0.3-0.3-0.7-0.4-1.1-0.4c-0.4,0-0.8,0.1-1.1,0.4L138.5,21.1z"/>
		<path class="st3" d="M143.3,18.2h5.8c0.1,0,0.2,0.1,0.2,0.2v2.1c0,0.1-0.1,0.2-0.2,0.2h-5.8c-0.1,0-0.2-0.1-0.2-0.2v-2.1
			C143.1,18.3,143.2,18.2,143.3,18.2z"/>
		<path class="st3" d="M149.5,18.9h0.2c0.1,0,0.2,0.1,0.2,0.2v0.7c0,0.1-0.1,0.2-0.2,0.2h-0.2c-0.1,0-0.2-0.1-0.2-0.2v-0.7
			C149.4,19,149.5,18.9,149.5,18.9z"/>
		
			<linearGradient id="SVGID_1_" gradientUnits="userSpaceOnUse" x1="53.7292" y1="-456.651" x2="148.5592" y2="-361.821" gradientTransform="matrix(1 0 0 -1 -3.794968e-03 -330.1264)">
			<stop  offset="0" style="stop-color:#F18532"/>
			<stop  offset="0.31" style="stop-color:#E85F37"/>
			<stop  offset="0.43" style="stop-color:#E45D46"/>
			<stop  offset="0.54" style="stop-color:#E15B4F"/>
			<stop  offset="0.75" style="stop-color:#8D464C"/>
			<stop  offset="1" style="stop-color:#272D49"/>
		</linearGradient>
		<path class="st6" d="M154.3,58.9v68.2c0,4-3.3,7.3-7.3,7.3H27.5c-4,0-7.3-3.3-7.3-7.3l0,0V58.9c0-4,3.3-7.3,7.3-7.3H147
			C151,51.6,154.3,54.9,154.3,58.9L154.3,58.9z"/>
		
			<linearGradient id="SVGID_2_" gradientUnits="userSpaceOnUse" x1="-50.5117" y1="-294.4128" x2="-36.4017" y2="-294.3728" gradientTransform="matrix(0.9999 8.028203e-03 8.028203e-03 -0.9999 83.7014 -203.1166)">
			<stop  offset="0" style="stop-color:#2B2B2B"/>
			<stop  offset="1" style="stop-color:#636363"/>
		</linearGradient>
		<path class="st7" d="M43.2,97.1L33.3,97c-1-0.1-1.8-1-1.7-2l0.1-8.3c-0.1-1,0.7-1.9,1.7-2l0,0l9.9,0.1c1,0.1,1.8,1,1.7,2l0,0
			l-0.1,8.3C45,96.1,44.2,97,43.2,97.1L43.2,97.1z"/>
		
			<linearGradient id="SVGID_3_" gradientUnits="userSpaceOnUse" x1="-50.7114" y1="-294.1696" x2="-36.6014" y2="-294.1197" gradientTransform="matrix(0.9999 8.028203e-03 8.028203e-03 -0.9999 83.7014 -203.1166)">
			<stop  offset="0" style="stop-color:#CFCFCF"/>
			<stop  offset="1" style="stop-color:#9E9E9E"/>
		</linearGradient>
		<path class="st8" d="M43,96.8l-9.9-0.1c-1-0.1-1.8-1-1.7-2l0,0l0.1-8.3c-0.1-1,0.7-1.9,1.7-1.9l9.9,0.1c1,0.1,1.8,1,1.7,2l0,0v8.3
			C44.8,95.8,44.1,96.7,43,96.8L43,96.8z"/>
		<g class="st9">
			<polygon class="st10" points="40.1,92.9 35.5,92.8 35.5,88 40.2,88.1 			"/>
			<polygon class="st10" points="42.3,86.2 37.9,86.2 37.9,88 42.3,88.1 			"/>
			<polygon class="st10" points="37.9,86.2 33.4,86.1 33.4,88 37.9,88 			"/>
			<polygon class="st10" points="42.3,92.9 37.8,92.9 37.8,94.7 42.3,94.7 			"/>
			<polygon class="st10" points="37.8,92.9 33.4,92.8 33.4,94.7 37.8,94.7 			"/>
			<line class="st10" x1="42.3" y1="88.1" x2="44.6" y2="88.1"/>
			<line class="st10" x1="42.3" y1="92.9" x2="44.6" y2="92.9"/>
			<line class="st10" x1="31.2" y1="88" x2="33.5" y2="88"/>
			<line class="st10" x1="31.2" y1="92.8" x2="33.5" y2="92.8"/>
			<line class="st10" x1="31.2" y1="90.4" x2="35.5" y2="90.4"/>
			<line class="st10" x1="40.2" y1="90.5" x2="44.6" y2="90.5"/>
			<line class="st10" x1="33.4" y1="94.7" x2="33.3" y2="96.4"/>
			<line class="st10" x1="37.8" y1="94.7" x2="37.8" y2="96.5"/>
			<line class="st10" x1="42.3" y1="94.7" x2="42.3" y2="96.5"/>
			<line class="st10" x1="35.6" y1="94.7" x2="35.6" y2="96.5"/>
			<line class="st10" x1="40.1" y1="94.7" x2="40.1" y2="96.6"/>
			<line class="st10" x1="33.4" y1="84.4" x2="33.4" y2="86.1"/>
			<line class="st10" x1="37.9" y1="84.4" x2="37.9" y2="86.2"/>
			<line class="st10" x1="42.3" y1="84.5" x2="42.3" y2="86.2"/>
			<line class="st10" x1="35.7" y1="84.4" x2="35.6" y2="86.3"/>
			<line class="st10" x1="40.2" y1="84.4" x2="40.2" y2="86.3"/>
		</g>
		
			<image style="display:none;overflow:visible;enable-background:new    ;" width="533" height="567" xlink:href="CB2985B69F18C585.png"  transform="matrix(2.791316e-02 0 0 2.791316e-02 26.4623 56.5248)">
		</image>
		<g class="st11">
			<path class="st12" d="M139.7,88.8c1.6,1.8,1.6,4.5,0,6.2"/>
			<path class="st12" d="M141.4,87.4c2.4,2.4,2.1,6.9,0,8.9"/>
			<path class="st12" d="M143.3,86.3c3,3.1,2.7,8.7,0,11.2"/>
		</g>
		<path class="st1" d="M31.7,123.7l-0.2-0.2l0.3-0.5l-0.5-0.2l0.1-0.3l0.5,0.2v-0.6h0.3v0.6l0.5-0.2l0.1,0.3l-0.5,0.2l0.3,0.5
			l-0.2,0.2l-0.3-0.5L31.7,123.7z"/>
		<path class="st1" d="M33.4,123.7l-0.2-0.2l0.3-0.5l-0.5-0.2l0.1-0.3l0.5,0.2v-0.6h0.3v0.6l0.5-0.2l0.1,0.3L34,123l0.3,0.5
			l-0.2,0.2l-0.3-0.5L33.4,123.7z"/>
		<path class="st1" d="M35.2,123.7l-0.2-0.2l0.3-0.5l-0.5-0.2l0.1-0.3l0.5,0.2v-0.6h0.3v0.6l0.5-0.2l0.1,0.3l-0.5,0.2l0.3,0.5
			l-0.2,0.2l-0.3-0.5L35.2,123.7z"/>
		<path class="st1" d="M36.9,123.7l-0.2-0.2L37,123l-0.5-0.2l0.1-0.3l0.5,0.2v-0.6h0.3v0.6l0.5-0.2l0.1,0.3l-0.5,0.2l0.3,0.5
			l-0.2,0.2l-0.3-0.5L36.9,123.7z"/>
		<path class="st1" d="M39.2,125.8c-0.1,0-0.3,0-0.4-0.1c-0.1-0.1-0.2-0.2-0.3-0.3c-0.1-0.1-0.2-0.3-0.2-0.5l0.3-0.1
			c0,0.1,0.1,0.2,0.1,0.3c0.1,0.1,0.1,0.2,0.2,0.2c0.1,0,0.2,0.1,0.3,0.1s0.2,0,0.3-0.1s0.2-0.2,0.2-0.3c0.1-0.1,0.1-0.3,0.1-0.4
			s0-0.3-0.1-0.4s-0.1-0.2-0.2-0.3c-0.1-0.1-0.2-0.1-0.3-0.1s-0.2,0-0.3,0.1s-0.2,0.2-0.2,0.3l-0.3-0.1l0.1-1.9H40v0.3h-1.4l0.1-0.2
			l-0.1,1.6l-0.1-0.1c0.1-0.1,0.2-0.2,0.3-0.3c0.1-0.1,0.2-0.1,0.4-0.1s0.3,0.1,0.5,0.2c0.1,0.1,0.3,0.3,0.3,0.4
			c0.1,0.2,0.1,0.4,0.1,0.6s0,0.4-0.1,0.6s-0.2,0.3-0.4,0.4C39.6,125.7,39.4,125.8,39.2,125.8z"/>
		<path class="st1" d="M41.7,122c0.2,0,0.3,0.1,0.5,0.2s0.3,0.3,0.3,0.4c0.1,0.2,0.1,0.4,0.1,0.6v1.2c0,0.2,0,0.4-0.1,0.6
			s-0.2,0.3-0.4,0.4c-0.1,0.1-0.3,0.2-0.5,0.2s-0.3,0-0.4-0.1c-0.1-0.1-0.3-0.2-0.3-0.4l0.2-0.2c0.1,0.1,0.1,0.2,0.2,0.3
			c0.1,0.1,0.2,0.1,0.3,0.1s0.3,0,0.4-0.1c0.1-0.1,0.2-0.2,0.2-0.3c0.1-0.1,0.1-0.3,0.1-0.4v-0.8l0.1,0.1c-0.1,0.2-0.2,0.3-0.3,0.4
			s-0.3,0.2-0.4,0.1c-0.2,0-0.3-0.1-0.5-0.2s-0.3-0.3-0.3-0.4c-0.1-0.2-0.1-0.4-0.1-0.6s0-0.4,0.1-0.6s0.2-0.3,0.3-0.4
			C41.3,122.1,41.5,122,41.7,122z M41.7,122.3c-0.1,0-0.2,0-0.3,0.1s-0.2,0.2-0.2,0.3c-0.1,0.3-0.1,0.6,0,0.9
			c0.1,0.1,0.1,0.2,0.2,0.3c0.1,0.1,0.2,0.1,0.3,0.1s0.2,0,0.4-0.1c0.1-0.1,0.2-0.2,0.2-0.3c0.1-0.3,0.1-0.6,0-0.9
			c-0.1-0.1-0.1-0.2-0.2-0.3C41.9,122.4,41.8,122.4,41.7,122.3L41.7,122.3z"/>
		<path class="st1" d="M44.2,125.8c-0.2,0-0.3-0.1-0.5-0.2s-0.3-0.3-0.4-0.4c-0.1-0.2-0.1-0.4-0.1-0.6v-1.2c0-0.2,0-0.4,0.1-0.6
			s0.2-0.3,0.4-0.4c0.1-0.1,0.3-0.2,0.5-0.2s0.3,0,0.4,0.1c0.1,0.1,0.3,0.2,0.3,0.4l-0.2,0.2c-0.1-0.1-0.1-0.2-0.2-0.3
			c-0.2-0.1-0.5-0.1-0.7,0c-0.1,0.1-0.2,0.2-0.2,0.3c-0.1,0.1-0.1,0.3-0.1,0.4v0.8l-0.1-0.1c0.1-0.2,0.2-0.3,0.3-0.4
			s0.3-0.2,0.4-0.2c0.2,0,0.3,0.1,0.5,0.2s0.3,0.3,0.3,0.5c0.1,0.2,0.1,0.4,0.1,0.6s0,0.4-0.1,0.6s-0.2,0.3-0.4,0.4
			C44.5,125.7,44.3,125.8,44.2,125.8z M44.2,125.4c0.1,0,0.2,0,0.3-0.1s0.2-0.2,0.2-0.3c0.1-0.1,0.1-0.3,0.1-0.4s0-0.3-0.1-0.4
			s-0.1-0.2-0.2-0.3c-0.1-0.1-0.2-0.1-0.3-0.1s-0.2,0-0.3,0.1s-0.2,0.2-0.2,0.3c-0.1,0.1-0.1,0.3-0.1,0.4s0,0.3,0.1,0.4
			s0.1,0.2,0.2,0.3C43.9,125.4,44,125.4,44.2,125.4z"/>
		<path class="st1" d="M46.6,125.8c-0.2,0-0.3-0.1-0.5-0.1c-0.1-0.1-0.3-0.3-0.3-0.4c-0.1-0.2-0.1-0.4-0.1-0.6v-1.4
			c0-0.2,0-0.4,0.1-0.6s0.2-0.3,0.3-0.4c0.3-0.2,0.7-0.2,1,0c0.1,0.1,0.3,0.3,0.3,0.4c0.1,0.2,0.1,0.4,0.1,0.6v1.4
			c0,0.2,0,0.4-0.1,0.6s-0.2,0.3-0.3,0.4C47,125.7,46.8,125.8,46.6,125.8z M46.6,125.4c0.1,0,0.2,0,0.3-0.1s0.2-0.2,0.2-0.3
			c0.1-0.1,0.1-0.3,0.1-0.4v-1.4c0-0.1,0-0.3-0.1-0.4s-0.1-0.2-0.2-0.3c-0.1-0.1-0.2-0.1-0.3-0.1s-0.2,0-0.3,0.1s-0.2,0.2-0.2,0.3
			c-0.1,0.1-0.1,0.3-0.1,0.4v1.4c0,0.1,0,0.3,0.1,0.4s0.1,0.2,0.2,0.3C46.4,125.4,46.5,125.4,46.6,125.4z"/>
		<g id="Page-1">
			<g id="Face-ID">
				<g id="Corners">
					<g id="Corner">
						<path class="st13" d="M77.5,158.9v-2.2c0-1.3,1.1-2.2,2.3-2.2h0.1h2.4c0.3,0.1,0.5-0.1,0.6-0.4c0.1-0.3-0.1-0.5-0.4-0.6
							c-0.1,0-0.1,0-0.2,0h-2.4c-1.9-0.1-3.4,1.3-3.5,3.2c0,0,0,0,0,0.1v2.2c0,0.3,0.3,0.6,0.6,0.6
							C77.2,159.5,77.5,159.2,77.5,158.9L77.5,158.9z"/>
					</g>
					<g id="Corner-2">
						<path class="st13" d="M97,158.9v-2.2c0-1.3-1.1-2.3-2.4-2.2c0,0,0,0-0.1,0h-2.4c-0.3,0.1-0.5-0.1-0.6-0.4
							c-0.1-0.3,0.1-0.5,0.4-0.6c0.1,0,0.1,0,0.2,0h2.4c1.9-0.1,3.4,1.3,3.5,3.2c0,0,0,0,0,0.1v2.2c0,0.3-0.3,0.5-0.6,0.5
							C97.2,159.4,97.1,159.2,97,158.9L97,158.9z"/>
					</g>
					<g id="Corner-3">
						<path class="st13" d="M77.5,167.8v2.2c0,1.3,1.1,2.2,2.3,2.2h0.1h2.4c0.3-0.1,0.5,0.1,0.6,0.4c0.1,0.3-0.1,0.5-0.4,0.6
							c-0.1,0-0.1,0-0.2,0h-2.4c-1.9,0.1-3.4-1.3-3.5-3.2c0,0,0,0,0-0.1v-2.2c0-0.3,0.3-0.6,0.6-0.6
							C77.2,167.3,77.5,167.5,77.5,167.8L77.5,167.8L77.5,167.8z"/>
					</g>
					<g id="Corner-4">
						<path class="st13" d="M97,167.8v2.2c0,1.3-1.1,2.3-2.4,2.2c0,0,0,0-0.1,0h-2.4c-0.3-0.1-0.5,0.1-0.6,0.4
							c-0.1,0.3,0.1,0.5,0.4,0.6c0.1,0,0.1,0,0.2,0h2.4c1.9,0.1,3.4-1.3,3.5-3.2c0,0,0,0,0-0.1v-2.2c0-0.3-0.3-0.5-0.6-0.5
							C97.2,167.4,97.1,167.6,97,167.8L97,167.8z"/>
					</g>
				</g>
				<g id="Eye">
					<path id="Path" class="st13" d="M82.3,160.9v1.4c0,0.3,0.2,0.5,0.5,0.5s0.5-0.2,0.5-0.5v-1.4c0-0.3-0.2-0.5-0.5-0.5
						S82.3,160.6,82.3,160.9L82.3,160.9z"/>
				</g>
				<g id="Eye-2">
					<path id="Path-2" class="st13" d="M91.3,160.9v1.4c0,0.3,0.3,0.5,0.5,0.5l0,0c0.3,0,0.5-0.2,0.5-0.5v-1.4
						c0-0.3-0.2-0.5-0.5-0.5S91.3,160.6,91.3,160.9L91.3,160.9z"/>
				</g>
				<path id="Mouth" class="st13" d="M83.4,168.1c2.2,1.8,5.4,1.8,7.6,0c0.2-0.2,0.2-0.5,0-0.7l0,0c-0.2-0.2-0.6-0.2-0.8,0
					c-1.8,1.4-4.3,1.4-6.1,0c-0.2-0.2-0.6-0.2-0.8,0C83.2,167.6,83.2,167.9,83.4,168.1L83.4,168.1z"/>
				<path id="Nose" class="st13" d="M87.3,160.9v3.7c0,0.2-0.1,0.3-0.4,0.3h-0.4c-0.3-0.1-0.6,0.1-0.6,0.4s0.1,0.6,0.4,0.6
					c0.1,0,0.2,0,0.3,0H87c0.8,0.1,1.5-0.5,1.5-1.3v-0.1v-3.7c0-0.3-0.3-0.6-0.6-0.6C87.5,160.3,87.3,160.6,87.3,160.9L87.3,160.9z"
					/>
			</g>
		</g>
		<path d="M87.3,153.1c5.5,0,10,4.5,10,10s-4.5,10-10,10s-10-4.5-10-10S81.7,153.1,87.3,153.1z M87.3,151.1c-6.6,0-12,5.4-12,12
			s5.4,12,12,12s12-5.4,12-12S93.9,151.1,87.3,151.1z M93.5,160l-1.4-1.4l-6.1,6.2l-3.1-2.9l-1.4,1.4l4.5,4.3L93.5,160z"/>
	</g>
</g>
<g>
	<g>
		<defs>
			<path id="SVGID_4_" d="M47.9,90.2l-9,0c-0.9,0-1.6-0.7-1.6-1.6l0-7.4c0-0.9,0.7-1.6,1.6-1.6l9,0c0.9,0,1.6,0.7,1.6,1.6l0,7.4
				C49.6,89.5,48.8,90.2,47.9,90.2z"/>
		</defs>
		<clipPath id="SVGID_5_">
			<use xlink:href="#SVGID_4_"  style="overflow:visible;"/>
		</clipPath>
		<polygon class="st14" points="46.3,90.2 43.7,90.2 38.2,79.5 40.8,79.5 		"/>
		<polygon class="st14" points="41.2,90.2 38.5,90.2 33,79.5 35.7,79.5 		"/>
		<polygon class="st15" points="50,90.2 45.2,90.2 39.7,79.5 44.5,79.5 		"/>
		<polygon class="st15" points="57.8,90.2 53,90.2 47.5,79.5 52.3,79.5 		"/>
	</g>
	<g id="XMLID_3_">
		<g>
			<linearGradient id="SVGID_6_" gradientUnits="userSpaceOnUse" x1="57.5798" y1="119.5346" x2="147.2216" y2="29.8928">
				<stop  offset="0" style="stop-color:#F18532"/>
				<stop  offset="0.2645" style="stop-color:#EA6936"/>
				<stop  offset="0.5758" style="stop-color:#E35D4A"/>
				<stop  offset="1" style="stop-color:#92474C"/>
			</linearGradient>
			<path class="st16" d="M27.8,118.1V57.6c0-3,2.4-5.5,5.5-5.5h112.1c3,0,5.5,2.4,5.5,5.5v60.5c0,3-2.4,5.5-5.5,5.5H33.2
				C30.2,123.5,27.8,121.1,27.8,118.1z"/>
		</g>
		<g>
			<path class="st17" d="M145.3,123.5H33.2c-3,0-5.5-2.4-5.5-5.5V57.6c0-3,2.4-5.5,5.5-5.5h112.1c3,0,5.5,2.4,5.5,5.5v60.5
				C150.8,121.1,148.3,123.5,145.3,123.5z"/>
		</g>
	</g>
	<g>
		
			<linearGradient id="SVGID_7_" gradientUnits="userSpaceOnUse" x1="-49.5591" y1="-37.6795" x2="-36.5314" y2="-37.7203" gradientTransform="matrix(1 8.100000e-03 -8.100000e-03 1 86.0528 123.2161)">
			<stop  offset="0" style="stop-color:#2B2B2B"/>
			<stop  offset="1" style="stop-color:#636363"/>
		</linearGradient>
		<path class="st18" d="M48.2,90.5l-9.1-0.1c-0.9,0-1.5-0.8-1.5-1.7l0.1-7.2c0-0.9,0.7-1.7,1.6-1.7l9.1,0.1c0.9,0,1.5,0.8,1.5,1.7
			l-0.1,7.2C49.7,89.8,49,90.5,48.2,90.5z"/>
		
			<linearGradient id="SVGID_8_" gradientUnits="userSpaceOnUse" x1="-49.7493" y1="-37.9798" x2="-36.7217" y2="-38.0206" gradientTransform="matrix(1 8.100000e-03 -8.100000e-03 1 86.0528 123.2161)">
			<stop  offset="0" style="stop-color:#CFCFCF"/>
			<stop  offset="1" style="stop-color:#9E9E9E"/>
		</linearGradient>
		<path class="st19" d="M48,90.2l-9.1-0.1c-0.9,0-1.5-0.8-1.5-1.7l0.1-7.2c0-0.9,0.7-1.7,1.6-1.7l9.1,0.1c0.9,0,1.5,0.8,1.5,1.7
			l-0.1,7.2C49.6,89.5,48.9,90.2,48,90.2z"/>
		
			<linearGradient id="SVGID_9_" gradientUnits="userSpaceOnUse" x1="-49.13" y1="-37.9818" x2="-36.6472" y2="-38.0209" gradientTransform="matrix(1 8.100000e-03 -8.100000e-03 1 86.0528 123.2161)">
			<stop  offset="0" style="stop-color:#FFFFFF"/>
			<stop  offset="0.5851" style="stop-color:#9E9E9E"/>
		</linearGradient>
		<path class="st20" d="M48,90.2l-9.1-0.1c-0.9,0-1.5-0.8-1.5-1.7l0.1-7.2c0-0.9,0.7-1.7,1.6-1.7l9.1,0.1c0.9,0,1.5,0.8,1.5,1.7
			l-0.1,7.2C49.6,89.5,48.9,90.2,48,90.2z"/>
		<g class="st21">
			<polygon class="st22" points="45.4,86.9 41.1,86.8 41.1,82.6 45.4,82.6 			"/>
			<polygon class="st22" points="47.4,81 43.3,81 43.3,82.6 47.4,82.7 			"/>
			<polygon class="st22" points="43.3,81 39.2,81 39.2,82.6 43.3,82.6 			"/>
			<polygon class="st22" points="47.4,86.9 43.2,86.8 43.2,88.4 47.3,88.5 			"/>
			<polygon class="st22" points="43.2,86.8 39.1,86.8 39.1,88.4 43.2,88.4 			"/>
			<line class="st22" x1="47.4" y1="82.7" x2="49.5" y2="82.7"/>
			<line class="st22" x1="47.4" y1="86.9" x2="49.5" y2="86.9"/>
			<line class="st22" x1="37.2" y1="82.6" x2="39.3" y2="82.6"/>
			<line class="st22" x1="37.1" y1="86.8" x2="39.2" y2="86.8"/>
			<line class="st22" x1="37.1" y1="84.7" x2="41.1" y2="84.7"/>
			<line class="st22" x1="45.4" y1="84.7" x2="49.5" y2="84.8"/>
			<line class="st22" x1="39.1" y1="88.4" x2="39.1" y2="89.9"/>
			<line class="st22" x1="43.2" y1="88.4" x2="43.2" y2="90"/>
			<line class="st22" x1="47.3" y1="88.5" x2="47.3" y2="90"/>
			<line class="st22" x1="41.2" y1="88.4" x2="41.2" y2="90"/>
			<line class="st22" x1="45.4" y1="88.5" x2="45.4" y2="90.1"/>
			<line class="st22" x1="39.2" y1="79.4" x2="39.2" y2="81"/>
			<line class="st22" x1="43.3" y1="79.5" x2="43.3" y2="81"/>
			<line class="st22" x1="47.4" y1="79.5" x2="47.4" y2="81"/>
			<line class="st22" x1="41.2" y1="79.5" x2="41.2" y2="81.1"/>
			<line class="st22" x1="45.4" y1="79.5" x2="45.4" y2="81.1"/>
		</g>
		<g>
			<polygon class="st23" points="45.5,87 41.2,87 41.3,82.7 45.5,82.8 			"/>
			<polygon class="st23" points="47.5,81.2 43.4,81.1 43.4,82.8 47.5,82.8 			"/>
			<polygon class="st23" points="43.4,81.1 39.3,81.1 39.3,82.7 43.4,82.8 			"/>
			<polygon class="st23" points="47.5,87 43.4,87 43.4,88.6 47.5,88.6 			"/>
			<polygon class="st23" points="43.4,87 39.3,86.9 39.2,88.5 43.4,88.6 			"/>
			<line class="st23" x1="47.5" y1="82.8" x2="49.6" y2="82.8"/>
			<line class="st23" x1="47.5" y1="87" x2="49.6" y2="87"/>
			<line class="st23" x1="37.3" y1="82.7" x2="39.4" y2="82.7"/>
			<line class="st23" x1="37.2" y1="86.9" x2="39.4" y2="86.9"/>
			<line class="st23" x1="37.3" y1="84.8" x2="41.2" y2="84.8"/>
			<line class="st23" x1="45.5" y1="84.9" x2="49.6" y2="84.9"/>
			<line class="st23" x1="39.2" y1="88.5" x2="39.2" y2="90.1"/>
			<line class="st23" x1="43.4" y1="88.6" x2="43.3" y2="90.1"/>
			<line class="st23" x1="47.5" y1="88.6" x2="47.5" y2="90.2"/>
			<line class="st23" x1="41.3" y1="88.6" x2="41.3" y2="90.2"/>
			<line class="st23" x1="45.5" y1="88.6" x2="45.5" y2="90.2"/>
			<line class="st23" x1="39.3" y1="79.6" x2="39.3" y2="81.1"/>
			<line class="st23" x1="43.4" y1="79.6" x2="43.4" y2="81.1"/>
			<line class="st23" x1="47.5" y1="79.6" x2="47.5" y2="81.2"/>
			<line class="st23" x1="41.4" y1="79.6" x2="41.4" y2="81.2"/>
			<line class="st23" x1="45.6" y1="79.6" x2="45.6" y2="81.2"/>
		</g>
		<g>
			<polygon class="st23" points="45.5,87.1 41.2,87 41.3,82.8 45.5,82.8 			"/>
			<polygon class="st23" points="47.5,81.3 43.4,81.2 43.4,82.8 47.5,82.9 			"/>
			<polygon class="st23" points="43.4,81.2 39.3,81.2 39.3,82.8 43.4,82.8 			"/>
			<polygon class="st23" points="47.5,87.1 43.4,87 43.4,88.7 47.5,88.7 			"/>
			<polygon class="st23" points="43.4,87 39.3,87 39.2,88.6 43.4,88.7 			"/>
			<line class="st23" x1="47.5" y1="82.9" x2="49.6" y2="82.9"/>
			<line class="st23" x1="47.5" y1="87.1" x2="49.6" y2="87.1"/>
			<line class="st23" x1="37.3" y1="82.8" x2="39.4" y2="82.8"/>
			<line class="st23" x1="37.2" y1="87" x2="39.3" y2="87"/>
			<line class="st23" x1="37.3" y1="84.9" x2="41.2" y2="84.9"/>
			<line class="st23" x1="45.5" y1="85" x2="49.6" y2="85"/>
			<line class="st23" x1="39.2" y1="88.6" x2="39.2" y2="90.2"/>
			<line class="st23" x1="43.4" y1="88.7" x2="43.3" y2="90.2"/>
			<line class="st23" x1="47.5" y1="88.7" x2="47.5" y2="90.2"/>
			<line class="st23" x1="41.3" y1="88.6" x2="41.3" y2="90.2"/>
			<line class="st23" x1="45.5" y1="88.7" x2="45.5" y2="90.3"/>
			<line class="st23" x1="39.3" y1="79.6" x2="39.3" y2="81.2"/>
			<line class="st23" x1="43.4" y1="79.7" x2="43.4" y2="81.2"/>
			<line class="st23" x1="47.5" y1="79.7" x2="47.5" y2="81.3"/>
			<line class="st23" x1="41.4" y1="79.7" x2="41.4" y2="81.3"/>
			<line class="st23" x1="45.6" y1="79.7" x2="45.6" y2="81.3"/>
		</g>
		<g>
			<defs>
				<path id="SVGID_10_" d="M48,90.2l-9.1-0.1c-0.9,0-1.5-0.8-1.5-1.7l0.1-7.2c0-0.9,0.7-1.7,1.6-1.7l9.1,0.1c0.9,0,1.5,0.8,1.5,1.7
					l-0.1,7.2C49.6,89.5,48.9,90.2,48,90.2z"/>
			</defs>
			<clipPath id="SVGID_11_">
				<use xlink:href="#SVGID_10_"  style="overflow:visible;"/>
			</clipPath>
			<polygon class="st24" points="46.3,90.2 43.7,90.2 38.2,79.5 40.9,79.5 			"/>
			<polygon class="st24" points="41.2,90.2 38.5,90.2 33.1,79.4 35.7,79.5 			"/>
			<polygon class="st25" points="50,90.3 45.2,90.2 39.7,79.5 44.6,79.5 			"/>
			<polygon class="st25" points="57.8,90.3 53,90.3 47.5,79.6 52.4,79.6 			"/>
		</g>
		
			<radialGradient id="SVGID_12_" cx="473.5728" cy="319.5736" r="19.3615" gradientTransform="matrix(0.2077 1.860471e-03 -1.675161e-03 0.2281 -51.7333 8.9918)" gradientUnits="userSpaceOnUse">
			<stop  offset="0" style="stop-color:#FFFFFF"/>
			<stop  offset="1" style="stop-color:#FFFFFF;stop-opacity:0"/>
		</radialGradient>
		<path class="st26" d="M50.1,82.8c0,2.4-1.8,4.4-4.1,4.4c-2.2,0-4-2-4-4.5c0-2.4,1.8-4.4,4.1-4.4C48.3,78.4,50.1,80.4,50.1,82.8z"
			/>
		
			<radialGradient id="SVGID_13_" cx="449.782" cy="328.8259" r="19.3615" gradientTransform="matrix(0.2077 1.860471e-03 -1.675161e-03 0.2281 -51.7333 8.9918)" gradientUnits="userSpaceOnUse">
			<stop  offset="0" style="stop-color:#FFFFFF"/>
			<stop  offset="1" style="stop-color:#FFFFFF;stop-opacity:0"/>
		</radialGradient>
		<ellipse class="st27" cx="41.1" cy="84.8" rx="4" ry="4.4"/>
		
			<radialGradient id="SVGID_14_" cx="453.3642" cy="330.1612" r="19.3615" gradientTransform="matrix(0.2077 1.860471e-03 -1.675161e-03 0.2281 -51.7333 8.9918)" gradientUnits="userSpaceOnUse">
			<stop  offset="0" style="stop-color:#FFFFFF"/>
			<stop  offset="1" style="stop-color:#FFFFFF;stop-opacity:0"/>
		</radialGradient>
		<ellipse class="st28" cx="41.9" cy="85.2" rx="4" ry="4.4"/>
		
			<radialGradient id="SVGID_15_" cx="218.2279" cy="523.2036" r="17.4296" gradientTransform="matrix(0.4447 -6.635678e-03 8.387929e-02 9.554323e-02 -98.3068 31.0986)" gradientUnits="userSpaceOnUse">
			<stop  offset="0" style="stop-color:#FFFFFF"/>
			<stop  offset="0.1459" style="stop-color:#FFFFFF;stop-opacity:0.8541"/>
			<stop  offset="1" style="stop-color:#FFFFFF;stop-opacity:0"/>
		</radialGradient>
		<path class="st29" d="M50.4,79.5c1,1.1-1.7,2.1-6,2.1c-4.3,0.1-8.5-0.8-9.5-1.9c-1-1.1,1.7-2.1,6-2.1
			C45.1,77.6,49.4,78.4,50.4,79.5z"/>
		
			<radialGradient id="SVGID_16_" cx="203.3523" cy="582.5682" r="17.4297" gradientTransform="matrix(0.4447 -6.635678e-03 8.387929e-02 9.554323e-02 -97.2632 32.2873)" gradientUnits="userSpaceOnUse">
			<stop  offset="0" style="stop-color:#FFFFFF"/>
			<stop  offset="0.1459" style="stop-color:#FFFFFF;stop-opacity:0.8541"/>
			<stop  offset="1" style="stop-color:#FFFFFF;stop-opacity:0"/>
		</radialGradient>
		<path class="st30" d="M49.8,86.5c1,1.1-1.7,2.1-6,2.1c-4.3,0.1-8.5-0.8-9.5-1.9c-1-1.1,1.7-2.1,6-2.1
			C44.6,84.5,48.8,85.4,49.8,86.5z"/>
		
			<radialGradient id="SVGID_17_" cx="208.9388" cy="600.0193" r="17.4297" gradientTransform="matrix(0.4447 -6.635678e-03 8.387929e-02 9.554323e-02 -96.9565 32.6367)" gradientUnits="userSpaceOnUse">
			<stop  offset="0" style="stop-color:#FFFFFF"/>
			<stop  offset="0.1459" style="stop-color:#FFFFFF;stop-opacity:0.8541"/>
			<stop  offset="1" style="stop-color:#FFFFFF;stop-opacity:0"/>
		</radialGradient>
		<path class="st31" d="M54,88.5c1,1.1-1.7,2.1-6,2.1c-4.3,0.1-8.5-0.8-9.5-1.9c-1-1.1,1.7-2.1,6-2.1C48.8,86.5,53.1,87.3,54,88.5z"
			/>
		
			<radialGradient id="SVGID_18_" cx="206.6201" cy="586.0326" r="17.4296" gradientTransform="matrix(0.4447 -6.635678e-03 8.387929e-02 9.554323e-02 -97.2023 32.3566)" gradientUnits="userSpaceOnUse">
			<stop  offset="0" style="stop-color:#FFFFFF"/>
			<stop  offset="0.1459" style="stop-color:#FFFFFF;stop-opacity:0.8541"/>
			<stop  offset="1" style="stop-color:#FFFFFF;stop-opacity:0"/>
		</radialGradient>
		<path class="st32" d="M51.6,86.9c1,1.1-1.7,2.1-6,2.1c-4.3,0.1-8.5-0.8-9.5-1.9c-1-1.1,1.7-2.1,6-2.1
			C46.4,84.9,50.6,85.7,51.6,86.9z"/>
	</g>
	
		<image style="overflow:visible;" width="512" height="512" xlink:href="bog.png"  transform="matrix(2.647229e-02 0 0 2.577806e-02 32.5402 55.3248)">
	</image>
	<g>
		<path class="st33" d="M137.3,83.3c1.6,1.5,1.4,4.2,0,5.5"/>
		<path class="st33" d="M138.9,82.1c2.2,2.1,1.9,6.1,0,7.8"/>
		<path class="st33" d="M140.7,81.1c2.8,2.7,2.5,7.6,0,9.8"/>
	</g>
	
		<image style="overflow:visible;enable-background:new    ;" width="833" height="533" xlink:href="CB2985B69F18C584.png"  transform="matrix(2.423942e-02 0 0 2.639588e-02 123.5923 105.792)">
	</image>
</g>
<g>
	<g>
		<g>
			<g>
				<defs>
					<path id="SVGID_19_" d="M145.5,123.9l-112.7,0c-2.9,0-5.3-2.3-5.3-5.2l0-61.3c0-2.9,2.4-5.2,5.3-5.2l112.7,0
						c2.9,0,5.3,2.3,5.3,5.2l0,61.3C150.8,121.6,148.5,123.9,145.5,123.9z"/>
				</defs>
				<clipPath id="SVGID_20_">
					<use xlink:href="#SVGID_19_"  style="overflow:visible;"/>
				</clipPath>
				<g class="st34">
					<g>
						<defs>
							<rect id="SVGID_21_" x="26" y="50.8" width="126.1" height="74.4"/>
						</defs>
						<clipPath id="SVGID_22_">
							<use xlink:href="#SVGID_21_"  style="overflow:visible;"/>
						</clipPath>
						<g class="st35">
							<defs>
								<rect id="SVGID_23_" x="26" y="50.8" width="126.1" height="74.4"/>
							</defs>
							<clipPath id="SVGID_24_">
								<use xlink:href="#SVGID_23_"  style="overflow:visible;"/>
							</clipPath>
							<defs>
								<filter id="Adobe_OpacityMaskFilter" filterUnits="userSpaceOnUse" x="25.9" y="50.3" width="126.2" height="74.9">
									<feColorMatrix  type="matrix" values="1 0 0 0 0  0 1 0 0 0  0 0 1 0 0  0 0 0 1 0"/>
								</filter>
							</defs>
							<mask maskUnits="userSpaceOnUse" x="25.9" y="50.3" width="126.2" height="74.9" id="SVGID_25_">
								<g class="st36">
									<g>
										<defs>
											<rect id="SVGID_26_" x="26" y="50.8" width="126.1" height="74.4"/>
										</defs>
										<clipPath id="SVGID_27_" class="st37">
											<use xlink:href="#SVGID_26_"  style="overflow:visible;"/>
										</clipPath>
										<g style="clip-path:url(#SVGID_27_);">
											
												<image style="overflow:visible;" width="263" height="156" xlink:href="CB2985B69F18C580.jpg"  transform="matrix(0.48 0 0 0.48 25.92 50.32)">
											</image>
										</g>
									</g>
								</g>
							</mask>
							<g style="clip-path:url(#SVGID_24_);mask:url(#SVGID_25_);">
								
									<image style="overflow:visible;" width="263" height="156" xlink:href="CB2985B69F18C581.jpg"  transform="matrix(0.48 0 0 0.48 25.92 50.32)">
								</image>
							</g>
						</g>
					</g>
				</g>
			</g>
		</g>
		<g>
			<linearGradient id="SVGID_28_" gradientUnits="userSpaceOnUse" x1="27.4738" y1="88.0236" x2="150.8401" y2="88.0236">
				<stop  offset="1.595740e-02" style="stop-color:#FFFFFF"/>
				<stop  offset="0.3451" style="stop-color:#9A9A9A"/>
				<stop  offset="0.633" style="stop-color:#454545"/>
				<stop  offset="1" style="stop-color:#8C8C8C"/>
			</linearGradient>
			<path class="st38" d="M145.5,52.7L145.5,52.7c2.6,0,4.8,2.1,4.8,4.7l0,61.3c0,1.2-0.5,2.4-1.4,3.3c-0.9,0.9-2.1,1.4-3.4,1.4
				l-112.7,0c-2.6,0-4.8-2.1-4.8-4.7l0-61.3c0-2.6,2.1-4.7,4.8-4.7L145.5,52.7 M145.5,52.2C145.5,52.2,145.5,52.2,145.5,52.2
				l-112.7,0c-2.9,0-5.3,2.3-5.3,5.2l0,61.3c0,2.9,2.4,5.2,5.3,5.2c0,0,0,0,0,0l112.7,0c2.9,0,5.3-2.3,5.3-5.2l0-61.3
				C150.8,54.5,148.4,52.2,145.5,52.2L145.5,52.2z"/>
		</g>
	</g>
	
		<radialGradient id="SVGID_29_" cx="282.6216" cy="-413.5397" r="19.049" gradientTransform="matrix(1.6258 -3.144195e-02 0.3197 0.1068 -210.1932 105.227)" gradientUnits="userSpaceOnUse">
		<stop  offset="0" style="stop-color:#FFFFFF"/>
		<stop  offset="0.1459" style="stop-color:#FFFFFF;stop-opacity:0.8541"/>
		<stop  offset="1" style="stop-color:#FFFFFF;stop-opacity:0"/>
	</radialGradient>
	<path class="st39" d="M148,51.6c4.1,1.4-6.5,2.7-23.6,3.1c-17.1,0.3-34.3-0.5-38.3-1.9c-4.1-1.4,6.5-2.7,23.6-3.1
		C126.8,49.4,144,50.2,148,51.6z"/>
	
		<radialGradient id="SVGID_30_" cx="114.7143" cy="101.43" r="19.0475" gradientTransform="matrix(1.7839 -3.153498e-02 0.3508 0.1068 -186.5922 116.6737)" gradientUnits="userSpaceOnUse">
		<stop  offset="0" style="stop-color:#FFFFFF"/>
		<stop  offset="0.1459" style="stop-color:#FFFFFF;stop-opacity:0.8541"/>
		<stop  offset="1" style="stop-color:#FFFFFF;stop-opacity:0"/>
	</radialGradient>
	<ellipse class="st40" cx="53.6" cy="123.9" rx="34.9" ry="2.5"/>
	<g class="st41">
		
			<radialGradient id="SVGID_31_" cx="-664.8597" cy="-159.3175" r="243.0041" gradientTransform="matrix(-0.273 3.410863e-04 3.476750e-04 0.266 -22.7228 132.2224)" gradientUnits="userSpaceOnUse">
			<stop  offset="0" style="stop-color:#FFFFFF"/>
			<stop  offset="1" style="stop-color:#FFFFFF;stop-opacity:0"/>
		</radialGradient>
		<path class="st42" d="M145.3,123.4l-82.5,0.1l62.4-71.6l20.1-0.2c3,0,5.4,2.4,5.4,5.3l0.1,61.2C150.8,121,148.3,123.4,145.3,123.4
			z"/>
		
			<radialGradient id="SVGID_32_" cx="-664.8597" cy="-159.3175" r="243.0041" gradientTransform="matrix(-0.273 3.410863e-04 3.476750e-04 0.266 -22.7228 132.2224)" gradientUnits="userSpaceOnUse">
			<stop  offset="0" style="stop-color:#FFFFFF"/>
			<stop  offset="1" style="stop-color:#FFFFFF;stop-opacity:0"/>
		</radialGradient>
		<path class="st43" d="M145.3,123.4l-82.5,0.1l62.4-71.6l20.1-0.2c3,0,5.4,2.4,5.4,5.3l0.1,61.2C150.8,121,148.3,123.4,145.3,123.4
			z"/>
	</g>
</g>
<path class="st1" d="M28,201.7l-0.2-0.2l0.3-0.5l-0.5-0.2l0.1-0.3l0.5,0.2v-0.6h0.3v0.6l0.5-0.2l0.1,0.3l-0.5,0.2l0.3,0.5l-0.2,0.2
	l-0.3-0.5L28,201.7z"/>
<path class="st1" d="M29.7,201.7l-0.2-0.2l0.3-0.5l-0.5-0.2l0.1-0.3l0.5,0.2v-0.6h0.3v0.6l0.5-0.2l0.1,0.3l-0.5,0.2l0.3,0.5
	l-0.2,0.2l-0.3-0.5L29.7,201.7z"/>
<path class="st1" d="M31.5,201.7l-0.2-0.2l0.3-0.5l-0.5-0.2l0.1-0.3l0.5,0.2v-0.6H32v0.6l0.5-0.2l0.1,0.3l-0.5,0.2l0.3,0.5l-0.2,0.2
	l-0.3-0.5L31.5,201.7z"/>
<path class="st1" d="M33.2,201.7l-0.2-0.2l0.3-0.5l-0.5-0.2l0.1-0.3l0.5,0.2v-0.6h0.3v0.6l0.5-0.2l0.1,0.3l-0.5,0.2l0.3,0.5
	l-0.2,0.2l-0.3-0.5L33.2,201.7z"/>
<path class="st1" d="M35.5,203.8c-0.1,0-0.3,0-0.4-0.1c-0.1-0.1-0.2-0.2-0.3-0.3s-0.2-0.3-0.2-0.5l0.3-0.1c0,0.1,0.1,0.2,0.1,0.3
	c0.1,0.1,0.1,0.2,0.2,0.2c0.1,0,0.2,0.1,0.3,0.1s0.2,0,0.3-0.1c0.1-0.1,0.2-0.2,0.2-0.3c0.1-0.1,0.1-0.3,0.1-0.4
	c0-0.1,0-0.3-0.1-0.4c-0.1-0.1-0.1-0.2-0.2-0.3c-0.1-0.1-0.2-0.1-0.3-0.1s-0.2,0-0.3,0.1c-0.1,0.1-0.2,0.2-0.2,0.3l-0.3-0.1l0.1-1.9
	h1.5v0.3h-1.4l0.1-0.2l-0.1,1.6l-0.1-0.1c0.1-0.1,0.2-0.2,0.3-0.3c0.1-0.1,0.2-0.1,0.4-0.1s0.3,0.1,0.5,0.2c0.1,0.1,0.3,0.3,0.3,0.4
	c0.1,0.2,0.1,0.4,0.1,0.6s0,0.4-0.1,0.6s-0.2,0.3-0.4,0.4C35.9,203.7,35.7,203.8,35.5,203.8z"/>
<path class="st1" d="M38,200c0.2,0,0.3,0.1,0.5,0.2c0.2,0.1,0.3,0.3,0.3,0.4c0.1,0.2,0.1,0.4,0.1,0.6v1.2c0,0.2,0,0.4-0.1,0.6
	s-0.2,0.3-0.4,0.4c-0.1,0.1-0.3,0.2-0.5,0.2s-0.3,0-0.4-0.1c-0.1-0.1-0.3-0.2-0.3-0.4l0.2-0.2c0.1,0.1,0.1,0.2,0.2,0.3
	c0.1,0.1,0.2,0.1,0.3,0.1s0.3,0,0.4-0.1c0.1-0.1,0.2-0.2,0.2-0.3c0.1-0.1,0.1-0.3,0.1-0.4v-0.8l0.1,0.1c-0.1,0.2-0.2,0.3-0.3,0.4
	c-0.1,0.1-0.3,0.2-0.4,0.1c-0.2,0-0.3-0.1-0.5-0.2c-0.2-0.1-0.3-0.3-0.3-0.4c-0.1-0.2-0.1-0.4-0.1-0.6s0-0.4,0.1-0.6
	s0.2-0.3,0.3-0.4C37.6,200.1,37.8,200,38,200z M38,200.3c-0.1,0-0.2,0-0.3,0.1c-0.1,0.1-0.2,0.2-0.2,0.3c-0.1,0.3-0.1,0.6,0,0.9
	c0.1,0.1,0.1,0.2,0.2,0.3c0.1,0.1,0.2,0.1,0.3,0.1s0.2,0,0.4-0.1c0.1-0.1,0.2-0.2,0.2-0.3c0.1-0.3,0.1-0.6,0-0.9
	c-0.1-0.1-0.1-0.2-0.2-0.3C38.2,200.4,38.1,200.4,38,200.3L38,200.3z"/>
<path class="st1" d="M40.5,203.8c-0.2,0-0.3-0.1-0.5-0.2c-0.2-0.1-0.3-0.3-0.4-0.4c-0.1-0.2-0.1-0.4-0.1-0.6v-1.2
	c0-0.2,0-0.4,0.1-0.6s0.2-0.3,0.4-0.4c0.1-0.1,0.3-0.2,0.5-0.2s0.3,0,0.4,0.1c0.1,0.1,0.3,0.2,0.3,0.4l-0.2,0.2
	c-0.1-0.1-0.1-0.2-0.2-0.3c-0.2-0.1-0.5-0.1-0.7,0c-0.1,0.1-0.2,0.2-0.2,0.3c-0.1,0.1-0.1,0.3-0.1,0.4v0.8l-0.1-0.1
	c0.1-0.2,0.2-0.3,0.3-0.4c0.1-0.1,0.3-0.2,0.4-0.2c0.2,0,0.3,0.1,0.5,0.2c0.2,0.1,0.3,0.3,0.3,0.5c0.1,0.2,0.1,0.4,0.1,0.6
	s0,0.4-0.1,0.6s-0.2,0.3-0.4,0.4C40.8,203.7,40.6,203.8,40.5,203.8z M40.5,203.4c0.1,0,0.2,0,0.3-0.1c0.1-0.1,0.2-0.2,0.2-0.3
	c0.1-0.1,0.1-0.3,0.1-0.4c0-0.1,0-0.3-0.1-0.4c-0.1-0.1-0.1-0.2-0.2-0.3c-0.1-0.1-0.2-0.1-0.3-0.1s-0.2,0-0.3,0.1
	c-0.1,0.1-0.2,0.2-0.2,0.3c-0.1,0.1-0.1,0.3-0.1,0.4c0,0.1,0,0.3,0.1,0.4c0.1,0.1,0.1,0.2,0.2,0.3C40.2,203.4,40.3,203.4,40.5,203.4
	z"/>
<path class="st1" d="M42.9,203.8c-0.2,0-0.3-0.1-0.5-0.1c-0.1-0.1-0.3-0.3-0.3-0.4c-0.1-0.2-0.1-0.4-0.1-0.6v-1.4
	c0-0.2,0-0.4,0.1-0.6s0.2-0.3,0.3-0.4c0.3-0.2,0.7-0.2,1,0c0.1,0.1,0.3,0.3,0.3,0.4c0.1,0.2,0.1,0.4,0.1,0.6v1.4
	c0,0.2,0,0.4-0.1,0.6s-0.2,0.3-0.3,0.4C43.3,203.7,43.1,203.8,42.9,203.8z M42.9,203.4c0.1,0,0.2,0,0.3-0.1c0.1-0.1,0.2-0.2,0.2-0.3
	c0.1-0.1,0.1-0.3,0.1-0.4v-1.4c0-0.1,0-0.3-0.1-0.4c-0.1-0.1-0.1-0.2-0.2-0.3c-0.1-0.1-0.2-0.1-0.3-0.1s-0.2,0-0.3,0.1
	c-0.1,0.1-0.2,0.2-0.2,0.3c-0.1,0.1-0.1,0.3-0.1,0.4v1.4c0,0.1,0,0.3,0.1,0.4c0.1,0.1,0.1,0.2,0.2,0.3S42.8,203.4,42.9,203.4z"/>
</svg>
