<svg id="Слой_1" data-name="Слой 1" xmlns="http://www.w3.org/2000/svg" width="8.47mm" height="8.47mm" viewBox="0 0 24 24"><defs><style>.cls-1{fill:#1ef5e9;}.cls-2{fill:#fff;}</style></defs><title>window</title><g id="Слой_1-2" data-name="Слой 1"><g id="Слой_2" data-name="Слой 2"><path class="cls-1" d="M.6,4.13v14a3.06,3.06,0,0,0,3.1,2.5c1,.3,1.9-1.4,0-1.5a1.52,1.52,0,0,1-1.2-1.5V8.83a.49.49,0,0,1,.5-.6H20.8c-.7,0,.4-.2.4.4l.1,9.4s-.1.9-.9,1c-1.5.2-1.6,1.6,0,1.6a2.9,2.9,0,0,0,2.9-2.5v-14a1.87,1.87,0,0,0-2.1-2H3A2.13,2.13,0,0,0,.6,4.13Z"/><ellipse class="cls-2" cx="3.9" cy="5.33" rx="0.9" ry="1"/><ellipse class="cls-2" cx="11.1" cy="5.33" rx="0.9" ry="1"/><ellipse class="cls-2" cx="7.5" cy="5.33" rx="0.9" ry="1"/></g></g></svg>